{
  "tempo": {
    "bpm": 99.38401442307692,
    "offset": 0.16253968253968254,
    "beats_per_bar": 4
  },
  "duration": 29.58222222222223,
  "notes": [
    {
      "pitch": 38,
      "start": 0.0,
      "end": 0.603718820861678,
      "velocity": 100,
      "role": "percussion",
      "percussion": "kick"
    },
    {
      "pitch": 43,
      "start": 0.0,
      "end": 3.01859410430839,
      "velocity": 100,
      "role": "bass",
      "percussion": null
    },
    {
      "pitch": 59,
      "start": 0.0,
      "end": 3.01859410430839,
      "velocity": 100,
      "role": "harmony",
      "percussion": null
    },
    {
      "pitch": 67,
      "start": 0.0,
      "end": 0.1509297052154195,
      "velocity": 100,
      "role": "lead",
      "percussion": null
    },
    {
      "pitch": 74,
      "start": 0.1509297052154195,
      "end": 0.5312725623582767,
      "velocity": 100,
      "role": "lead",
      "percussion": null
    },
    {
      "pitch": 67,
      "start": 0.5312725623582767,
      "end": 0.9116154195011339,
      "velocity": 100,
      "role": "lead",
      "percussion": null
    },
    {
      "pitch": 38,
      "start": 0.603718820861678,
      "end": 0.9055782312925171,
      "velocity": 100,
      "role": "percussion",
      "percussion": "snare"
    },
    {
      "pitch": 38,
      "start": 0.9055782312925171,
      "end": 1.207437641723356,
      "velocity": 100,
      "role": "percussion",
      "percussion": "hat"
    },
    {
      "pitch": 69,
      "start": 0.9116154195011339,
      "end": 1.0625451247165534,
      "velocity": 100,
      "role": "lead",
      "percussion": null
    },
    {
      "pitch": 69,
      "start": 1.0625451247165534,
      "end": 1.841342403628118,
      "velocity": 100,
      "role": "lead",
      "percussion": null
    },
    {
      "pitch": 38,
      "start": 1.207437641723356,
      "end": 2.414875283446712,
      "velocity": 100,
      "role": "percussion",
      "percussion": "kick"
    },
    {
      "pitch": 74,
      "start": 1.841342403628118,
      "end": 2.0405696145124717,
      "velocity": 100,
      "role": "lead",
      "percussion": null
    },
    {
      "pitch": 74,
      "start": 2.0405696145124717,
      "end": 2.414875283446712,
      "velocity": 100,
      "role": "lead",
      "percussion": null
    },
    {
      "pitch": 38,
      "start": 2.414875283446712,
      "end": 3.01859410430839,
      "velocity": 100,
      "role": "percussion",
      "percussion": "snare"
    },
    {
      "pitch": 67,
      "start": 2.414875283446712,
      "end": 2.807292517006803,
      "velocity": 100,
      "role": "lead",
      "percussion": null
    },
    {
      "pitch": 69,
      "start": 2.807292517006803,
      "end": 3.01859410430839,
      "velocity": 100,
      "role": "lead",
      "percussion": null
    },
    {
      "pitch": 38,
      "start": 3.01859410430839,
      "end": 3.622312925170068,
      "velocity": 100,
      "role": "percussion",
      "percussion": "hat"
    },
    {
      "pitch": 50,
      "start": 3.01859410430839,
      "end": 6.03718820861678,
      "velocity": 100,
      "role": "bass",
      "percussion": null
    },
    {
      "pitch": 62,
      "start": 3.01859410430839,
      "end": 6.03718820861678,
      "velocity": 100,
      "role": "harmony",
      "percussion": null
    },
    {
      "pitch": 76,
      "start": 3.01859410430839,
      "end": 3.2298956916099772,
      "velocity": 100,
      "role": "lead",
      "percussion": null
    },
    {
      "pitch": 38,
      "start": 3.622312925170068,
      "end": 4.2260317460317465,
      "velocity": 100,
      "role": "percussion",
      "percussion": "kick"
    },
    {
      "pitch": 67,
      "start": 3.7973913832199546,
      "end": 4.437333333333333,
      "velocity": 100,
      "role": "lead",
      "percussion": null
    },
    {
      "pitch": 38,
      "start": 4.2260317460317465,
      "end": 4.527891156462585,
      "velocity": 100,
      "role": "percussion",
      "percussion": "snare"
    },
    {
      "pitch": 74,
      "start": 4.437333333333333,
      "end": 4.763341496598639,
      "velocity": 100,
      "role": "lead",
      "percussion": null
    },
    {
      "pitch": 38,
      "start": 4.527891156462585,
      "end": 4.829750566893424,
      "velocity": 100,
      "role": "percussion",
      "percussion": "hat"
    },
    {
      "pitch": 38,
      "start": 4.829750566893424,
      "end": 6.03718820861678,
      "velocity": 100,
      "role": "percussion",
      "percussion": "kick"
    },
    {
      "pitch": 76,
      "start": 4.926345578231293,
      "end": 5.252353741496599,
      "velocity": 100,
      "role": "lead",
      "percussion": null
    },
    {
      "pitch": 67,
      "start": 5.252353741496599,
      "end": 5.644770975056689,
      "velocity": 100,
      "role": "lead",
      "percussion": null
    },
    {
      "pitch": 74,
      "start": 5.644770975056689,
      "end": 5.9587047619047615,
      "velocity": 100,
      "role": "lead",
      "percussion": null
    },
    {
      "pitch": 76,
      "start": 5.9587047619047615,
      "end": 6.1337832199546485,
      "velocity": 100,
      "role": "lead",
      "percussion": null
    },
    {
      "pitch": 38,
      "start": 6.03718820861678,
      "end": 6.640907029478458,
      "velocity": 100,
      "role": "percussion",
      "percussion": "snare"
    },
    {
      "pitch": 43,
      "start": 6.03718820861678,
      "end": 7.244625850340136,
      "velocity": 100,
      "role": "bass",
      "percussion": null
    },
    {
      "pitch": 55,
      "start": 6.03718820861678,
      "end": 7.244625850340136,
      "velocity": 100,
      "role": "harmony",
      "percussion": null
    },
    {
      "pitch": 74,
      "start": 6.1337832199546485,
      "end": 6.37527074829932,
      "velocity": 100,
      "role": "lead",
      "percussion": null
    },
    {
      "pitch": 74,
      "start": 6.37527074829932,
      "end": 6.713353287981859,
      "velocity": 100,
      "role": "lead",
      "percussion": null
    },
    {
      "pitch": 38,
      "start": 6.640907029478458,
      "end": 7.244625850340136,
      "velocity": 100,
      "role": "percussion",
      "percussion": "hat"
    },
    {
      "pitch": 67,
      "start": 6.713353287981859,
      "end": 7.389518367346939,
      "velocity": 100,
      "role": "lead",
      "percussion": null
    },
    {
      "pitch": 38,
      "start": 7.244625850340136,
      "end": 7.546485260770975,
      "velocity": 100,
      "role": "percussion",
      "percussion": "kick"
    },
    {
      "pitch": 50,
      "start": 7.244625850340136,
      "end": 10.263219954648527,
      "velocity": 100,
      "role": "bass",
      "percussion": null
    },
    {
      "pitch": 59,
      "start": 7.244625850340136,
      "end": 10.263219954648527,
      "velocity": 100,
      "role": "harmony",
      "percussion": null
    },
    {
      "pitch": 67,
      "start": 7.389518367346939,
      "end": 7.588745578231293,
      "velocity": 100,
      "role": "lead",
      "percussion": null
    },
    {
      "pitch": 38,
      "start": 7.546485260770975,
      "end": 7.697414965986395,
      "velocity": 100,
      "role": "percussion",
      "percussion": "snare"
    },
    {
      "pitch": 74,
      "start": 7.588745578231293,
      "end": 8.017385941043084,
      "velocity": 100,
      "role": "lead",
      "percussion": null
    },
    {
      "pitch": 38,
      "start": 7.697414965986395,
      "end": 7.848344671201815,
      "velocity": 100,
      "role": "percussion",
      "percussion": "hat"
    },
    {
      "pitch": 38,
      "start": 7.848344671201815,
      "end": 8.452063492063493,
      "velocity": 100,
      "role": "percussion",
      "percussion": "kick"
    },
    {
      "pitch": 67,
      "start": 8.017385941043084,
      "end": 8.820331972789116,
      "velocity": 100,
      "role": "lead",
      "percussion": null
    },
    {
      "pitch": 38,
      "start": 8.452063492063493,
      "end": 8.753922902494333,
      "velocity": 100,
      "role": "percussion",
      "percussion": "snare"
    },
    {
      "pitch": 38,
      "start": 8.753922902494333,
      "end": 9.055782312925173,
      "velocity": 100,
      "role": "percussion",
      "percussion": "hat"
    },
    {
      "pitch": 74,
      "start": 8.820331972789116,
      "end": 9.158414512471657,
      "velocity": 100,
      "role": "lead",
      "percussion": null
    },
    {
      "pitch": 38,
      "start": 9.055782312925173,
      "end": 9.65950113378685,
      "velocity": 100,
      "role": "percussion",
      "percussion": "kick"
    },
    {
      "pitch": 67,
      "start": 9.158414512471657,
      "end": 9.369716099773244,
      "velocity": 100,
      "role": "lead",
      "percussion": null
    },
    {
      "pitch": 74,
      "start": 9.369716099773244,
      "end": 9.581017687074832,
      "velocity": 100,
      "role": "lead",
      "percussion": null
    },
    {
      "pitch": 69,
      "start": 9.581017687074832,
      "end": 9.79231927437642,
      "velocity": 100,
      "role": "lead",
      "percussion": null
    },
    {
      "pitch": 38,
      "start": 9.65950113378685,
      "end": 10.263219954648529,
      "velocity": 100,
      "role": "percussion",
      "percussion": "snare"
    },
    {
      "pitch": 74,
      "start": 9.79231927437642,
      "end": 10.003620861678007,
      "velocity": 100,
      "role": "lead",
      "percussion": null
    },
    {
      "pitch": 76,
      "start": 10.003620861678007,
      "end": 10.35377777777778,
      "velocity": 100,
      "role": "lead",
      "percussion": null
    },
    {
      "pitch": 43,
      "start": 10.263219954648527,
      "end": 13.885532879818594,
      "velocity": 100,
      "role": "bass",
      "percussion": null
    },
    {
      "pitch": 55,
      "start": 10.263219954648527,
      "end": 13.885532879818594,
      "velocity": 100,
      "role": "harmony",
      "percussion": null
    },
    {
      "pitch": 38,
      "start": 10.263219954648529,
      "end": 10.866938775510206,
      "velocity": 100,
      "role": "percussion",
      "percussion": "hat"
    },
    {
      "pitch": 74,
      "start": 10.35377777777778,
      "end": 10.553004988662135,
      "velocity": 100,
      "role": "lead",
      "percussion": null
    },
    {
      "pitch": 67,
      "start": 10.553004988662135,
      "end": 10.794492517006805,
      "velocity": 100,
      "role": "lead",
      "percussion": null
    },
    {
      "pitch": 78,
      "start": 10.794492517006805,
      "end": 10.933347845804992,
      "velocity": 100,
      "role": "lead",
      "percussion": null
    },
    {
      "pitch": 38,
      "start": 10.866938775510206,
      "end": 11.168798185941046,
      "velocity": 100,
      "role": "percussion",
      "percussion": "kick"
    },
    {
      "pitch": 76,
      "start": 10.933347845804992,
      "end": 11.084277551020412,
      "velocity": 100,
      "role": "lead",
      "percussion": null
    },
    {
      "pitch": 69,
      "start": 11.084277551020412,
      "end": 11.271430385487532,
      "velocity": 100,
      "role": "lead",
      "percussion": null
    },
    {
      "pitch": 38,
      "start": 11.168798185941046,
      "end": 11.319727891156466,
      "velocity": 100,
      "role": "percussion",
      "percussion": "snare"
    },
    {
      "pitch": 76,
      "start": 11.271430385487532,
      "end": 11.899297959183677,
      "velocity": 100,
      "role": "lead",
      "percussion": null
    },
    {
      "pitch": 38,
      "start": 11.319727891156466,
      "end": 11.470657596371886,
      "velocity": 100,
      "role": "percussion",
      "percussion": "hat"
    },
    {
      "pitch": 38,
      "start": 11.470657596371886,
      "end": 12.074376417233564,
      "velocity": 100,
      "role": "percussion",
      "percussion": "kick"
    },
    {
      "pitch": 76,
      "start": 11.899297959183677,
      "end": 12.086450793650798,
      "velocity": 100,
      "role": "lead",
      "percussion": null
    },
    {
      "pitch": 38,
      "start": 12.074376417233564,
      "end": 12.376235827664404,
      "velocity": 100,
      "role": "percussion",
      "percussion": "snare"
    },
    {
      "pitch": 69,
      "start": 12.086450793650798,
      "end": 12.297752380952385,
      "velocity": 100,
      "role": "lead",
      "percussion": null
    },
    {
      "pitch": 74,
      "start": 12.297752380952385,
      "end": 12.678095238095242,
      "velocity": 100,
      "role": "lead",
      "percussion": null
    },
    {
      "pitch": 38,
      "start": 12.376235827664404,
      "end": 12.678095238095244,
      "velocity": 100,
      "role": "percussion",
      "percussion": "hat"
    },
    {
      "pitch": 69,
      "start": 12.678095238095242,
      "end": 12.816950566893428,
      "velocity": 100,
      "role": "lead",
      "percussion": null
    },
    {
      "pitch": 74,
      "start": 12.816950566893428,
      "end": 13.082586848072566,
      "velocity": 100,
      "role": "lead",
      "percussion": null
    },
    {
      "pitch": 74,
      "start": 13.082586848072566,
      "end": 13.305962811791387,
      "velocity": 100,
      "role": "lead",
      "percussion": null
    },
    {
      "pitch": 67,
      "start": 13.305962811791387,
      "end": 13.571599092970525,
      "velocity": 100,
      "role": "lead",
      "percussion": null
    },
    {
      "pitch": 74,
      "start": 13.571599092970525,
      "end": 13.897607256235831,
      "velocity": 100,
      "role": "lead",
      "percussion": null
    },
    {
      "pitch": 50,
      "start": 13.885532879818594,
      "end": 16.904126984126986,
      "velocity": 100,
      "role": "bass",
      "percussion": null
    },
    {
      "pitch": 59,
      "start": 13.885532879818594,
      "end": 16.904126984126986,
      "velocity": 100,
      "role": "harmony",
      "percussion": null
    },
    {
      "pitch": 74,
      "start": 13.897607256235831,
      "end": 14.905817687074833,
      "velocity": 100,
      "role": "lead",
      "percussion": null
    },
    {
      "pitch": 67,
      "start": 14.905817687074833,
      "end": 15.183528344671206,
      "velocity": 100,
      "role": "lead",
      "percussion": null
    },
    {
      "pitch": 67,
      "start": 15.183528344671206,
      "end": 15.412941496598643,
      "velocity": 100,
      "role": "lead",
      "percussion": null
    },
    {
      "pitch": 74,
      "start": 15.412941496598643,
      "end": 15.763098412698417,
      "velocity": 100,
      "role": "lead",
      "percussion": null
    },
    {
      "pitch": 74,
      "start": 15.763098412698417,
      "end": 16.125329705215425,
      "velocity": 100,
      "role": "lead",
      "percussion": null
    },
    {
      "pitch": 74,
      "start": 16.125329705215425,
      "end": 16.517746938775517,
      "velocity": 100,
      "role": "lead",
      "percussion": null
    },
    {
      "pitch": 74,
      "start": 16.517746938775517,
      "end": 16.91016417233561,
      "velocity": 100,
      "role": "lead",
      "percussion": null
    },
    {
      "pitch": 43,
      "start": 16.904126984126986,
      "end": 19.922721088435377,
      "velocity": 100,
      "role": "bass",
      "percussion": null
    },
    {
      "pitch": 62,
      "start": 16.904126984126986,
      "end": 19.922721088435377,
      "velocity": 100,
      "role": "harmony",
      "percussion": null
    },
    {
      "pitch": 50,
      "start": 19.922721088435377,
      "end": 21.733877551020413,
      "velocity": 100,
      "role": "bass",
      "percussion": null
    },
    {
      "pitch": 59,
      "start": 19.922721088435377,
      "end": 21.733877551020413,
      "velocity": 100,
      "role": "harmony",
      "percussion": null
    },
    {
      "pitch": 43,
      "start": 21.733877551020413,
      "end": 23.54503401360545,
      "velocity": 100,
      "role": "bass",
      "percussion": null
    },
    {
      "pitch": 55,
      "start": 21.733877551020413,
      "end": 23.54503401360545,
      "velocity": 100,
      "role": "harmony",
      "percussion": null
    },
    {
      "pitch": 50,
      "start": 23.54503401360545,
      "end": 25.356190476190484,
      "velocity": 100,
      "role": "bass",
      "percussion": null
    },
    {
      "pitch": 59,
      "start": 23.54503401360545,
      "end": 25.356190476190484,
      "velocity": 100,
      "role": "harmony",
      "percussion": null
    },
    {
      "pitch": 43,
      "start": 25.356190476190484,
      "end": 26.56362811791384,
      "velocity": 100,
      "role": "bass",
      "percussion": null
    },
    {
      "pitch": 55,
      "start": 25.356190476190484,
      "end": 26.56362811791384,
      "velocity": 100,
      "role": "harmony",
      "percussion": null
    },
    {
      "pitch": 43,
      "start": 26.56362811791384,
      "end": 28.978503401360552,
      "velocity": 100,
      "role": "bass",
      "percussion": null
    },
    {
      "pitch": 62,
      "start": 26.56362811791384,
      "end": 28.978503401360552,
      "velocity": 100,
      "role": "harmony",
      "percussion": null
    },
    {
      "pitch": 48,
      "start": 28.978503401360552,
      "end": 29.58222222222223,
      "velocity": 100,
      "role": "bass",
      "percussion": null
    },
    {
      "pitch": 64,
      "start": 28.978503401360552,
      "end": 29.58222222222223,
      "velocity": 100,
      "role": "harmony",
      "percussion": null
    }
  ]
}