{
  "tempo": {
    "bpm": 178.20581896551724,
    "offset": 1.8343764172335602,
    "beats_per_bar": 4
  },
  "duration": 26.935147392290258,
  "notes": [
    {
      "pitch": 38,
      "start": 0.0,
      "end": 0.2895528344671202,
      "velocity": 100,
      "role": "bass",
      "percussion": null
    },
    {
      "pitch": 38,
      "start": 0.0,
      "end": 0.08417233560090703,
      "velocity": 100,
      "role": "percussion",
      "percussion": "kick"
    },
    {
      "pitch": 50,
      "start": 0.0,
      "end": 1.3467573696145125,
      "velocity": 100,
      "role": "harmony",
      "percussion": null
    },
    {
      "pitch": 69,
      "start": 0.0,
      "end": 0.5117678004535148,
      "velocity": 100,
      "role": "lead",
      "percussion": null
    },
    {
      "pitch": 38,
      "start": 0.08417233560090703,
      "end": 0.16834467120181407,
      "velocity": 100,
      "role": "percussion",
      "percussion": "snare"
    },
    {
      "pitch": 38,
      "start": 0.16834467120181407,
      "end": 0.33668934240362813,
      "velocity": 100,
      "role": "percussion",
      "percussion": "hat"
    },
    {
      "pitch": 38,
      "start": 0.2895528344671202,
      "end": 0.46463129251700686,
      "velocity": 100,
      "role": "bass",
      "percussion": null
    },
    {
      "pitch": 38,
      "start": 0.33668934240362813,
      "end": 0.42086167800453517,
      "velocity": 100,
      "role": "percussion",
      "percussion": "kick"
    },
    {
      "pitch": 38,
      "start": 0.42086167800453517,
      "end": 0.5050340136054422,
      "velocity": 100,
      "role": "percussion",
      "percussion": "snare"
    },
    {
      "pitch": 38,
      "start": 0.46463129251700686,
      "end": 0.6969469387755103,
      "velocity": 100,
      "role": "bass",
      "percussion": null
    },
    {
      "pitch": 38,
      "start": 0.5050340136054422,
      "end": 0.6733786848072563,
      "velocity": 100,
      "role": "percussion",
      "percussion": "hat"
    },
    {
      "pitch": 71,
      "start": 0.5117678004535148,
      "end": 0.7676517006802721,
      "velocity": 100,
      "role": "lead",
      "percussion": null
    },
    {
      "pitch": 38,
      "start": 0.6733786848072563,
      "end": 0.7575510204081632,
      "velocity": 100,
      "role": "percussion",
      "percussion": "kick"
    },
    {
      "pitch": 43,
      "start": 0.6969469387755103,
      "end": 0.8484571428571429,
      "velocity": 100,
      "role": "bass",
      "percussion": null
    },
    {
      "pitch": 38,
      "start": 0.7575510204081632,
      "end": 0.8417233560090702,
      "velocity": 100,
      "role": "percussion",
      "percussion": "snare"
    },
    {
      "pitch": 69,
      "start": 0.7676517006802721,
      "end": 0.9292625850340136,
      "velocity": 100,
      "role": "lead",
      "percussion": null
    },
    {
      "pitch": 38,
      "start": 0.8417233560090702,
      "end": 1.0100680272108842,
      "velocity": 100,
      "role": "percussion",
      "percussion": "hat"
    },
    {
      "pitch": 38,
      "start": 0.8484571428571429,
      "end": 1.0471038548752836,
      "velocity": 100,
      "role": "bass",
      "percussion": null
    },
    {
      "pitch": 66,
      "start": 0.9292625850340136,
      "end": 1.0807727891156462,
      "velocity": 100,
      "role": "lead",
      "percussion": null
    },
    {
      "pitch": 38,
      "start": 1.0100680272108842,
      "end": 1.1784126984126981,
      "velocity": 100,
      "role": "percussion",
      "percussion": "kick"
    },
    {
      "pitch": 38,
      "start": 1.0471038548752836,
      "end": 1.5218358276643993,
      "velocity": 100,
      "role": "bass",
      "percussion": null
    },
    {
      "pitch": 69,
      "start": 1.0807727891156462,
      "end": 1.4410303854875284,
      "velocity": 100,
      "role": "lead",
      "percussion": null
    },
    {
      "pitch": 38,
      "start": 1.1784126984126981,
      "end": 1.346757369614512,
      "velocity": 100,
      "role": "percussion",
      "percussion": "snare"
    },
    {
      "pitch": 38,
      "start": 1.346757369614512,
      "end": 1.6834467120181402,
      "velocity": 100,
      "role": "percussion",
      "percussion": "hat"
    },
    {
      "pitch": 57,
      "start": 1.3467573696145125,
      "end": 1.6834467120181407,
      "velocity": 100,
      "role": "harmony",
      "percussion": null
    },
    {
      "pitch": 69,
      "start": 1.4410303854875284,
      "end": 2.2894875283446714,
      "velocity": 100,
      "role": "lead",
      "percussion": null
    },
    {
      "pitch": 38,
      "start": 1.5218358276643993,
      "end": 1.7642521541950116,
      "velocity": 100,
      "role": "bass",
      "percussion": null
    },
    {
      "pitch": 38,
      "start": 1.6834467120181402,
      "end": 1.7676190476190472,
      "velocity": 100,
      "role": "percussion",
      "percussion": "kick"
    },
    {
      "pitch": 54,
      "start": 1.6834467120181407,
      "end": 5.050340136054422,
      "velocity": 100,
      "role": "harmony",
      "percussion": null
    },
    {
      "pitch": 38,
      "start": 1.7642521541950116,
      "end": 2.020136054421769,
      "velocity": 100,
      "role": "bass",
      "percussion": null
    },
    {
      "pitch": 38,
      "start": 1.7676190476190472,
      "end": 1.8517913832199542,
      "velocity": 100,
      "role": "percussion",
      "percussion": "snare"
    },
    {
      "pitch": 38,
      "start": 1.8517913832199542,
      "end": 2.0201360544217684,
      "velocity": 100,
      "role": "percussion",
      "percussion": "hat"
    },
    {
      "pitch": 38,
      "start": 2.0201360544217684,
      "end": 2.1043083900226756,
      "velocity": 100,
      "role": "percussion",
      "percussion": "kick"
    },
    {
      "pitch": 38,
      "start": 2.020136054421769,
      "end": 2.3669260770975056,
      "velocity": 100,
      "role": "bass",
      "percussion": null
    },
    {
      "pitch": 38,
      "start": 2.1043083900226756,
      "end": 2.1884807256235828,
      "velocity": 100,
      "role": "percussion",
      "percussion": "snare"
    },
    {
      "pitch": 38,
      "start": 2.1884807256235828,
      "end": 2.3568253968253967,
      "velocity": 100,
      "role": "percussion",
      "percussion": "hat"
    },
    {
      "pitch": 73,
      "start": 2.2894875283446714,
      "end": 2.464565986394558,
      "velocity": 100,
      "role": "lead",
      "percussion": null
    },
    {
      "pitch": 38,
      "start": 2.3568253968253967,
      "end": 2.440997732426304,
      "velocity": 100,
      "role": "percussion",
      "percussion": "kick"
    },
    {
      "pitch": 45,
      "start": 2.3669260770975056,
      "end": 2.68004716553288,
      "velocity": 100,
      "role": "bass",
      "percussion": null
    },
    {
      "pitch": 38,
      "start": 2.440997732426304,
      "end": 2.525170068027211,
      "velocity": 100,
      "role": "percussion",
      "percussion": "snare"
    },
    {
      "pitch": 69,
      "start": 2.464565986394558,
      "end": 3.7540861678004536,
      "velocity": 100,
      "role": "lead",
      "percussion": null
    },
    {
      "pitch": 38,
      "start": 2.525170068027211,
      "end": 2.693514739229025,
      "velocity": 100,
      "role": "percussion",
      "percussion": "hat"
    },
    {
      "pitch": 38,
      "start": 2.68004716553288,
      "end": 3.030204081632653,
      "velocity": 100,
      "role": "bass",
      "percussion": null
    },
    {
      "pitch": 38,
      "start": 2.693514739229025,
      "end": 2.861859410430839,
      "velocity": 100,
      "role": "percussion",
      "percussion": "kick"
    },
    {
      "pitch": 38,
      "start": 2.861859410430839,
      "end": 3.030204081632653,
      "velocity": 100,
      "role": "percussion",
      "percussion": "snare"
    },
    {
      "pitch": 38,
      "start": 3.030204081632653,
      "end": 3.49483537414966,
      "velocity": 100,
      "role": "bass",
      "percussion": null
    },
    {
      "pitch": 38,
      "start": 3.030204081632653,
      "end": 3.366893424036281,
      "velocity": 100,
      "role": "percussion",
      "percussion": "hat"
    },
    {
      "pitch": 38,
      "start": 3.366893424036281,
      "end": 3.451065759637188,
      "velocity": 100,
      "role": "percussion",
      "percussion": "kick"
    },
    {
      "pitch": 38,
      "start": 3.451065759637188,
      "end": 3.5352380952380953,
      "velocity": 100,
      "role": "percussion",
      "percussion": "snare"
    },
    {
      "pitch": 38,
      "start": 3.49483537414966,
      "end": 3.8214240362811793,
      "velocity": 100,
      "role": "bass",
      "percussion": null
    },
    {
      "pitch": 38,
      "start": 3.5352380952380953,
      "end": 3.7035827664399092,
      "velocity": 100,
      "role": "percussion",
      "percussion": "hat"
    },
    {
      "pitch": 38,
      "start": 3.7035827664399092,
      "end": 3.7877551020408164,
      "velocity": 100,
      "role": "percussion",
      "percussion": "kick"
    },
    {
      "pitch": 64,
      "start": 3.7540861678004536,
      "end": 3.92916462585034,
      "velocity": 100,
      "role": "lead",
      "percussion": null
    },
    {
      "pitch": 38,
      "start": 3.7877551020408164,
      "end": 3.8719274376417236,
      "velocity": 100,
      "role": "percussion",
      "percussion": "snare"
    },
    {
      "pitch": 38,
      "start": 3.8214240362811793,
      "end": 4.148012698412699,
      "velocity": 100,
      "role": "bass",
      "percussion": null
    },
    {
      "pitch": 38,
      "start": 3.8719274376417236,
      "end": 4.040272108843538,
      "velocity": 100,
      "role": "percussion",
      "percussion": "hat"
    },
    {
      "pitch": 69,
      "start": 3.92916462585034,
      "end": 4.255753287981859,
      "velocity": 100,
      "role": "lead",
      "percussion": null
    },
    {
      "pitch": 38,
      "start": 4.040272108843538,
      "end": 4.124444444444444,
      "velocity": 100,
      "role": "percussion",
      "percussion": "kick"
    },
    {
      "pitch": 38,
      "start": 4.124444444444444,
      "end": 4.208616780045351,
      "velocity": 100,
      "role": "percussion",
      "percussion": "snare"
    },
    {
      "pitch": 38,
      "start": 4.148012698412699,
      "end": 5.181648979591837,
      "velocity": 100,
      "role": "bass",
      "percussion": null
    },
    {
      "pitch": 38,
      "start": 4.208616780045351,
      "end": 4.3769614512471655,
      "velocity": 100,
      "role": "percussion",
      "percussion": "hat"
    },
    {
      "pitch": 73,
      "start": 4.255753287981859,
      "end": 4.383695238095238,
      "velocity": 100,
      "role": "lead",
      "percussion": null
    },
    {
      "pitch": 38,
      "start": 4.3769614512471655,
      "end": 4.54530612244898,
      "velocity": 100,
      "role": "percussion",
      "percussion": "kick"
    },
    {
      "pitch": 71,
      "start": 4.383695238095238,
      "end": 4.639579138321995,
      "velocity": 100,
      "role": "lead",
      "percussion": null
    },
    {
      "pitch": 38,
      "start": 4.54530612244898,
      "end": 4.713650793650794,
      "velocity": 100,
      "role": "percussion",
      "percussion": "snare"
    },
    {
      "pitch": 67,
      "start": 4.639579138321995,
      "end": 4.8718947845804985,
      "velocity": 100,
      "role": "lead",
      "percussion": null
    },
    {
      "pitch": 38,
      "start": 4.713650793650794,
      "end": 5.050340136054422,
      "velocity": 100,
      "role": "percussion",
      "percussion": "hat"
    },
    {
      "pitch": 67,
      "start": 4.8718947845804985,
      "end": 5.1277786848072555,
      "velocity": 100,
      "role": "lead",
      "percussion": null
    },
    {
      "pitch": 38,
      "start": 5.050340136054422,
      "end": 5.134512471655329,
      "velocity": 100,
      "role": "percussion",
      "percussion": "kick"
    },
    {
      "pitch": 59,
      "start": 5.050340136054422,
      "end": 5.38702947845805,
      "velocity": 100,
      "role": "harmony",
      "percussion": null
    },
    {
      "pitch": 69,
      "start": 5.1277786848072555,
      "end": 7.858329251700679,
      "velocity": 100,
      "role": "lead",
      "percussion": null
    },
    {
      "pitch": 38,
      "start": 5.134512471655329,
      "end": 5.218684807256236,
      "velocity": 100,
      "role": "percussion",
      "percussion": "snare"
    },
    {
      "pitch": 47,
      "start": 5.181648979591837,
      "end": 5.656380952380952,
      "velocity": 100,
      "role": "bass",
      "percussion": null
    },
    {
      "pitch": 38,
      "start": 5.218684807256236,
      "end": 5.38702947845805,
      "velocity": 100,
      "role": "percussion",
      "percussion": "hat"
    },
    {
      "pitch": 38,
      "start": 5.38702947845805,
      "end": 5.471201814058957,
      "velocity": 100,
      "role": "percussion",
      "percussion": "kick"
    },
    {
      "pitch": 50,
      "start": 5.38702947845805,
      "end": 6.060408163265306,
      "velocity": 100,
      "role": "harmony",
      "percussion": null
    },
    {
      "pitch": 38,
      "start": 5.471201814058957,
      "end": 5.555374149659864,
      "velocity": 100,
      "role": "percussion",
      "percussion": "snare"
    },
    {
      "pitch": 38,
      "start": 5.555374149659864,
      "end": 5.723718820861678,
      "velocity": 100,
      "role": "percussion",
      "percussion": "hat"
    },
    {
      "pitch": 38,
      "start": 5.656380952380952,
      "end": 5.969502040816327,
      "velocity": 100,
      "role": "bass",
      "percussion": null
    },
    {
      "pitch": 38,
      "start": 5.723718820861678,
      "end": 5.807891156462585,
      "velocity": 100,
      "role": "percussion",
      "percussion": "kick"
    },
    {
      "pitch": 38,
      "start": 5.807891156462585,
      "end": 5.892063492063492,
      "velocity": 100,
      "role": "percussion",
      "percussion": "snare"
    },
    {
      "pitch": 38,
      "start": 5.892063492063492,
      "end": 6.060408163265306,
      "velocity": 100,
      "role": "percussion",
      "percussion": "hat"
    },
    {
      "pitch": 38,
      "start": 5.969502040816327,
      "end": 6.296090702947846,
      "velocity": 100,
      "role": "bass",
      "percussion": null
    },
    {
      "pitch": 54,
      "start": 6.060408163265306,
      "end": 8.080544217687075,
      "velocity": 100,
      "role": "harmony",
      "percussion": null
    },
    {
      "pitch": 38,
      "start": 6.296090702947846,
      "end": 6.589010430839003,
      "velocity": 100,
      "role": "bass",
      "percussion": null
    },
    {
      "pitch": 38,
      "start": 6.589010430839003,
      "end": 7.4374675736961455,
      "velocity": 100,
      "role": "bass",
      "percussion": null
    },
    {
      "pitch": 45,
      "start": 7.4374675736961455,
      "end": 7.740487981859411,
      "velocity": 100,
      "role": "bass",
      "percussion": null
    },
    {
      "pitch": 38,
      "start": 7.740487981859411,
      "end": 8.06707664399093,
      "velocity": 100,
      "role": "bass",
      "percussion": null
    },
    {
      "pitch": 67,
      "start": 7.858329251700679,
      "end": 8.289291609977324,
      "velocity": 100,
      "role": "lead",
      "percussion": null
    },
    {
      "pitch": 38,
      "start": 8.06707664399093,
      "end": 8.413866666666667,
      "velocity": 100,
      "role": "bass",
      "percussion": null
    },
    {
      "pitch": 50,
      "start": 8.080544217687075,
      "end": 10.100680272108844,
      "velocity": 100,
      "role": "harmony",
      "percussion": null
    },
    {
      "pitch": 67,
      "start": 8.289291609977324,
      "end": 8.740455328798186,
      "velocity": 100,
      "role": "lead",
      "percussion": null
    },
    {
      "pitch": 38,
      "start": 8.413866666666667,
      "end": 9.157950113378686,
      "velocity": 100,
      "role": "bass",
      "percussion": null
    },
    {
      "pitch": 67,
      "start": 8.740455328798186,
      "end": 8.925634467120181,
      "velocity": 100,
      "role": "lead",
      "percussion": null
    },
    {
      "pitch": 69,
      "start": 8.925634467120181,
      "end": 9.309460317460317,
      "velocity": 100,
      "role": "lead",
      "percussion": null
    },
    {
      "pitch": 45,
      "start": 9.157950113378686,
      "end": 9.366697505668935,
      "velocity": 100,
      "role": "bass",
      "percussion": null
    },
    {
      "pitch": 64,
      "start": 9.309460317460317,
      "end": 9.437402267573695,
      "velocity": 100,
      "role": "lead",
      "percussion": null
    },
    {
      "pitch": 45,
      "start": 9.366697505668935,
      "end": 9.693286167800453,
      "velocity": 100,
      "role": "bass",
      "percussion": null
    },
    {
      "pitch": 69,
      "start": 9.437402267573695,
      "end": 10.390233106575963,
      "velocity": 100,
      "role": "lead",
      "percussion": null
    },
    {
      "pitch": 38,
      "start": 9.693286167800453,
      "end": 9.996306575963718,
      "velocity": 100,
      "role": "bass",
      "percussion": null
    },
    {
      "pitch": 38,
      "start": 9.996306575963718,
      "end": 10.27575873015873,
      "velocity": 100,
      "role": "bass",
      "percussion": null
    },
    {
      "pitch": 57,
      "start": 10.100680272108844,
      "end": 11.110748299319729,
      "velocity": 100,
      "role": "harmony",
      "percussion": null
    },
    {
      "pitch": 38,
      "start": 10.27575873015873,
      "end": 10.56531156462585,
      "velocity": 100,
      "role": "bass",
      "percussion": null
    },
    {
      "pitch": 64,
      "start": 10.390233106575963,
      "end": 10.622548752834465,
      "velocity": 100,
      "role": "lead",
      "percussion": null
    },
    {
      "pitch": 38,
      "start": 10.56531156462585,
      "end": 10.902000907029478,
      "velocity": 100,
      "role": "bass",
      "percussion": null
    },
    {
      "pitch": 64,
      "start": 10.622548752834465,
      "end": 10.760591383219953,
      "velocity": 100,
      "role": "lead",
      "percussion": null
    },
    {
      "pitch": 64,
      "start": 10.760591383219953,
      "end": 10.912101587301587,
      "velocity": 100,
      "role": "lead",
      "percussion": null
    },
    {
      "pitch": 45,
      "start": 10.902000907029478,
      "end": 11.26225850340136,
      "velocity": 100,
      "role": "bass",
      "percussion": null
    },
    {
      "pitch": 67,
      "start": 10.912101587301587,
      "end": 11.06361179138322,
      "velocity": 100,
      "role": "lead",
      "percussion": null
    },
    {
      "pitch": 71,
      "start": 11.06361179138322,
      "end": 11.343063945578232,
      "velocity": 100,
      "role": "lead",
      "percussion": null
    },
    {
      "pitch": 50,
      "start": 11.110748299319729,
      "end": 12.457505668934242,
      "velocity": 100,
      "role": "harmony",
      "percussion": null
    },
    {
      "pitch": 38,
      "start": 11.26225850340136,
      "end": 11.484473469387755,
      "velocity": 100,
      "role": "bass",
      "percussion": null
    },
    {
      "pitch": 67,
      "start": 11.343063945578232,
      "end": 11.48110657596372,
      "velocity": 100,
      "role": "lead",
      "percussion": null
    },
    {
      "pitch": 67,
      "start": 11.48110657596372,
      "end": 11.642717460317462,
      "velocity": 100,
      "role": "lead",
      "percussion": null
    },
    {
      "pitch": 69,
      "start": 11.642717460317462,
      "end": 11.864932426303856,
      "velocity": 100,
      "role": "lead",
      "percussion": null
    },
    {
      "pitch": 64,
      "start": 11.864932426303856,
      "end": 12.026543310657598,
      "velocity": 100,
      "role": "lead",
      "percussion": null
    },
    {
      "pitch": 67,
      "start": 12.026543310657598,
      "end": 12.201621768707485,
      "velocity": 100,
      "role": "lead",
      "percussion": null
    },
    {
      "pitch": 67,
      "start": 12.201621768707485,
      "end": 12.38680090702948,
      "velocity": 100,
      "role": "lead",
      "percussion": null
    },
    {
      "pitch": 64,
      "start": 12.38680090702948,
      "end": 12.609015873015874,
      "velocity": 100,
      "role": "lead",
      "percussion": null
    },
    {
      "pitch": 57,
      "start": 12.457505668934242,
      "end": 12.794195011337871,
      "velocity": 100,
      "role": "harmony",
      "percussion": null
    },
    {
      "pitch": 69,
      "start": 12.609015873015874,
      "end": 12.784094331065761,
      "velocity": 100,
      "role": "lead",
      "percussion": null
    },
    {
      "pitch": 67,
      "start": 12.784094331065761,
      "end": 12.925503854875284,
      "velocity": 100,
      "role": "lead",
      "percussion": null
    },
    {
      "pitch": 52,
      "start": 12.794195011337871,
      "end": 14.477641723356012,
      "velocity": 100,
      "role": "harmony",
      "percussion": null
    },
    {
      "pitch": 69,
      "start": 12.925503854875284,
      "end": 13.252092517006803,
      "velocity": 100,
      "role": "lead",
      "percussion": null
    },
    {
      "pitch": 73,
      "start": 13.252092517006803,
      "end": 13.949039455782312,
      "velocity": 100,
      "role": "lead",
      "percussion": null
    },
    {
      "pitch": 69,
      "start": 13.949039455782312,
      "end": 14.342965986394557,
      "velocity": 100,
      "role": "lead",
      "percussion": null
    },
    {
      "pitch": 67,
      "start": 14.342965986394557,
      "end": 14.470907936507935,
      "velocity": 100,
      "role": "lead",
      "percussion": null
    },
    {
      "pitch": 73,
      "start": 14.470907936507935,
      "end": 14.645986394557822,
      "velocity": 100,
      "role": "lead",
      "percussion": null
    },
    {
      "pitch": 54,
      "start": 14.477641723356012,
      "end": 14.81433106575964,
      "velocity": 100,
      "role": "harmony",
      "percussion": null
    },
    {
      "pitch": 71,
      "start": 14.645986394557822,
      "end": 14.992776417233559,
      "velocity": 100,
      "role": "lead",
      "percussion": null
    },
    {
      "pitch": 59,
      "start": 14.81433106575964,
      "end": 15.824399092970525,
      "velocity": 100,
      "role": "harmony",
      "percussion": null
    },
    {
      "pitch": 67,
      "start": 14.992776417233559,
      "end": 15.423738775510204,
      "velocity": 100,
      "role": "lead",
      "percussion": null
    },
    {
      "pitch": 67,
      "start": 15.423738775510204,
      "end": 15.6089179138322,
      "velocity": 100,
      "role": "lead",
      "percussion": null
    },
    {
      "pitch": 69,
      "start": 15.6089179138322,
      "end": 15.770528798185941,
      "velocity": 100,
      "role": "lead",
      "percussion": null
    },
    {
      "pitch": 69,
      "start": 15.770528798185941,
      "end": 16.26882902494331,
      "velocity": 100,
      "role": "lead",
      "percussion": null
    },
    {
      "pitch": 57,
      "start": 15.824399092970525,
      "end": 16.161088435374154,
      "velocity": 100,
      "role": "harmony",
      "percussion": null
    },
    {
      "pitch": 52,
      "start": 16.161088435374154,
      "end": 17.844535147392296,
      "velocity": 100,
      "role": "harmony",
      "percussion": null
    },
    {
      "pitch": 73,
      "start": 16.26882902494331,
      "end": 16.430439909297053,
      "velocity": 100,
      "role": "lead",
      "percussion": null
    },
    {
      "pitch": 69,
      "start": 16.430439909297053,
      "end": 18.834401814058957,
      "velocity": 100,
      "role": "lead",
      "percussion": null
    },
    {
      "pitch": 50,
      "start": 17.844535147392296,
      "end": 18.85460317460318,
      "velocity": 100,
      "role": "harmony",
      "percussion": null
    },
    {
      "pitch": 73,
      "start": 18.834401814058957,
      "end": 18.999379591836735,
      "velocity": 100,
      "role": "lead",
      "percussion": null
    },
    {
      "pitch": 59,
      "start": 18.85460317460318,
      "end": 19.191292517006808,
      "velocity": 100,
      "role": "harmony",
      "percussion": null
    },
    {
      "pitch": 71,
      "start": 18.999379591836735,
      "end": 19.241795918367348,
      "velocity": 100,
      "role": "lead",
      "percussion": null
    },
    {
      "pitch": 57,
      "start": 19.191292517006808,
      "end": 19.527981859410435,
      "velocity": 100,
      "role": "harmony",
      "percussion": null
    },
    {
      "pitch": 67,
      "start": 19.241795918367348,
      "end": 19.47411156462585,
      "velocity": 100,
      "role": "lead",
      "percussion": null
    },
    {
      "pitch": 69,
      "start": 19.47411156462585,
      "end": 20.194626757369615,
      "velocity": 100,
      "role": "lead",
      "percussion": null
    },
    {
      "pitch": 52,
      "start": 19.527981859410435,
      "end": 21.211428571428577,
      "velocity": 100,
      "role": "harmony",
      "percussion": null
    },
    {
      "pitch": 54,
      "start": 21.211428571428577,
      "end": 22.22149659863946,
      "velocity": 100,
      "role": "harmony",
      "percussion": null
    },
    {
      "pitch": 59,
      "start": 22.22149659863946,
      "end": 22.89487528344672,
      "velocity": 100,
      "role": "harmony",
      "percussion": null
    },
    {
      "pitch": 50,
      "start": 22.89487528344672,
      "end": 23.904943310657604,
      "velocity": 100,
      "role": "harmony",
      "percussion": null
    },
    {
      "pitch": 59,
      "start": 23.904943310657604,
      "end": 24.24163265306123,
      "velocity": 100,
      "role": "harmony",
      "percussion": null
    },
    {
      "pitch": 52,
      "start": 24.24163265306123,
      "end": 25.925079365079373,
      "velocity": 100,
      "role": "harmony",
      "percussion": null
    },
    {
      "pitch": 50,
      "start": 25.925079365079373,
      "end": 26.935147392290258,
      "velocity": 100,
      "role": "harmony",
      "percussion": null
    }
  ]
}