{
  "tempo": {
    "bpm": 112.34714673913044,
    "offset": 0.46439909297052157,
    "beats_per_bar": 4
  },
  "duration": 19.386340136054415,
  "notes": [
    {
      "pitch": 38,
      "start": 0.0,
      "end": 0.34713832199546485,
      "velocity": 100,
      "role": "percussion",
      "percussion": "kick"
    },
    {
      "pitch": 40,
      "start": 0.0,
      "end": 0.6034866213151926,
      "velocity": 100,
      "role": "bass",
      "percussion": null
    },
    {
      "pitch": 71,
      "start": 0.0,
      "end": 0.34713832199546485,
      "velocity": 100,
      "role": "lead",
      "percussion": null
    },
    {
      "pitch": 38,
      "start": 0.34713832199546485,
      "end": 0.6034866213151927,
      "velocity": 100,
      "role": "percussion",
      "percussion": "snare"
    },
    {
      "pitch": 67,
      "start": 0.34713832199546485,
      "end": 0.6034866213151927,
      "velocity": 100,
      "role": "lead",
      "percussion": null
    },
    {
      "pitch": 38,
      "start": 0.6034866213151927,
      "end": 0.7423419501133787,
      "velocity": 100,
      "role": "percussion",
      "percussion": "hat"
    },
    {
      "pitch": 69,
      "start": 0.6034866213151927,
      "end": 1.3137850340136055,
      "velocity": 100,
      "role": "lead",
      "percussion": null
    },
    {
      "pitch": 38,
      "start": 0.7423419501133787,
      "end": 0.8811972789115646,
      "velocity": 100,
      "role": "percussion",
      "percussion": "kick"
    },
    {
      "pitch": 38,
      "start": 0.8811972789115646,
      "end": 1.0574367346938776,
      "velocity": 100,
      "role": "percussion",
      "percussion": "snare"
    },
    {
      "pitch": 38,
      "start": 1.0574367346938776,
      "end": 1.1962920634920635,
      "velocity": 100,
      "role": "percussion",
      "percussion": "hat"
    },
    {
      "pitch": 38,
      "start": 1.1962920634920635,
      "end": 1.5434303854875284,
      "velocity": 100,
      "role": "percussion",
      "percussion": "kick"
    },
    {
      "pitch": 71,
      "start": 1.3137850340136055,
      "end": 1.4526403628117914,
      "velocity": 100,
      "role": "lead",
      "percussion": null
    },
    {
      "pitch": 69,
      "start": 1.4526403628117914,
      "end": 1.9172716553287983,
      "velocity": 100,
      "role": "lead",
      "percussion": null
    },
    {
      "pitch": 38,
      "start": 1.5434303854875284,
      "end": 1.8211410430839003,
      "velocity": 100,
      "role": "percussion",
      "percussion": "snare"
    },
    {
      "pitch": 38,
      "start": 1.8211410430839003,
      "end": 2.0401052154195014,
      "velocity": 100,
      "role": "percussion",
      "percussion": "hat"
    },
    {
      "pitch": 71,
      "start": 1.9172716553287983,
      "end": 2.264409977324263,
      "velocity": 100,
      "role": "lead",
      "percussion": null
    },
    {
      "pitch": 38,
      "start": 2.0401052154195014,
      "end": 2.3658811791383223,
      "velocity": 100,
      "role": "percussion",
      "percussion": "kick"
    },
    {
      "pitch": 40,
      "start": 2.168279365079365,
      "end": 2.8785777777777777,
      "velocity": 100,
      "role": "bass",
      "percussion": null
    },
    {
      "pitch": 55,
      "start": 2.2056634920634917,
      "end": 2.4620117913832194,
      "velocity": 100,
      "role": "harmony",
      "percussion": null
    },
    {
      "pitch": 69,
      "start": 2.264409977324263,
      "end": 2.542120634920635,
      "velocity": 100,
      "role": "lead",
      "percussion": null
    },
    {
      "pitch": 38,
      "start": 2.3658811791383223,
      "end": 2.5421206349206353,
      "velocity": 100,
      "role": "percussion",
      "percussion": "snare"
    },
    {
      "pitch": 54,
      "start": 2.4620117913832194,
      "end": 3.172310204081632,
      "velocity": 100,
      "role": "harmony",
      "percussion": null
    },
    {
      "pitch": 71,
      "start": 2.542120634920635,
      "end": 2.761084807256236,
      "velocity": 100,
      "role": "lead",
      "percussion": null
    },
    {
      "pitch": 38,
      "start": 2.5421206349206353,
      "end": 2.6809759637188213,
      "velocity": 100,
      "role": "percussion",
      "percussion": "hat"
    },
    {
      "pitch": 38,
      "start": 2.6809759637188213,
      "end": 2.937324263038549,
      "velocity": 100,
      "role": "percussion",
      "percussion": "kick"
    },
    {
      "pitch": 74,
      "start": 2.761084807256236,
      "end": 3.086860770975057,
      "velocity": 100,
      "role": "lead",
      "percussion": null
    },
    {
      "pitch": 38,
      "start": 2.937324263038549,
      "end": 3.182991383219955,
      "velocity": 100,
      "role": "percussion",
      "percussion": "snare"
    },
    {
      "pitch": 40,
      "start": 3.0174331065759636,
      "end": 3.4820643990929705,
      "velocity": 100,
      "role": "bass",
      "percussion": null
    },
    {
      "pitch": 71,
      "start": 3.086860770975057,
      "end": 3.26310022675737,
      "velocity": 100,
      "role": "lead",
      "percussion": null
    },
    {
      "pitch": 38,
      "start": 3.182991383219955,
      "end": 3.401955555555556,
      "velocity": 100,
      "role": "percussion",
      "percussion": "hat"
    },
    {
      "pitch": 72,
      "start": 3.26310022675737,
      "end": 3.5087673469387757,
      "velocity": 100,
      "role": "lead",
      "percussion": null
    },
    {
      "pitch": 54,
      "start": 3.311165532879818,
      "end": 3.775796825396825,
      "velocity": 100,
      "role": "harmony",
      "percussion": null
    },
    {
      "pitch": 38,
      "start": 3.401955555555556,
      "end": 3.7384126984126986,
      "velocity": 100,
      "role": "percussion",
      "percussion": "kick"
    },
    {
      "pitch": 69,
      "start": 3.5087673469387757,
      "end": 3.8452244897959185,
      "velocity": 100,
      "role": "lead",
      "percussion": null
    },
    {
      "pitch": 38,
      "start": 3.7384126984126986,
      "end": 3.9573768707482997,
      "velocity": 100,
      "role": "percussion",
      "percussion": "snare"
    },
    {
      "pitch": 40,
      "start": 3.829202721088435,
      "end": 4.106913378684807,
      "velocity": 100,
      "role": "bass",
      "percussion": null
    },
    {
      "pitch": 71,
      "start": 3.8452244897959185,
      "end": 4.064188662131519,
      "velocity": 100,
      "role": "lead",
      "percussion": null
    },
    {
      "pitch": 38,
      "start": 3.9573768707482997,
      "end": 4.117594557823129,
      "velocity": 100,
      "role": "percussion",
      "percussion": "hat"
    },
    {
      "pitch": 73,
      "start": 4.064188662131519,
      "end": 4.224406349206349,
      "velocity": 100,
      "role": "lead",
      "percussion": null
    },
    {
      "pitch": 38,
      "start": 4.117594557823129,
      "end": 4.325877551020408,
      "velocity": 100,
      "role": "percussion",
      "percussion": "kick"
    },
    {
      "pitch": 54,
      "start": 4.1229351473922895,
      "end": 4.400645804988661,
      "velocity": 100,
      "role": "harmony",
      "percussion": null
    },
    {
      "pitch": 66,
      "start": 4.224406349206349,
      "end": 4.432689342403628,
      "velocity": 100,
      "role": "lead",
      "percussion": null
    },
    {
      "pitch": 40,
      "start": 4.325877551020407,
      "end": 4.651653514739228,
      "velocity": 100,
      "role": "bass",
      "percussion": null
    },
    {
      "pitch": 38,
      "start": 4.325877551020408,
      "end": 4.7531247165532875,
      "velocity": 100,
      "role": "percussion",
      "percussion": "snare"
    },
    {
      "pitch": 72,
      "start": 4.432689342403628,
      "end": 4.859936507936508,
      "velocity": 100,
      "role": "lead",
      "percussion": null
    },
    {
      "pitch": 52,
      "start": 4.619609977324262,
      "end": 4.9453859410430825,
      "velocity": 100,
      "role": "harmony",
      "percussion": null
    },
    {
      "pitch": 38,
      "start": 4.7531247165532875,
      "end": 5.057538321995464,
      "velocity": 100,
      "role": "percussion",
      "percussion": "hat"
    },
    {
      "pitch": 40,
      "start": 4.827892970521541,
      "end": 5.073560090702947,
      "velocity": 100,
      "role": "bass",
      "percussion": null
    },
    {
      "pitch": 74,
      "start": 4.859936507936508,
      "end": 5.164350113378685,
      "velocity": 100,
      "role": "lead",
      "percussion": null
    },
    {
      "pitch": 55,
      "start": 4.9453859410430825,
      "end": 5.1216253968253955,
      "velocity": 100,
      "role": "harmony",
      "percussion": null
    },
    {
      "pitch": 38,
      "start": 5.057538321995464,
      "end": 5.361951927437641,
      "velocity": 100,
      "role": "percussion",
      "percussion": "kick"
    },
    {
      "pitch": 64,
      "start": 5.164350113378685,
      "end": 5.388654875283446,
      "velocity": 100,
      "role": "lead",
      "percussion": null
    },
    {
      "pitch": 38,
      "start": 5.361951927437641,
      "end": 5.586256689342402,
      "velocity": 100,
      "role": "percussion",
      "percussion": "snare"
    },
    {
      "pitch": 54,
      "start": 5.367292517006802,
      "end": 5.703749659863945,
      "velocity": 100,
      "role": "harmony",
      "percussion": null
    },
    {
      "pitch": 72,
      "start": 5.388654875283446,
      "end": 5.527510204081632,
      "velocity": 100,
      "role": "lead",
      "percussion": null
    },
    {
      "pitch": 71,
      "start": 5.527510204081632,
      "end": 6.072250340136054,
      "velocity": 100,
      "role": "lead",
      "percussion": null
    },
    {
      "pitch": 38,
      "start": 5.586256689342402,
      "end": 5.725112018140588,
      "velocity": 100,
      "role": "percussion",
      "percussion": "hat"
    },
    {
      "pitch": 38,
      "start": 5.725112018140588,
      "end": 6.26985215419501,
      "velocity": 100,
      "role": "percussion",
      "percussion": "kick"
    },
    {
      "pitch": 40,
      "start": 5.789199092970521,
      "end": 5.9974820861678,
      "velocity": 100,
      "role": "bass",
      "percussion": null
    },
    {
      "pitch": 65,
      "start": 6.072250340136054,
      "end": 6.221786848072562,
      "velocity": 100,
      "role": "lead",
      "percussion": null
    },
    {
      "pitch": 52,
      "start": 6.082931519274376,
      "end": 6.2912145124716545,
      "velocity": 100,
      "role": "harmony",
      "percussion": null
    },
    {
      "pitch": 69,
      "start": 6.221786848072562,
      "end": 6.398026303854875,
      "velocity": 100,
      "role": "lead",
      "percussion": null
    },
    {
      "pitch": 38,
      "start": 6.26985215419501,
      "end": 6.419388662131518,
      "velocity": 100,
      "role": "percussion",
      "percussion": "snare"
    },
    {
      "pitch": 71,
      "start": 6.398026303854875,
      "end": 6.74516462585034,
      "velocity": 100,
      "role": "lead",
      "percussion": null
    },
    {
      "pitch": 38,
      "start": 6.419388662131518,
      "end": 6.595628117913831,
      "velocity": 100,
      "role": "percussion",
      "percussion": "hat"
    },
    {
      "pitch": 40,
      "start": 6.424729251700679,
      "end": 6.729142857142856,
      "velocity": 100,
      "role": "bass",
      "percussion": null
    },
    {
      "pitch": 38,
      "start": 6.595628117913831,
      "end": 6.942766439909296,
      "velocity": 100,
      "role": "percussion",
      "percussion": "kick"
    },
    {
      "pitch": 54,
      "start": 6.718461678004534,
      "end": 7.0228752834467105,
      "velocity": 100,
      "role": "harmony",
      "percussion": null
    },
    {
      "pitch": 71,
      "start": 6.74516462585034,
      "end": 6.974809977324263,
      "velocity": 100,
      "role": "lead",
      "percussion": null
    },
    {
      "pitch": 38,
      "start": 6.942766439909296,
      "end": 7.172411791383219,
      "velocity": 100,
      "role": "percussion",
      "percussion": "snare"
    },
    {
      "pitch": 71,
      "start": 6.974809977324263,
      "end": 7.124346485260771,
      "velocity": 100,
      "role": "lead",
      "percussion": null
    },
    {
      "pitch": 40,
      "start": 7.092302947845803,
      "end": 7.637043083900225,
      "velocity": 100,
      "role": "bass",
      "percussion": null
    },
    {
      "pitch": 71,
      "start": 7.124346485260771,
      "end": 7.5996589569161,
      "velocity": 100,
      "role": "lead",
      "percussion": null
    },
    {
      "pitch": 38,
      "start": 7.172411791383219,
      "end": 7.321948299319727,
      "velocity": 100,
      "role": "percussion",
      "percussion": "hat"
    },
    {
      "pitch": 38,
      "start": 7.321948299319727,
      "end": 7.797260770975056,
      "velocity": 100,
      "role": "percussion",
      "percussion": "kick"
    },
    {
      "pitch": 55,
      "start": 7.386035374149658,
      "end": 7.93077551020408,
      "velocity": 100,
      "role": "harmony",
      "percussion": null
    },
    {
      "pitch": 67,
      "start": 7.5996589569161,
      "end": 7.856007256235828,
      "velocity": 100,
      "role": "lead",
      "percussion": null
    },
    {
      "pitch": 40,
      "start": 7.786579591836733,
      "end": 7.962819047619046,
      "velocity": 100,
      "role": "bass",
      "percussion": null
    },
    {
      "pitch": 38,
      "start": 7.797260770975056,
      "end": 8.053609070294783,
      "velocity": 100,
      "role": "percussion",
      "percussion": "snare"
    },
    {
      "pitch": 71,
      "start": 7.856007256235828,
      "end": 8.438131519274377,
      "velocity": 100,
      "role": "lead",
      "percussion": null
    },
    {
      "pitch": 38,
      "start": 8.053609070294783,
      "end": 8.272573242630385,
      "velocity": 100,
      "role": "percussion",
      "percussion": "hat"
    },
    {
      "pitch": 54,
      "start": 8.080312018140587,
      "end": 8.2565514739229,
      "velocity": 100,
      "role": "harmony",
      "percussion": null
    },
    {
      "pitch": 38,
      "start": 8.272573242630385,
      "end": 8.854697505668934,
      "velocity": 100,
      "role": "percussion",
      "percussion": "kick"
    },
    {
      "pitch": 71,
      "start": 8.438131519274377,
      "end": 8.902762811791384,
      "velocity": 100,
      "role": "lead",
      "percussion": null
    },
    {
      "pitch": 38,
      "start": 8.854697505668934,
      "end": 9.319328798185941,
      "velocity": 100,
      "role": "percussion",
      "percussion": "snare"
    },
    {
      "pitch": 69,
      "start": 8.902762811791384,
      "end": 9.90145306122449,
      "velocity": 100,
      "role": "lead",
      "percussion": null
    },
    {
      "pitch": 40,
      "start": 9.16445170068027,
      "end": 9.420799999999998,
      "velocity": 100,
      "role": "bass",
      "percussion": null
    },
    {
      "pitch": 38,
      "start": 9.319328798185941,
      "end": 9.655785941043083,
      "velocity": 100,
      "role": "percussion",
      "percussion": "hat"
    },
    {
      "pitch": 38,
      "start": 9.655785941043083,
      "end": 10.65447619047619,
      "velocity": 100,
      "role": "percussion",
      "percussion": "kick"
    },
    {
      "pitch": 55,
      "start": 9.714532426303851,
      "end": 10.2966566893424,
      "velocity": 100,
      "role": "harmony",
      "percussion": null
    },
    {
      "pitch": 72,
      "start": 9.90145306122449,
      "end": 10.088373696145124,
      "velocity": 100,
      "role": "lead",
      "percussion": null
    },
    {
      "pitch": 72,
      "start": 10.088373696145124,
      "end": 10.237910204081633,
      "velocity": 100,
      "role": "lead",
      "percussion": null
    },
    {
      "pitch": 68,
      "start": 10.237910204081633,
      "end": 10.414149659863945,
      "velocity": 100,
      "role": "lead",
      "percussion": null
    },
    {
      "pitch": 69,
      "start": 10.414149659863945,
      "end": 11.02831746031746,
      "velocity": 100,
      "role": "lead",
      "percussion": null
    },
    {
      "pitch": 40,
      "start": 10.467555555555554,
      "end": 11.466245804988661,
      "velocity": 100,
      "role": "bass",
      "percussion": null
    },
    {
      "pitch": 38,
      "start": 10.65447619047619,
      "end": 10.841396825396824,
      "velocity": 100,
      "role": "percussion",
      "percussion": "snare"
    },
    {
      "pitch": 54,
      "start": 10.761287981859407,
      "end": 11.759978231292514,
      "velocity": 100,
      "role": "harmony",
      "percussion": null
    },
    {
      "pitch": 38,
      "start": 10.841396825396824,
      "end": 10.990933333333333,
      "velocity": 100,
      "role": "percussion",
      "percussion": "hat"
    },
    {
      "pitch": 38,
      "start": 10.990933333333333,
      "end": 11.605101133786848,
      "velocity": 100,
      "role": "percussion",
      "percussion": "kick"
    },
    {
      "pitch": 64,
      "start": 11.02831746031746,
      "end": 11.167172789115646,
      "velocity": 100,
      "role": "lead",
      "percussion": null
    },
    {
      "pitch": 69,
      "start": 11.167172789115646,
      "end": 11.412839909297052,
      "velocity": 100,
      "role": "lead",
      "percussion": null
    },
    {
      "pitch": 71,
      "start": 11.412839909297052,
      "end": 11.679869387755101,
      "velocity": 100,
      "role": "lead",
      "percussion": null
    },
    {
      "pitch": 38,
      "start": 11.605101133786848,
      "end": 11.743956462585034,
      "velocity": 100,
      "role": "percussion",
      "percussion": "snare"
    },
    {
      "pitch": 71,
      "start": 11.679869387755101,
      "end": 12.085754195011337,
      "velocity": 100,
      "role": "lead",
      "percussion": null
    },
    {
      "pitch": 38,
      "start": 11.743956462585034,
      "end": 11.920195918367346,
      "velocity": 100,
      "role": "percussion",
      "percussion": "hat"
    },
    {
      "pitch": 38,
      "start": 11.920195918367346,
      "end": 12.582429024943309,
      "velocity": 100,
      "role": "percussion",
      "percussion": "kick"
    },
    {
      "pitch": 40,
      "start": 11.978942403628116,
      "end": 12.593110204081631,
      "velocity": 100,
      "role": "bass",
      "percussion": null
    },
    {
      "pitch": 72,
      "start": 12.085754195011337,
      "end": 13.292727437641721,
      "velocity": 100,
      "role": "lead",
      "percussion": null
    },
    {
      "pitch": 54,
      "start": 12.272674829931969,
      "end": 12.886842630385484,
      "velocity": 100,
      "role": "harmony",
      "percussion": null
    },
    {
      "pitch": 38,
      "start": 12.582429024943309,
      "end": 12.988313832199545,
      "velocity": 100,
      "role": "percussion",
      "percussion": "snare"
    },
    {
      "pitch": 40,
      "start": 12.731965532879817,
      "end": 12.977632653061223,
      "velocity": 100,
      "role": "bass",
      "percussion": null
    },
    {
      "pitch": 38,
      "start": 12.988313832199545,
      "end": 13.39419863945578,
      "velocity": 100,
      "role": "percussion",
      "percussion": "hat"
    },
    {
      "pitch": 54,
      "start": 13.02569795918367,
      "end": 13.271365079365076,
      "velocity": 100,
      "role": "harmony",
      "percussion": null
    },
    {
      "pitch": 64,
      "start": 13.292727437641721,
      "end": 13.698612244897957,
      "velocity": 100,
      "role": "lead",
      "percussion": null
    },
    {
      "pitch": 38,
      "start": 13.39419863945578,
      "end": 14.083134693877549,
      "velocity": 100,
      "role": "percussion",
      "percussion": "kick"
    },
    {
      "pitch": 71,
      "start": 13.698612244897957,
      "end": 14.387548299319725,
      "velocity": 100,
      "role": "lead",
      "percussion": null
    },
    {
      "pitch": 38,
      "start": 14.083134693877549,
      "end": 14.221990022675735,
      "velocity": 100,
      "role": "percussion",
      "percussion": "snare"
    },
    {
      "pitch": 38,
      "start": 14.221990022675735,
      "end": 14.595831292517005,
      "velocity": 100,
      "role": "percussion",
      "percussion": "hat"
    },
    {
      "pitch": 64,
      "start": 14.387548299319725,
      "end": 14.526403628117912,
      "velocity": 100,
      "role": "lead",
      "percussion": null
    },
    {
      "pitch": 71,
      "start": 14.526403628117912,
      "end": 14.900244897959182,
      "velocity": 100,
      "role": "lead",
      "percussion": null
    },
    {
      "pitch": 38,
      "start": 14.595831292517005,
      "end": 15.236702040816324,
      "velocity": 100,
      "role": "percussion",
      "percussion": "kick"
    },
    {
      "pitch": 71,
      "start": 14.900244897959182,
      "end": 15.5411156462585,
      "velocity": 100,
      "role": "lead",
      "percussion": null
    },
    {
      "pitch": 38,
      "start": 15.236702040816324,
      "end": 15.412941496598636,
      "velocity": 100,
      "role": "percussion",
      "percussion": "snare"
    },
    {
      "pitch": 40,
      "start": 15.263404988662128,
      "end": 15.952341043083896,
      "velocity": 100,
      "role": "bass",
      "percussion": null
    },
    {
      "pitch": 38,
      "start": 15.412941496598636,
      "end": 15.786782766439906,
      "velocity": 100,
      "role": "percussion",
      "percussion": "hat"
    },
    {
      "pitch": 55,
      "start": 15.55713741496598,
      "end": 16.24607346938775,
      "velocity": 100,
      "role": "harmony",
      "percussion": null
    },
    {
      "pitch": 71,
      "start": 15.717355102040813,
      "end": 17.52781496598639,
      "velocity": 100,
      "role": "lead",
      "percussion": null
    },
    {
      "pitch": 38,
      "start": 15.786782766439906,
      "end": 17.597242630385484,
      "velocity": 100,
      "role": "percussion",
      "percussion": "kick"
    },
    {
      "pitch": 40,
      "start": 17.10590839002267,
      "end": 17.28214784580498,
      "velocity": 100,
      "role": "bass",
      "percussion": null
    },
    {
      "pitch": 40,
      "start": 17.28214784580498,
      "end": 19.09260770975056,
      "velocity": 100,
      "role": "bass",
      "percussion": null
    },
    {
      "pitch": 67,
      "start": 17.52781496598639,
      "end": 17.714735600907026,
      "velocity": 100,
      "role": "lead",
      "percussion": null
    },
    {
      "pitch": 55,
      "start": 17.575880272108837,
      "end": 19.386340136054415,
      "velocity": 100,
      "role": "harmony",
      "percussion": null
    },
    {
      "pitch": 38,
      "start": 17.597242630385484,
      "end": 17.78416326530612,
      "velocity": 100,
      "role": "percussion",
      "percussion": "snare"
    },
    {
      "pitch": 72,
      "start": 17.714735600907026,
      "end": 18.37696870748299,
      "velocity": 100,
      "role": "lead",
      "percussion": null
    },
    {
      "pitch": 38,
      "start": 17.78416326530612,
      "end": 18.446396371882084,
      "velocity": 100,
      "role": "percussion",
      "percussion": "hat"
    }
  ]
}