{
  "tempo": {
    "bpm": 100,
    "offset": 0.0,
    "beats_per_bar": 4
  },
  "duration": 20.44266666666667,
  "notes": [
    {
      "pitch": 64,
      "start": 0.0,
      "end": 0.588,
      "velocity": 102,
      "role": "lead",
      "percussion": null
    },
    {
      "pitch": 64,
      "start": 0.6,
      "end": 0.8939999999999999,
      "velocity": 102,
      "role": "lead",
      "percussion": null
    },
    {
      "pitch": 67,
      "start": 0.8999999999999999,
      "end": 1.194,
      "velocity": 102,
      "role": "lead",
      "percussion": null
    },
    {
      "pitch": 69,
      "start": 1.2,
      "end": 1.494,
      "velocity": 102,
      "role": "lead",
      "percussion": null
    },
    {
      "pitch": 72,
      "start": 1.5,
      "end": 1.794,
      "velocity": 102,
      "role": "lead",
      "percussion": null
    },
    {
      "pitch": 72,
      "start": 1.8,
      "end": 2.388,
      "velocity": 102,
      "role": "lead",
      "percussion": null
    },
    {
      "pitch": 69,
      "start": 2.4,
      "end": 2.988,
      "velocity": 102,
      "role": "lead",
      "percussion": null
    },
    {
      "pitch": 67,
      "start": 3.0,
      "end": 3.588,
      "velocity": 102,
      "role": "lead",
      "percussion": null
    },
    {
      "pitch": 67,
      "start": 3.6,
      "end": 3.894,
      "velocity": 102,
      "role": "lead",
      "percussion": null
    },
    {
      "pitch": 69,
      "start": 3.9,
      "end": 4.194,
      "velocity": 102,
      "role": "lead",
      "percussion": null
    },
    {
      "pitch": 67,
      "start": 4.2,
      "end": 4.788,
      "velocity": 102,
      "role": "lead",
      "percussion": null
    },
    {
      "pitch": 64,
      "start": 5.3999999999999995,
      "end": 5.9879999999999995,
      "velocity": 102,
      "role": "lead",
      "percussion": null
    },
    {
      "pitch": 64,
      "start": 5.999999999999999,
      "end": 6.293999999999999,
      "velocity": 102,
      "role": "lead",
      "percussion": null
    },
    {
      "pitch": 67,
      "start": 6.299999999999999,
      "end": 6.5939999999999985,
      "velocity": 102,
      "role": "lead",
      "percussion": null
    },
    {
      "pitch": 69,
      "start": 6.599999999999999,
      "end": 6.893999999999998,
      "velocity": 102,
      "role": "lead",
      "percussion": null
    },
    {
      "pitch": 72,
      "start": 6.899999999999999,
      "end": 7.193999999999998,
      "velocity": 102,
      "role": "lead",
      "percussion": null
    },
    {
      "pitch": 72,
      "start": 7.199999999999998,
      "end": 7.7879999999999985,
      "velocity": 102,
      "role": "lead",
      "percussion": null
    },
    {
      "pitch": 69,
      "start": 7.799999999999998,
      "end": 8.387999999999998,
      "velocity": 102,
      "role": "lead",
      "percussion": null
    },
    {
      "pitch": 67,
      "start": 8.399999999999999,
      "end": 8.987999999999998,
      "velocity": 102,
      "role": "lead",
      "percussion": null
    },
    {
      "pitch": 67,
      "start": 8.999999999999998,
      "end": 9.293999999999999,
      "velocity": 102,
      "role": "lead",
      "percussion": null
    },
    {
      "pitch": 69,
      "start": 9.299999999999999,
      "end": 9.594,
      "velocity": 102,
      "role": "lead",
      "percussion": null
    },
    {
      "pitch": 67,
      "start": 9.6,
      "end": 10.187999999999999,
      "velocity": 102,
      "role": "lead",
      "percussion": null
    },
    {
      "pitch": 67,
      "start": 10.799999999999999,
      "end": 11.387999999999998,
      "velocity": 102,
      "role": "lead",
      "percussion": null
    },
    {
      "pitch": 67,
      "start": 11.399999999999999,
      "end": 11.987999999999998,
      "velocity": 102,
      "role": "lead",
      "percussion": null
    },
    {
      "pitch": 67,
      "start": 11.999999999999998,
      "end": 12.587999999999997,
      "velocity": 102,
      "role": "lead",
      "percussion": null
    },
    {
      "pitch": 64,
      "start": 12.599999999999998,
      "end": 12.893999999999998,
      "velocity": 102,
      "role": "lead",
      "percussion": null
    },
    {
      "pitch": 67,
      "start": 12.899999999999999,
      "end": 13.193999999999999,
      "velocity": 102,
      "role": "lead",
      "percussion": null
    },
    {
      "pitch": 69,
      "start": 13.2,
      "end": 13.787999999999998,
      "velocity": 102,
      "role": "lead",
      "percussion": null
    },
    {
      "pitch": 69,
      "start": 13.799999999999999,
      "end": 14.387999999999998,
      "velocity": 102,
      "role": "lead",
      "percussion": null
    },
    {
      "pitch": 67,
      "start": 14.399999999999999,
      "end": 15.575999999999999,
      "velocity": 102,
      "role": "lead",
      "percussion": null
    },
    {
      "pitch": 64,
      "start": 15.599999999999998,
      "end": 16.188,
      "velocity": 102,
      "role": "lead",
      "percussion": null
    },
    {
      "pitch": 62,
      "start": 16.2,
      "end": 16.494,
      "velocity": 102,
      "role": "lead",
      "percussion": null
    },
    {
      "pitch": 64,
      "start": 16.5,
      "end": 16.794,
      "velocity": 102,
      "role": "lead",
      "percussion": null
    },
    {
      "pitch": 67,
      "start": 16.8,
      "end": 17.388,
      "velocity": 102,
      "role": "lead",
      "percussion": null
    },
    {
      "pitch": 64,
      "start": 17.400000000000002,
      "end": 17.694000000000003,
      "velocity": 102,
      "role": "lead",
      "percussion": null
    },
    {
      "pitch": 62,
      "start": 17.700000000000003,
      "end": 17.994000000000003,
      "velocity": 102,
      "role": "lead",
      "percussion": null
    },
    {
      "pitch": 60,
      "start": 18.000000000000004,
      "end": 18.588000000000005,
      "velocity": 102,
      "role": "lead",
      "percussion": null
    },
    {
      "pitch": 60,
      "start": 18.600000000000005,
      "end": 18.894000000000005,
      "velocity": 102,
      "role": "lead",
      "percussion": null
    },
    {
      "pitch": 62,
      "start": 18.900000000000006,
      "end": 19.194000000000006,
      "velocity": 102,
      "role": "lead",
      "percussion": null
    },
    {
      "pitch": 60,
      "start": 19.200000000000006,
      "end": 20.376000000000005,
      "velocity": 102,
      "role": "lead",
      "percussion": null
    },
    {
      "pitch": 52,
      "start": 0.06666666666666667,
      "end": 0.6546666666666666,
      "velocity": 51,
      "role": "harmony",
      "percussion": null
    },
    {
      "pitch": 52,
      "start": 0.6666666666666666,
      "end": 0.9606666666666666,
      "velocity": 51,
      "role": "harmony",
      "percussion": null
    },
    {
      "pitch": 55,
      "start": 0.9666666666666666,
      "end": 1.2606666666666666,
      "velocity": 51,
      "role": "harmony",
      "percussion": null
    },
    {
      "pitch": 57,
      "start": 1.2666666666666666,
      "end": 1.5606666666666666,
      "velocity": 51,
      "role": "harmony",
      "percussion": null
    },
    {
      "pitch": 60,
      "start": 1.5666666666666667,
      "end": 1.8606666666666667,
      "velocity": 51,
      "role": "harmony",
      "percussion": null
    },
    {
      "pitch": 60,
      "start": 1.8666666666666667,
      "end": 2.4546666666666668,
      "velocity": 51,
      "role": "harmony",
      "percussion": null
    },
    {
      "pitch": 57,
      "start": 2.466666666666667,
      "end": 3.054666666666667,
      "velocity": 51,
      "role": "harmony",
      "percussion": null
    },
    {
      "pitch": 55,
      "start": 3.066666666666667,
      "end": 3.654666666666667,
      "velocity": 51,
      "role": "harmony",
      "percussion": null
    },
    {
      "pitch": 55,
      "start": 3.666666666666667,
      "end": 3.960666666666667,
      "velocity": 51,
      "role": "harmony",
      "percussion": null
    },
    {
      "pitch": 57,
      "start": 3.966666666666667,
      "end": 4.260666666666666,
      "velocity": 51,
      "role": "harmony",
      "percussion": null
    },
    {
      "pitch": 55,
      "start": 4.266666666666667,
      "end": 4.854666666666667,
      "velocity": 51,
      "role": "harmony",
      "percussion": null
    },
    {
      "pitch": 52,
      "start": 5.466666666666666,
      "end": 6.054666666666666,
      "velocity": 51,
      "role": "harmony",
      "percussion": null
    },
    {
      "pitch": 52,
      "start": 6.0666666666666655,
      "end": 6.360666666666665,
      "velocity": 51,
      "role": "harmony",
      "percussion": null
    },
    {
      "pitch": 55,
      "start": 6.366666666666665,
      "end": 6.660666666666665,
      "velocity": 51,
      "role": "harmony",
      "percussion": null
    },
    {
      "pitch": 57,
      "start": 6.666666666666665,
      "end": 6.960666666666665,
      "velocity": 51,
      "role": "harmony",
      "percussion": null
    },
    {
      "pitch": 60,
      "start": 6.966666666666665,
      "end": 7.260666666666665,
      "velocity": 51,
      "role": "harmony",
      "percussion": null
    },
    {
      "pitch": 60,
      "start": 7.266666666666665,
      "end": 7.854666666666665,
      "velocity": 51,
      "role": "harmony",
      "percussion": null
    },
    {
      "pitch": 57,
      "start": 7.8666666666666645,
      "end": 8.454666666666665,
      "velocity": 51,
      "role": "harmony",
      "percussion": null
    },
    {
      "pitch": 55,
      "start": 8.466666666666665,
      "end": 9.054666666666664,
      "velocity": 51,
      "role": "harmony",
      "percussion": null
    },
    {
      "pitch": 55,
      "start": 9.066666666666665,
      "end": 9.360666666666665,
      "velocity": 51,
      "role": "harmony",
      "percussion": null
    },
    {
      "pitch": 57,
      "start": 9.366666666666665,
      "end": 9.660666666666666,
      "velocity": 51,
      "role": "harmony",
      "percussion": null
    },
    {
      "pitch": 55,
      "start": 9.666666666666666,
      "end": 10.254666666666665,
      "velocity": 51,
      "role": "harmony",
      "percussion": null
    },
    {
      "pitch": 55,
      "start": 10.866666666666665,
      "end": 11.454666666666665,
      "velocity": 51,
      "role": "harmony",
      "percussion": null
    },
    {
      "pitch": 55,
      "start": 11.466666666666665,
      "end": 12.054666666666664,
      "velocity": 51,
      "role": "harmony",
      "percussion": null
    },
    {
      "pitch": 55,
      "start": 12.066666666666665,
      "end": 12.654666666666664,
      "velocity": 51,
      "role": "harmony",
      "percussion": null
    },
    {
      "pitch": 52,
      "start": 12.666666666666664,
      "end": 12.960666666666665,
      "velocity": 51,
      "role": "harmony",
      "percussion": null
    },
    {
      "pitch": 55,
      "start": 12.966666666666665,
      "end": 13.260666666666665,
      "velocity": 51,
      "role": "harmony",
      "percussion": null
    },
    {
      "pitch": 57,
      "start": 13.266666666666666,
      "end": 13.854666666666665,
      "velocity": 51,
      "role": "harmony",
      "percussion": null
    },
    {
      "pitch": 57,
      "start": 13.866666666666665,
      "end": 14.454666666666665,
      "velocity": 51,
      "role": "harmony",
      "percussion": null
    },
    {
      "pitch": 55,
      "start": 14.466666666666665,
      "end": 15.642666666666665,
      "velocity": 51,
      "role": "harmony",
      "percussion": null
    },
    {
      "pitch": 52,
      "start": 15.666666666666664,
      "end": 16.254666666666665,
      "velocity": 51,
      "role": "harmony",
      "percussion": null
    },
    {
      "pitch": 50,
      "start": 16.266666666666666,
      "end": 16.560666666666666,
      "velocity": 51,
      "role": "harmony",
      "percussion": null
    },
    {
      "pitch": 52,
      "start": 16.566666666666666,
      "end": 16.860666666666667,
      "velocity": 51,
      "role": "harmony",
      "percussion": null
    },
    {
      "pitch": 55,
      "start": 16.866666666666667,
      "end": 17.454666666666668,
      "velocity": 51,
      "role": "harmony",
      "percussion": null
    },
    {
      "pitch": 52,
      "start": 17.46666666666667,
      "end": 17.76066666666667,
      "velocity": 51,
      "role": "harmony",
      "percussion": null
    },
    {
      "pitch": 50,
      "start": 17.76666666666667,
      "end": 18.06066666666667,
      "velocity": 51,
      "role": "harmony",
      "percussion": null
    },
    {
      "pitch": 48,
      "start": 18.06666666666667,
      "end": 18.65466666666667,
      "velocity": 51,
      "role": "harmony",
      "percussion": null
    },
    {
      "pitch": 48,
      "start": 18.66666666666667,
      "end": 18.960666666666672,
      "velocity": 51,
      "role": "harmony",
      "percussion": null
    },
    {
      "pitch": 50,
      "start": 18.966666666666672,
      "end": 19.260666666666673,
      "velocity": 51,
      "role": "harmony",
      "percussion": null
    },
    {
      "pitch": 48,
      "start": 19.266666666666673,
      "end": 20.44266666666667,
      "velocity": 51,
      "role": "harmony",
      "percussion": null
    },
    {
      "pitch": 36,
      "start": 0.0,
      "end": 2.28,
      "velocity": 64,
      "role": "bass",
      "percussion": null
    },
    {
      "pitch": 43,
      "start": 2.4,
      "end": 4.68,
      "velocity": 64,
      "role": "bass",
      "percussion": null
    },
    {
      "pitch": 36,
      "start": 4.8,
      "end": 7.08,
      "velocity": 64,
      "role": "bass",
      "percussion": null
    },
    {
      "pitch": 43,
      "start": 7.199999999999999,
      "end": 9.479999999999999,
      "velocity": 64,
      "role": "bass",
      "percussion": null
    },
    {
      "pitch": 36,
      "start": 9.6,
      "end": 11.879999999999999,
      "velocity": 64,
      "role": "bass",
      "percussion": null
    },
    {
      "pitch": 43,
      "start": 12.0,
      "end": 14.28,
      "velocity": 64,
      "role": "bass",
      "percussion": null
    },
    {
      "pitch": 36,
      "start": 14.4,
      "end": 16.68,
      "velocity": 64,
      "role": "bass",
      "percussion": null
    },
    {
      "pitch": 43,
      "start": 16.8,
      "end": 19.080000000000002,
      "velocity": 64,
      "role": "bass",
      "percussion": null
    },
    {
      "pitch": 36,
      "start": 19.2,
      "end": 20.400000000000006,
      "velocity": 64,
      "role": "bass",
      "percussion": null
    },
    {
      "pitch": 60,
      "start": 0.0,
      "end": 0.1,
      "velocity": 96,
      "role": "percussion",
      "percussion": "kick"
    },
    {
      "pitch": 60,
      "start": 0.0,
      "end": 0.05,
      "velocity": 50,
      "role": "percussion",
      "percussion": "hat"
    },
    {
      "pitch": 60,
      "start": 0.6,
      "end": 0.65,
      "velocity": 50,
      "role": "percussion",
      "percussion": "hat"
    },
    {
      "pitch": 60,
      "start": 1.2,
      "end": 1.3,
      "velocity": 84,
      "role": "percussion",
      "percussion": "snare"
    },
    {
      "pitch": 60,
      "start": 1.2,
      "end": 1.25,
      "velocity": 50,
      "role": "percussion",
      "percussion": "hat"
    },
    {
      "pitch": 60,
      "start": 1.7999999999999998,
      "end": 1.8499999999999999,
      "velocity": 50,
      "role": "percussion",
      "percussion": "hat"
    },
    {
      "pitch": 60,
      "start": 2.4,
      "end": 2.5,
      "velocity": 96,
      "role": "percussion",
      "percussion": "kick"
    },
    {
      "pitch": 60,
      "start": 2.4,
      "end": 2.4499999999999997,
      "velocity": 50,
      "role": "percussion",
      "percussion": "hat"
    },
    {
      "pitch": 60,
      "start": 3.0,
      "end": 3.05,
      "velocity": 50,
      "role": "percussion",
      "percussion": "hat"
    },
    {
      "pitch": 60,
      "start": 3.6,
      "end": 3.7,
      "velocity": 84,
      "role": "percussion",
      "percussion": "snare"
    },
    {
      "pitch": 60,
      "start": 3.6,
      "end": 3.65,
      "velocity": 50,
      "role": "percussion",
      "percussion": "hat"
    },
    {
      "pitch": 60,
      "start": 4.2,
      "end": 4.25,
      "velocity": 50,
      "role": "percussion",
      "percussion": "hat"
    },
    {
      "pitch": 60,
      "start": 4.8,
      "end": 4.8999999999999995,
      "velocity": 96,
      "role": "percussion",
      "percussion": "kick"
    },
    {
      "pitch": 60,
      "start": 4.8,
      "end": 4.85,
      "velocity": 50,
      "role": "percussion",
      "percussion": "hat"
    },
    {
      "pitch": 60,
      "start": 5.3999999999999995,
      "end": 5.449999999999999,
      "velocity": 50,
      "role": "percussion",
      "percussion": "hat"
    },
    {
      "pitch": 60,
      "start": 5.999999999999999,
      "end": 6.099999999999999,
      "velocity": 84,
      "role": "percussion",
      "percussion": "snare"
    },
    {
      "pitch": 60,
      "start": 5.999999999999999,
      "end": 6.049999999999999,
      "velocity": 50,
      "role": "percussion",
      "percussion": "hat"
    },
    {
      "pitch": 60,
      "start": 6.599999999999999,
      "end": 6.649999999999999,
      "velocity": 50,
      "role": "percussion",
      "percussion": "hat"
    },
    {
      "pitch": 60,
      "start": 7.199999999999998,
      "end": 7.299999999999998,
      "velocity": 96,
      "role": "percussion",
      "percussion": "kick"
    },
    {
      "pitch": 60,
      "start": 7.199999999999998,
      "end": 7.249999999999998,
      "velocity": 50,
      "role": "percussion",
      "percussion": "hat"
    },
    {
      "pitch": 60,
      "start": 7.799999999999998,
      "end": 7.849999999999998,
      "velocity": 50,
      "role": "percussion",
      "percussion": "hat"
    },
    {
      "pitch": 60,
      "start": 8.399999999999999,
      "end": 8.499999999999998,
      "velocity": 84,
      "role": "percussion",
      "percussion": "snare"
    },
    {
      "pitch": 60,
      "start": 8.399999999999999,
      "end": 8.45,
      "velocity": 50,
      "role": "percussion",
      "percussion": "hat"
    },
    {
      "pitch": 60,
      "start": 8.999999999999998,
      "end": 9.049999999999999,
      "velocity": 50,
      "role": "percussion",
      "percussion": "hat"
    },
    {
      "pitch": 60,
      "start": 9.599999999999998,
      "end": 9.699999999999998,
      "velocity": 96,
      "role": "percussion",
      "percussion": "kick"
    },
    {
      "pitch": 60,
      "start": 9.599999999999998,
      "end": 9.649999999999999,
      "velocity": 50,
      "role": "percussion",
      "percussion": "hat"
    },
    {
      "pitch": 60,
      "start": 10.199999999999998,
      "end": 10.249999999999998,
      "velocity": 50,
      "role": "percussion",
      "percussion": "hat"
    },
    {
      "pitch": 60,
      "start": 10.799999999999997,
      "end": 10.899999999999997,
      "velocity": 84,
      "role": "percussion",
      "percussion": "snare"
    },
    {
      "pitch": 60,
      "start": 10.799999999999997,
      "end": 10.849999999999998,
      "velocity": 50,
      "role": "percussion",
      "percussion": "hat"
    },
    {
      "pitch": 60,
      "start": 11.399999999999997,
      "end": 11.449999999999998,
      "velocity": 50,
      "role": "percussion",
      "percussion": "hat"
    },
    {
      "pitch": 60,
      "start": 11.999999999999996,
      "end": 12.099999999999996,
      "velocity": 96,
      "role": "percussion",
      "percussion": "kick"
    },
    {
      "pitch": 60,
      "start": 11.999999999999996,
      "end": 12.049999999999997,
      "velocity": 50,
      "role": "percussion",
      "percussion": "hat"
    },
    {
      "pitch": 60,
      "start": 12.599999999999996,
      "end": 12.649999999999997,
      "velocity": 50,
      "role": "percussion",
      "percussion": "hat"
    },
    {
      "pitch": 60,
      "start": 13.199999999999996,
      "end": 13.299999999999995,
      "velocity": 84,
      "role": "percussion",
      "percussion": "snare"
    },
    {
      "pitch": 60,
      "start": 13.199999999999996,
      "end": 13.249999999999996,
      "velocity": 50,
      "role": "percussion",
      "percussion": "hat"
    },
    {
      "pitch": 60,
      "start": 13.799999999999995,
      "end": 13.849999999999996,
      "velocity": 50,
      "role": "percussion",
      "percussion": "hat"
    },
    {
      "pitch": 60,
      "start": 14.399999999999995,
      "end": 14.499999999999995,
      "velocity": 96,
      "role": "percussion",
      "percussion": "kick"
    },
    {
      "pitch": 60,
      "start": 14.399999999999995,
      "end": 14.449999999999996,
      "velocity": 50,
      "role": "percussion",
      "percussion": "hat"
    },
    {
      "pitch": 60,
      "start": 14.999999999999995,
      "end": 15.049999999999995,
      "velocity": 50,
      "role": "percussion",
      "percussion": "hat"
    },
    {
      "pitch": 60,
      "start": 15.599999999999994,
      "end": 15.699999999999994,
      "velocity": 84,
      "role": "percussion",
      "percussion": "snare"
    },
    {
      "pitch": 60,
      "start": 15.599999999999994,
      "end": 15.649999999999995,
      "velocity": 50,
      "role": "percussion",
      "percussion": "hat"
    },
    {
      "pitch": 60,
      "start": 16.199999999999996,
      "end": 16.249999999999996,
      "velocity": 50,
      "role": "percussion",
      "percussion": "hat"
    },
    {
      "pitch": 60,
      "start": 16.799999999999997,
      "end": 16.9,
      "velocity": 96,
      "role": "percussion",
      "percussion": "kick"
    },
    {
      "pitch": 60,
      "start": 16.799999999999997,
      "end": 16.849999999999998,
      "velocity": 50,
      "role": "percussion",
      "percussion": "hat"
    },
    {
      "pitch": 60,
      "start": 17.4,
      "end": 17.45,
      "velocity": 50,
      "role": "percussion",
      "percussion": "hat"
    },
    {
      "pitch": 60,
      "start": 18.0,
      "end": 18.1,
      "velocity": 84,
      "role": "percussion",
      "percussion": "snare"
    },
    {
      "pitch": 60,
      "start": 18.0,
      "end": 18.05,
      "velocity": 50,
      "role": "percussion",
      "percussion": "hat"
    },
    {
      "pitch": 60,
      "start": 18.6,
      "end": 18.650000000000002,
      "velocity": 50,
      "role": "percussion",
      "percussion": "hat"
    },
    {
      "pitch": 60,
      "start": 19.200000000000003,
      "end": 19.300000000000004,
      "velocity": 96,
      "role": "percussion",
      "percussion": "kick"
    },
    {
      "pitch": 60,
      "start": 19.200000000000003,
      "end": 19.250000000000004,
      "velocity": 50,
      "role": "percussion",
      "percussion": "hat"
    },
    {
      "pitch": 60,
      "start": 19.800000000000004,
      "end": 19.850000000000005,
      "velocity": 50,
      "role": "percussion",
      "percussion": "hat"
    }
  ]
}