{
  "tempo": {
    "bpm": 89.10290948275862,
    "offset": 0.6733786848072563,
    "beats_per_bar": 4
  },
  "duration": 29.968911564625852,
  "notes": [
    {
      "pitch": 66,
      "start": 0.023219954648526078,
      "end": 0.11609977324263039,
      "velocity": 23,
      "role": "lead",
      "percussion": null
    },
    {
      "pitch": 65,
      "start": 0.11609977324263039,
      "end": 0.23219954648526078,
      "velocity": 58,
      "role": "lead",
      "percussion": null
    },
    {
      "pitch": 64,
      "start": 0.23219954648526078,
      "end": 0.8591383219954648,
      "velocity": 92,
      "role": "lead",
      "percussion": null
    },
    {
      "pitch": 60,
      "start": 0.9752380952380952,
      "end": 1.5209070294784581,
      "velocity": 94,
      "role": "lead",
      "percussion": null
    },
    {
      "pitch": 65,
      "start": 1.5789569160997732,
      "end": 1.6950566893424037,
      "velocity": 21,
      "role": "lead",
      "percussion": null
    },
    {
      "pitch": 67,
      "start": 1.7414965986394557,
      "end": 3.93578231292517,
      "velocity": 29,
      "role": "lead",
      "percussion": null
    },
    {
      "pitch": 67,
      "start": 3.9706122448979593,
      "end": 4.539501133786848,
      "velocity": 42,
      "role": "lead",
      "percussion": null
    },
    {
      "pitch": 67,
      "start": 4.574331065759637,
      "end": 4.6788208616780045,
      "velocity": 2,
      "role": "lead",
      "percussion": null
    },
    {
      "pitch": 62,
      "start": 6.060408163265306,
      "end": 6.2693877551020405,
      "velocity": 72,
      "role": "lead",
      "percussion": null
    },
    {
      "pitch": 67,
      "start": 6.350657596371882,
      "end": 6.443537414965986,
      "velocity": 44,
      "role": "lead",
      "percussion": null
    },
    {
      "pitch": 69,
      "start": 6.478367346938776,
      "end": 6.757006802721088,
      "velocity": 95,
      "role": "lead",
      "percussion": null
    },
    {
      "pitch": 67,
      "start": 6.8382766439909295,
      "end": 6.9543764172335605,
      "velocity": 28,
      "role": "lead",
      "percussion": null
    },
    {
      "pitch": 65,
      "start": 6.965986394557823,
      "end": 7.430385487528345,
      "velocity": 93,
      "role": "lead",
      "percussion": null
    },
    {
      "pitch": 64,
      "start": 7.662585034013605,
      "end": 8.382403628117913,
      "velocity": 58,
      "role": "lead",
      "percussion": null
    },
    {
      "pitch": 65,
      "start": 8.684263038548753,
      "end": 8.823582766439909,
      "velocity": 24,
      "role": "lead",
      "percussion": null
    },
    {
      "pitch": 64,
      "start": 8.823582766439909,
      "end": 8.951292517006802,
      "velocity": 18,
      "role": "lead",
      "percussion": null
    },
    {
      "pitch": 62,
      "start": 8.986122448979591,
      "end": 9.125442176870749,
      "velocity": 82,
      "role": "lead",
      "percussion": null
    },
    {
      "pitch": 62,
      "start": 9.32281179138322,
      "end": 9.496961451247165,
      "velocity": 44,
      "role": "lead",
      "percussion": null
    },
    {
      "pitch": 62,
      "start": 9.601451247165533,
      "end": 10.112290249433107,
      "velocity": 30,
      "role": "lead",
      "percussion": null
    },
    {
      "pitch": 62,
      "start": 10.414149659863945,
      "end": 11.215238095238096,
      "velocity": 43,
      "role": "lead",
      "percussion": null
    },
    {
      "pitch": 62,
      "start": 11.528707482993198,
      "end": 11.656417233560092,
      "velocity": 2,
      "role": "lead",
      "percussion": null
    },
    {
      "pitch": 59,
      "start": 11.668027210884354,
      "end": 11.760907029478458,
      "velocity": 8,
      "role": "lead",
      "percussion": null
    },
    {
      "pitch": 60,
      "start": 11.760907029478458,
      "end": 11.877006802721088,
      "velocity": 21,
      "role": "lead",
      "percussion": null
    },
    {
      "pitch": 57,
      "start": 12.736145124716554,
      "end": 12.817414965986394,
      "velocity": 76,
      "role": "lead",
      "percussion": null
    },
    {
      "pitch": 57,
      "start": 12.852244897959183,
      "end": 12.956734693877552,
      "velocity": 36,
      "role": "lead",
      "percussion": null
    },
    {
      "pitch": 58,
      "start": 13.038004535147392,
      "end": 13.119274376417234,
      "velocity": 38,
      "role": "lead",
      "percussion": null
    },
    {
      "pitch": 69,
      "start": 13.606893424036281,
      "end": 13.688163265306123,
      "velocity": 11,
      "role": "lead",
      "percussion": null
    },
    {
      "pitch": 67,
      "start": 14.013242630385488,
      "end": 14.187392290249432,
      "velocity": 79,
      "role": "lead",
      "percussion": null
    },
    {
      "pitch": 65,
      "start": 14.210612244897959,
      "end": 14.605351473922903,
      "velocity": 61,
      "role": "lead",
      "percussion": null
    },
    {
      "pitch": 64,
      "start": 14.930430839002268,
      "end": 15.24390022675737,
      "velocity": 96,
      "role": "lead",
      "percussion": null
    },
    {
      "pitch": 60,
      "start": 15.301950113378684,
      "end": 15.870839002267573,
      "velocity": 90,
      "role": "lead",
      "percussion": null
    },
    {
      "pitch": 66,
      "start": 15.917278911564626,
      "end": 16.021768707482995,
      "velocity": 50,
      "role": "lead",
      "percussion": null
    },
    {
      "pitch": 67,
      "start": 16.021768707482995,
      "end": 16.474557823129253,
      "velocity": 77,
      "role": "lead",
      "percussion": null
    },
    {
      "pitch": 67,
      "start": 16.72997732426304,
      "end": 16.84607709750567,
      "velocity": 61,
      "role": "lead",
      "percussion": null
    },
    {
      "pitch": 65,
      "start": 16.869297052154195,
      "end": 17.171156462585035,
      "velocity": 46,
      "role": "lead",
      "percussion": null
    },
    {
      "pitch": 67,
      "start": 17.356916099773244,
      "end": 17.484625850340137,
      "velocity": 42,
      "role": "lead",
      "percussion": null
    },
    {
      "pitch": 65,
      "start": 17.519455782312924,
      "end": 17.809705215419502,
      "velocity": 40,
      "role": "lead",
      "percussion": null
    },
    {
      "pitch": 67,
      "start": 17.821315192743764,
      "end": 19.017142857142858,
      "velocity": 15,
      "role": "lead",
      "percussion": null
    },
    {
      "pitch": 61,
      "start": 19.67891156462585,
      "end": 19.818231292517005,
      "velocity": 67,
      "role": "lead",
      "percussion": null
    },
    {
      "pitch": 62,
      "start": 19.818231292517005,
      "end": 19.969160997732427,
      "velocity": 66,
      "role": "lead",
      "percussion": null
    },
    {
      "pitch": 62,
      "start": 20.09687074829932,
      "end": 20.317460317460316,
      "velocity": 91,
      "role": "lead",
      "percussion": null
    },
    {
      "pitch": 64,
      "start": 20.317460317460316,
      "end": 20.619319727891156,
      "velocity": 67,
      "role": "lead",
      "percussion": null
    },
    {
      "pitch": 64,
      "start": 20.990839002267574,
      "end": 21.141768707482992,
      "velocity": 26,
      "role": "lead",
      "percussion": null
    },
    {
      "pitch": 65,
      "start": 21.141768707482992,
      "end": 21.2346485260771,
      "velocity": 27,
      "role": "lead",
      "percussion": null
    },
    {
      "pitch": 65,
      "start": 21.28108843537415,
      "end": 21.536507936507938,
      "velocity": 38,
      "role": "lead",
      "percussion": null
    },
    {
      "pitch": 65,
      "start": 21.59455782312925,
      "end": 21.69904761904762,
      "velocity": 18,
      "role": "lead",
      "percussion": null
    },
    {
      "pitch": 65,
      "start": 21.73387755102041,
      "end": 22.244716553287983,
      "velocity": 21,
      "role": "lead",
      "percussion": null
    },
    {
      "pitch": 65,
      "start": 22.593015873015872,
      "end": 22.976145124716552,
      "velocity": 55,
      "role": "lead",
      "percussion": null
    },
    {
      "pitch": 64,
      "start": 22.976145124716552,
      "end": 23.138684807256237,
      "velocity": 22,
      "role": "lead",
      "percussion": null
    },
    {
      "pitch": 65,
      "start": 23.219954648526077,
      "end": 23.42893424036281,
      "velocity": 26,
      "role": "lead",
      "percussion": null
    },
    {
      "pitch": 67,
      "start": 23.45215419501134,
      "end": 23.64952380952381,
      "velocity": 63,
      "role": "lead",
      "percussion": null
    },
    {
      "pitch": 65,
      "start": 23.64952380952381,
      "end": 23.858503401360544,
      "velocity": 52,
      "role": "lead",
      "percussion": null
    },
    {
      "pitch": 64,
      "start": 24.021043083900228,
      "end": 24.18358276643991,
      "velocity": 50,
      "role": "lead",
      "percussion": null
    },
    {
      "pitch": 65,
      "start": 24.33451247165533,
      "end": 24.79891156462585,
      "velocity": 55,
      "role": "lead",
      "percussion": null
    },
    {
      "pitch": 64,
      "start": 24.79891156462585,
      "end": 24.926621315192744,
      "velocity": 23,
      "role": "lead",
      "percussion": null
    },
    {
      "pitch": 65,
      "start": 24.926621315192744,
      "end": 25.135600907029477,
      "velocity": 38,
      "role": "lead",
      "percussion": null
    },
    {
      "pitch": 64,
      "start": 25.135600907029477,
      "end": 26.36625850340136,
      "velocity": 40,
      "role": "lead",
      "percussion": null
    },
    {
      "pitch": 64,
      "start": 26.505578231292517,
      "end": 26.586848072562358,
      "velocity": 25,
      "role": "lead",
      "percussion": null
    },
    {
      "pitch": 56,
      "start": 26.842267573696144,
      "end": 26.993197278911566,
      "velocity": 77,
      "role": "lead",
      "percussion": null
    },
    {
      "pitch": 65,
      "start": 27.39954648526077,
      "end": 27.58530612244898,
      "velocity": 29,
      "role": "lead",
      "percussion": null
    },
    {
      "pitch": 65,
      "start": 27.74784580498866,
      "end": 28.15419501133787,
      "velocity": 22,
      "role": "lead",
      "percussion": null
    },
    {
      "pitch": 65,
      "start": 28.177414965986394,
      "end": 28.363174603174603,
      "velocity": 34,
      "role": "lead",
      "percussion": null
    },
    {
      "pitch": 65,
      "start": 28.572154195011336,
      "end": 28.83918367346939,
      "velocity": 26,
      "role": "lead",
      "percussion": null
    },
    {
      "pitch": 64,
      "start": 28.897233560090704,
      "end": 29.326802721088434,
      "velocity": 37,
      "role": "lead",
      "percussion": null
    },
    {
      "pitch": 64,
      "start": 29.396462585034012,
      "end": 29.9653514739229,
      "velocity": 15,
      "role": "lead",
      "percussion": null
    },
    {
      "pitch": 60,
      "start": 29.565366893424034,
      "end": 29.797566439909296,
      "velocity": 55,
      "role": "harmony",
      "percussion": null
    },
    {
      "pitch": 55,
      "start": 29.553756916099772,
      "end": 29.797566439909296,
      "velocity": 53,
      "role": "harmony",
      "percussion": null
    },
    {
      "pitch": 52,
      "start": 29.54214693877551,
      "end": 29.797566439909296,
      "velocity": 77,
      "role": "harmony",
      "percussion": null
    },
    {
      "pitch": 67,
      "start": 29.286727437641723,
      "end": 29.797566439909296,
      "velocity": 56,
      "role": "harmony",
      "percussion": null
    },
    {
      "pitch": 55,
      "start": 29.205457596371883,
      "end": 29.553756916099772,
      "velocity": 51,
      "role": "harmony",
      "percussion": null
    },
    {
      "pitch": 72,
      "start": 29.19384761904762,
      "end": 29.42604716553288,
      "velocity": 45,
      "role": "harmony",
      "percussion": null
    },
    {
      "pitch": 60,
      "start": 29.112577777777776,
      "end": 29.565366893424034,
      "velocity": 64,
      "role": "harmony",
      "percussion": null
    },
    {
      "pitch": 72,
      "start": 28.85715827664399,
      "end": 29.05452789115646,
      "velocity": 47,
      "role": "harmony",
      "percussion": null
    },
    {
      "pitch": 60,
      "start": 28.85715827664399,
      "end": 29.112577777777776,
      "velocity": 74,
      "role": "harmony",
      "percussion": null
    },
    {
      "pitch": 55,
      "start": 28.845548299319727,
      "end": 29.205457596371883,
      "velocity": 60,
      "role": "harmony",
      "percussion": null
    },
    {
      "pitch": 52,
      "start": 28.683008616780043,
      "end": 29.54214693877551,
      "velocity": 53,
      "role": "harmony",
      "percussion": null
    },
    {
      "pitch": 57,
      "start": 28.59012879818594,
      "end": 28.868768253968252,
      "velocity": 61,
      "role": "harmony",
      "percussion": null
    },
    {
      "pitch": 69,
      "start": 28.578518820861678,
      "end": 28.78749841269841,
      "velocity": 36,
      "role": "harmony",
      "percussion": null
    },
    {
      "pitch": 57,
      "start": 28.39275918367347,
      "end": 28.59012879818594,
      "velocity": 67,
      "role": "harmony",
      "percussion": null
    },
    {
      "pitch": 72,
      "start": 28.265049433106576,
      "end": 28.55529886621315,
      "velocity": 47,
      "role": "harmony",
      "percussion": null
    },
    {
      "pitch": 60,
      "start": 28.253439455782313,
      "end": 28.85715827664399,
      "velocity": 78,
      "role": "harmony",
      "percussion": null
    },
    {
      "pitch": 69,
      "start": 28.056069841269842,
      "end": 28.218609523809523,
      "velocity": 28,
      "role": "harmony",
      "percussion": null
    },
    {
      "pitch": 60,
      "start": 28.044459863945576,
      "end": 28.253439455782313,
      "velocity": 72,
      "role": "harmony",
      "percussion": null
    },
    {
      "pitch": 57,
      "start": 28.044459863945576,
      "end": 28.39275918367347,
      "velocity": 60,
      "role": "harmony",
      "percussion": null
    },
    {
      "pitch": 60,
      "start": 27.881920181405896,
      "end": 28.044459863945576,
      "velocity": 77,
      "role": "harmony",
      "percussion": null
    },
    {
      "pitch": 57,
      "start": 27.812260317460318,
      "end": 28.044459863945576,
      "velocity": 50,
      "role": "harmony",
      "percussion": null
    },
    {
      "pitch": 55,
      "start": 27.706486621315193,
      "end": 28.55529886621315,
      "velocity": 49,
      "role": "harmony",
      "percussion": null
    },
    {
      "pitch": 53,
      "start": 27.567166893424037,
      "end": 27.752926530612246,
      "velocity": 52,
      "role": "harmony",
      "percussion": null
    },
    {
      "pitch": 55,
      "start": 27.46267709750567,
      "end": 27.706486621315193,
      "velocity": 60,
      "role": "harmony",
      "percussion": null
    },
    {
      "pitch": 43,
      "start": 27.46267709750567,
      "end": 27.601996825396824,
      "velocity": 48,
      "role": "harmony",
      "percussion": null
    },
    {
      "pitch": 60,
      "start": 27.39301723356009,
      "end": 27.881920181405896,
      "velocity": 70,
      "role": "harmony",
      "percussion": null
    },
    {
      "pitch": 48,
      "start": 27.3581873015873,
      "end": 27.50911700680272,
      "velocity": 45,
      "role": "harmony",
      "percussion": null
    },
    {
      "pitch": 43,
      "start": 27.288527437641722,
      "end": 27.46267709750567,
      "velocity": 54,
      "role": "harmony",
      "percussion": null
    },
    {
      "pitch": 43,
      "start": 27.11437777777778,
      "end": 27.288527437641722,
      "velocity": 41,
      "role": "harmony",
      "percussion": null
    },
    {
      "pitch": 60,
      "start": 27.102767800453513,
      "end": 27.39301723356009,
      "velocity": 64,
      "role": "harmony",
      "percussion": null
    },
    {
      "pitch": 43,
      "start": 26.870568253968255,
      "end": 27.11437777777778,
      "velocity": 50,
      "role": "harmony",
      "percussion": null
    },
    {
      "pitch": 48,
      "start": 26.766078458049886,
      "end": 27.044717913832198,
      "velocity": 46,
      "role": "harmony",
      "percussion": null
    },
    {
      "pitch": 60,
      "start": 26.719638548752833,
      "end": 27.102767800453513,
      "velocity": 68,
      "role": "harmony",
      "percussion": null
    },
    {
      "pitch": 53,
      "start": 26.70802857142857,
      "end": 26.92861814058957,
      "velocity": 47,
      "role": "harmony",
      "percussion": null
    },
    {
      "pitch": 43,
      "start": 26.661588662131518,
      "end": 27.46267709750567,
      "velocity": 52,
      "role": "harmony",
      "percussion": null
    },
    {
      "pitch": 53,
      "start": 26.557098866213153,
      "end": 26.70802857142857,
      "velocity": 66,
      "role": "harmony",
      "percussion": null
    },
    {
      "pitch": 57,
      "start": 26.475829024943312,
      "end": 26.719638548752833,
      "velocity": 56,
      "role": "harmony",
      "percussion": null
    },
    {
      "pitch": 52,
      "start": 26.32489931972789,
      "end": 26.5106589569161,
      "velocity": 61,
      "role": "harmony",
      "percussion": null
    },
    {
      "pitch": 57,
      "start": 26.290069387755103,
      "end": 26.475829024943312,
      "velocity": 76,
      "role": "harmony",
      "percussion": null
    },
    {
      "pitch": 52,
      "start": 26.24362947845805,
      "end": 26.557098866213153,
      "velocity": 42,
      "role": "harmony",
      "percussion": null
    },
    {
      "pitch": 57,
      "start": 25.452867120181406,
      "end": 26.290069387755103,
      "velocity": 59,
      "role": "harmony",
      "percussion": null
    },
    {
      "pitch": 45,
      "start": 25.151007709750566,
      "end": 25.661846712018143,
      "velocity": 57,
      "role": "harmony",
      "percussion": null
    },
    {
      "pitch": 43,
      "start": 24.58211882086168,
      "end": 24.93041814058957,
      "velocity": 47,
      "role": "harmony",
      "percussion": null
    },
    {
      "pitch": 62,
      "start": 24.44279909297052,
      "end": 24.802708390022676,
      "velocity": 49,
      "role": "harmony",
      "percussion": null
    },
    {
      "pitch": 57,
      "start": 24.44279909297052,
      "end": 24.907198185941045,
      "velocity": 46,
      "role": "harmony",
      "percussion": null
    },
    {
      "pitch": 52,
      "start": 24.24542947845805,
      "end": 24.93041814058957,
      "velocity": 66,
      "role": "harmony",
      "percussion": null
    },
    {
      "pitch": 57,
      "start": 24.152549659863947,
      "end": 24.44279909297052,
      "velocity": 70,
      "role": "harmony",
      "percussion": null
    },
    {
      "pitch": 45,
      "start": 24.152549659863947,
      "end": 24.674998639455783,
      "velocity": 65,
      "role": "harmony",
      "percussion": null
    },
    {
      "pitch": 52,
      "start": 24.09449977324263,
      "end": 24.24542947845805,
      "velocity": 81,
      "role": "harmony",
      "percussion": null
    },
    {
      "pitch": 61,
      "start": 23.966790022675738,
      "end": 24.175769614512472,
      "velocity": 58,
      "role": "harmony",
      "percussion": null
    },
    {
      "pitch": 45,
      "start": 23.966790022675738,
      "end": 24.152549659863947,
      "velocity": 69,
      "role": "harmony",
      "percussion": null
    },
    {
      "pitch": 57,
      "start": 23.920350113378685,
      "end": 24.152549659863947,
      "velocity": 58,
      "role": "harmony",
      "percussion": null
    },
    {
      "pitch": 45,
      "start": 23.686866666666667,
      "end": 23.966790022675738,
      "velocity": 48,
      "role": "harmony",
      "percussion": null
    },
    {
      "pitch": 52,
      "start": 23.570766893424036,
      "end": 24.09449977324263,
      "velocity": 71,
      "role": "harmony",
      "percussion": null
    },
    {
      "pitch": 52,
      "start": 23.408227210884355,
      "end": 23.570766893424036,
      "velocity": 84,
      "role": "harmony",
      "percussion": null
    },
    {
      "pitch": 53,
      "start": 22.978658049886622,
      "end": 23.326957369614515,
      "velocity": 84,
      "role": "harmony",
      "percussion": null
    },
    {
      "pitch": 62,
      "start": 22.81611836734694,
      "end": 22.978658049886622,
      "velocity": 65,
      "role": "harmony",
      "percussion": null
    },
    {
      "pitch": 53,
      "start": 22.351719274376418,
      "end": 22.978658049886622,
      "velocity": 84,
      "role": "harmony",
      "percussion": null
    },
    {
      "pitch": 53,
      "start": 22.142739682539684,
      "end": 22.351719274376418,
      "velocity": 57,
      "role": "harmony",
      "percussion": null
    },
    {
      "pitch": 50,
      "start": 21.73510657596372,
      "end": 22.456209070294786,
      "velocity": 77,
      "role": "harmony",
      "percussion": null
    },
    {
      "pitch": 58,
      "start": 21.642226757369617,
      "end": 21.816376417233563,
      "velocity": 58,
      "role": "harmony",
      "percussion": null
    },
    {
      "pitch": 50,
      "start": 21.46807709750567,
      "end": 21.73510657596372,
      "velocity": 77,
      "role": "harmony",
      "percussion": null
    },
    {
      "pitch": 48,
      "start": 21.0501179138322,
      "end": 21.54934693877551,
      "velocity": 76,
      "role": "harmony",
      "percussion": null
    },
    {
      "pitch": 58,
      "start": 20.50444897959184,
      "end": 20.759868480725626,
      "velocity": 66,
      "role": "harmony",
      "percussion": null
    },
    {
      "pitch": 46,
      "start": 20.50444897959184,
      "end": 21.142997732426306,
      "velocity": 74,
      "role": "harmony",
      "percussion": null
    },
    {
      "pitch": 62,
      "start": 20.365129251700683,
      "end": 20.655378684807257,
      "velocity": 68,
      "role": "harmony",
      "percussion": null
    },
    {
      "pitch": 53,
      "start": 20.365129251700683,
      "end": 21.108167800453515,
      "velocity": 55,
      "role": "harmony",
      "percussion": null
    },
    {
      "pitch": 46,
      "start": 20.144539682539683,
      "end": 20.50444897959184,
      "velocity": 63,
      "role": "harmony",
      "percussion": null
    },
    {
      "pitch": 67,
      "start": 20.04004988662132,
      "end": 20.632158730158732,
      "velocity": 67,
      "role": "harmony",
      "percussion": null
    },
    {
      "pitch": 69,
      "start": 19.841396371882084,
      "end": 20.05165986394558,
      "velocity": 87,
      "role": "harmony",
      "percussion": null
    },
    {
      "pitch": 46,
      "start": 19.82978639455782,
      "end": 20.144539682539683,
      "velocity": 71,
      "role": "harmony",
      "percussion": null
    },
    {
      "pitch": 46,
      "start": 19.678856689342403,
      "end": 19.82978639455782,
      "velocity": 45,
      "role": "harmony",
      "percussion": null
    },
    {
      "pitch": 50,
      "start": 19.574366893424035,
      "end": 19.806566439909297,
      "velocity": 80,
      "role": "harmony",
      "percussion": null
    },
    {
      "pitch": 71,
      "start": 19.226067573696145,
      "end": 19.51631700680272,
      "velocity": 64,
      "role": "harmony",
      "percussion": null
    },
    {
      "pitch": 67,
      "start": 19.226067573696145,
      "end": 19.562756916099772,
      "velocity": 73,
      "role": "harmony",
      "percussion": null
    },
    {
      "pitch": 71,
      "start": 19.0519179138322,
      "end": 19.226067573696145,
      "velocity": 69,
      "role": "harmony",
      "percussion": null
    },
    {
      "pitch": 55,
      "start": 18.924208163265305,
      "end": 19.226067573696145,
      "velocity": 91,
      "role": "harmony",
      "percussion": null
    },
    {
      "pitch": 64,
      "start": 18.877768253968252,
      "end": 19.493097052154194,
      "velocity": 62,
      "role": "harmony",
      "percussion": null
    },
    {
      "pitch": 71,
      "start": 18.738448526077097,
      "end": 19.0519179138322,
      "velocity": 71,
      "role": "harmony",
      "percussion": null
    },
    {
      "pitch": 55,
      "start": 18.738448526077097,
      "end": 18.924208163265305,
      "velocity": 76,
      "role": "harmony",
      "percussion": null
    },
    {
      "pitch": 86,
      "start": 18.45980907029478,
      "end": 19.179627664399092,
      "velocity": 46,
      "role": "harmony",
      "percussion": null
    },
    {
      "pitch": 55,
      "start": 18.45980907029478,
      "end": 18.738448526077097,
      "velocity": 67,
      "role": "harmony",
      "percussion": null
    },
    {
      "pitch": 62,
      "start": 18.44819909297052,
      "end": 19.02869795918367,
      "velocity": 81,
      "role": "harmony",
      "percussion": null
    },
    {
      "pitch": 71,
      "start": 18.332099319727888,
      "end": 18.738448526077097,
      "velocity": 55,
      "role": "harmony",
      "percussion": null
    },
    {
      "pitch": 98,
      "start": 18.227609523809523,
      "end": 18.390149206349204,
      "velocity": 53,
      "role": "harmony",
      "percussion": null
    },
    {
      "pitch": 55,
      "start": 18.227609523809523,
      "end": 18.45980907029478,
      "velocity": 86,
      "role": "harmony",
      "percussion": null
    },
    {
      "pitch": 62,
      "start": 18.227609523809523,
      "end": 18.44819909297052,
      "velocity": 49,
      "role": "harmony",
      "percussion": null
    },
    {
      "pitch": 71,
      "start": 18.088289795918367,
      "end": 18.332099319727888,
      "velocity": 49,
      "role": "harmony",
      "percussion": null
    },
    {
      "pitch": 69,
      "start": 17.99540997732426,
      "end": 18.320489342403626,
      "velocity": 88,
      "role": "harmony",
      "percussion": null
    },
    {
      "pitch": 71,
      "start": 17.890920181405896,
      "end": 18.088289795918367,
      "velocity": 50,
      "role": "harmony",
      "percussion": null
    },
    {
      "pitch": 62,
      "start": 17.890920181405896,
      "end": 18.227609523809523,
      "velocity": 66,
      "role": "harmony",
      "percussion": null
    },
    {
      "pitch": 55,
      "start": 17.56455691609977,
      "end": 17.890920181405896,
      "velocity": 77,
      "role": "harmony",
      "percussion": null
    },
    {
      "pitch": 62,
      "start": 17.55294693877551,
      "end": 17.890920181405896,
      "velocity": 93,
      "role": "harmony",
      "percussion": null
    },
    {
      "pitch": 71,
      "start": 17.425237188208616,
      "end": 17.890920181405896,
      "velocity": 69,
      "role": "harmony",
      "percussion": null
    },
    {
      "pitch": 55,
      "start": 17.320747392290247,
      "end": 17.56455691609977,
      "velocity": 81,
      "role": "harmony",
      "percussion": null
    },
    {
      "pitch": 71,
      "start": 17.111767800453514,
      "end": 17.425237188208616,
      "velocity": 69,
      "role": "harmony",
      "percussion": null
    },
    {
      "pitch": 69,
      "start": 17.10015782312925,
      "end": 17.413627210884354,
      "velocity": 87,
      "role": "harmony",
      "percussion": null
    },
    {
      "pitch": 62,
      "start": 17.10015782312925,
      "end": 17.55294693877551,
      "velocity": 64,
      "role": "harmony",
      "percussion": null
    },
    {
      "pitch": 55,
      "start": 16.90278820861678,
      "end": 17.10015782312925,
      "velocity": 43,
      "role": "harmony",
      "percussion": null
    },
    {
      "pitch": 71,
      "start": 16.82151836734694,
      "end": 17.111767800453514,
      "velocity": 73,
      "role": "harmony",
      "percussion": null
    },
    {
      "pitch": 71,
      "start": 16.670588662131518,
      "end": 16.82151836734694,
      "velocity": 62,
      "role": "harmony",
      "percussion": null
    },
    {
      "pitch": 86,
      "start": 16.647368707482993,
      "end": 16.937618140589567,
      "velocity": 46,
      "role": "harmony",
      "percussion": null
    },
    {
      "pitch": 55,
      "start": 16.41516916099773,
      "end": 17.08854784580499,
      "velocity": 82,
      "role": "harmony",
      "percussion": null
    },
    {
      "pitch": 69,
      "start": 16.194579591836735,
      "end": 16.5196589569161,
      "velocity": 81,
      "role": "harmony",
      "percussion": null
    },
    {
      "pitch": 62,
      "start": 16.194579591836735,
      "end": 17.10015782312925,
      "velocity": 70,
      "role": "harmony",
      "percussion": null
    },
    {
      "pitch": 62,
      "start": 15.997209977324264,
      "end": 16.194579591836735,
      "velocity": 69,
      "role": "harmony",
      "percussion": null
    },
    {
      "pitch": 55,
      "start": 15.752116553287982,
      "end": 15.973990022675736,
      "velocity": 63,
      "role": "harmony",
      "percussion": null
    },
    {
      "pitch": 43,
      "start": 15.577966893424035,
      "end": 16.11330975056689,
      "velocity": 57,
      "role": "harmony",
      "percussion": null
    },
    {
      "pitch": 67,
      "start": 15.566356916099773,
      "end": 15.752116553287982,
      "velocity": 89,
      "role": "harmony",
      "percussion": null
    },
    {
      "pitch": 62,
      "start": 15.43864716553288,
      "end": 15.63601678004535,
      "velocity": 37,
      "role": "harmony",
      "percussion": null
    },
    {
      "pitch": 67,
      "start": 15.322547392290248,
      "end": 15.566356916099773,
      "velocity": 92,
      "role": "harmony",
      "percussion": null
    },
    {
      "pitch": 55,
      "start": 15.25288752834467,
      "end": 15.450257142857142,
      "velocity": 39,
      "role": "harmony",
      "percussion": null
    },
    {
      "pitch": 43,
      "start": 15.10195782312925,
      "end": 15.577966893424035,
      "velocity": 74,
      "role": "harmony",
      "percussion": null
    },
    {
      "pitch": 55,
      "start": 15.02068798185941,
      "end": 15.194837641723355,
      "velocity": 39,
      "role": "harmony",
      "percussion": null
    },
    {
      "pitch": 62,
      "start": 14.951028117913832,
      "end": 15.334157369614513,
      "velocity": 54,
      "role": "harmony",
      "percussion": null
    },
    {
      "pitch": 43,
      "start": 14.916198185941044,
      "end": 15.10195782312925,
      "velocity": 65,
      "role": "harmony",
      "percussion": null
    },
    {
      "pitch": 67,
      "start": 14.90458820861678,
      "end": 15.322547392290248,
      "velocity": 90,
      "role": "harmony",
      "percussion": null
    },
    {
      "pitch": 53,
      "start": 14.579508843537415,
      "end": 14.858148299319728,
      "velocity": 53,
      "role": "harmony",
      "percussion": null
    },
    {
      "pitch": 53,
      "start": 14.022229931972788,
      "end": 14.289259410430839,
      "velocity": 75,
      "role": "harmony",
      "percussion": null
    },
    {
      "pitch": 45,
      "start": 13.765526530612245,
      "end": 14.207989569160997,
      "velocity": 79,
      "role": "harmony",
      "percussion": null
    },
    {
      "pitch": 65,
      "start": 13.533326984126985,
      "end": 14.022229931972788,
      "velocity": 87,
      "role": "harmony",
      "percussion": null
    },
    {
      "pitch": 45,
      "start": 13.498497052154196,
      "end": 13.765526530612245,
      "velocity": 77,
      "role": "harmony",
      "percussion": null
    },
    {
      "pitch": 65,
      "start": 13.335957369614512,
      "end": 13.533326984126985,
      "velocity": 90,
      "role": "harmony",
      "percussion": null
    },
    {
      "pitch": 62,
      "start": 13.115367800453514,
      "end": 13.428837188208616,
      "velocity": 61,
      "role": "harmony",
      "percussion": null
    },
    {
      "pitch": 65,
      "start": 13.09214784580499,
      "end": 13.335957369614512,
      "velocity": 70,
      "role": "harmony",
      "percussion": null
    },
    {
      "pitch": 65,
      "start": 12.952828117913832,
      "end": 13.09214784580499,
      "velocity": 66,
      "role": "harmony",
      "percussion": null
    },
    {
      "pitch": 62,
      "start": 12.63935873015873,
      "end": 13.115367800453514,
      "velocity": 79,
      "role": "harmony",
      "percussion": null
    },
    {
      "pitch": 62,
      "start": 12.40715918367347,
      "end": 12.63935873015873,
      "velocity": 104,
      "role": "harmony",
      "percussion": null
    },
    {
      "pitch": 62,
      "start": 12.151739682539683,
      "end": 12.40715918367347,
      "velocity": 84,
      "role": "harmony",
      "percussion": null
    },
    {
      "pitch": 38,
      "start": 12.128519727891156,
      "end": 12.40715918367347,
      "velocity": 76,
      "role": "harmony",
      "percussion": null
    },
    {
      "pitch": 38,
      "start": 11.954370068027211,
      "end": 12.128519727891156,
      "velocity": 92,
      "role": "harmony",
      "percussion": null
    },
    {
      "pitch": 62,
      "start": 11.919540136054422,
      "end": 12.151739682539683,
      "velocity": 81,
      "role": "harmony",
      "percussion": null
    },
    {
      "pitch": 38,
      "start": 11.813766439909298,
      "end": 11.954370068027211,
      "velocity": 95,
      "role": "harmony",
      "percussion": null
    },
    {
      "pitch": 67,
      "start": 11.70927664399093,
      "end": 12.325889342403629,
      "velocity": 84,
      "role": "harmony",
      "percussion": null
    },
    {
      "pitch": 55,
      "start": 11.70927664399093,
      "end": 12.22139954648526,
      "velocity": 50,
      "role": "harmony",
      "percussion": null
    },
    {
      "pitch": 50,
      "start": 11.51190702947846,
      "end": 11.919540136054422,
      "velocity": 63,
      "role": "harmony",
      "percussion": null
    },
    {
      "pitch": 64,
      "start": 11.233267573696146,
      "end": 12.233009523809525,
      "velocity": 78,
      "role": "harmony",
      "percussion": null
    },
    {
      "pitch": 38,
      "start": 11.02428798185941,
      "end": 11.221657596371882,
      "velocity": 62,
      "role": "harmony",
      "percussion": null
    },
    {
      "pitch": 50,
      "start": 11.012678004535148,
      "end": 11.51190702947846,
      "velocity": 54,
      "role": "harmony",
      "percussion": null
    },
    {
      "pitch": 65,
      "start": 11.001068027210886,
      "end": 11.17521768707483,
      "velocity": 82,
      "role": "harmony",
      "percussion": null
    },
    {
      "pitch": 50,
      "start": 10.884968253968255,
      "end": 11.105557823129253,
      "velocity": 44,
      "role": "harmony",
      "percussion": null
    },
    {
      "pitch": 67,
      "start": 10.768868480725624,
      "end": 11.70927664399093,
      "velocity": 82,
      "role": "harmony",
      "percussion": null
    },
    {
      "pitch": 50,
      "start": 10.350909297052155,
      "end": 11.012678004535148,
      "velocity": 87,
      "role": "harmony",
      "percussion": null
    },
    {
      "pitch": 65,
      "start": 10.327689342403628,
      "end": 10.722428571428573,
      "velocity": 58,
      "role": "harmony",
      "percussion": null
    },
    {
      "pitch": 50,
      "start": 10.10709977324263,
      "end": 10.350909297052155,
      "velocity": 103,
      "role": "harmony",
      "percussion": null
    },
    {
      "pitch": 38,
      "start": 10.049049886621315,
      "end": 10.722428571428573,
      "velocity": 79,
      "role": "harmony",
      "percussion": null
    },
    {
      "pitch": 50,
      "start": 9.896836281179137,
      "end": 10.10709977324263,
      "velocity": 76,
      "role": "harmony",
      "percussion": null
    },
    {
      "pitch": 86,
      "start": 9.885226303854875,
      "end": 10.467009070294786,
      "velocity": 45,
      "role": "harmony",
      "percussion": null
    },
    {
      "pitch": 67,
      "start": 9.885226303854875,
      "end": 10.768868480725624,
      "velocity": 83,
      "role": "harmony",
      "percussion": null
    },
    {
      "pitch": 38,
      "start": 9.82717641723356,
      "end": 10.049049886621315,
      "velocity": 94,
      "role": "harmony",
      "percussion": null
    },
    {
      "pitch": 50,
      "start": 9.71107664399093,
      "end": 9.896836281179137,
      "velocity": 88,
      "role": "harmony",
      "percussion": null
    },
    {
      "pitch": 57,
      "start": 9.67624671201814,
      "end": 9.979390022675737,
      "velocity": 47,
      "role": "harmony",
      "percussion": null
    },
    {
      "pitch": 38,
      "start": 9.664636734693877,
      "end": 9.82717641723356,
      "velocity": 68,
      "role": "harmony",
      "percussion": null
    },
    {
      "pitch": 50,
      "start": 9.432437188208617,
      "end": 9.71107664399093,
      "velocity": 82,
      "role": "harmony",
      "percussion": null
    },
    {
      "pitch": 38,
      "start": 9.40921723356009,
      "end": 9.664636734693877,
      "velocity": 62,
      "role": "harmony",
      "percussion": null
    },
    {
      "pitch": 38,
      "start": 9.269897505668935,
      "end": 9.40921723356009,
      "velocity": 62,
      "role": "harmony",
      "percussion": null
    },
    {
      "pitch": 67,
      "start": 9.17701768707483,
      "end": 9.885226303854875,
      "velocity": 81,
      "role": "harmony",
      "percussion": null
    },
    {
      "pitch": 50,
      "start": 9.118967800453515,
      "end": 9.432437188208617,
      "velocity": 70,
      "role": "harmony",
      "percussion": null
    },
    {
      "pitch": 57,
      "start": 9.049307936507937,
      "end": 9.235067573696144,
      "velocity": 58,
      "role": "harmony",
      "percussion": null
    },
    {
      "pitch": 69,
      "start": 8.968038095238095,
      "end": 9.211847619047619,
      "velocity": 89,
      "role": "harmony",
      "percussion": null
    },
    {
      "pitch": 50,
      "start": 8.87515827664399,
      "end": 9.118967800453515,
      "velocity": 63,
      "role": "harmony",
      "percussion": null
    },
    {
      "pitch": 43,
      "start": 8.352709297052154,
      "end": 8.933208163265306,
      "velocity": 74,
      "role": "harmony",
      "percussion": null
    },
    {
      "pitch": 43,
      "start": 8.143729705215419,
      "end": 8.352709297052154,
      "velocity": 93,
      "role": "harmony",
      "percussion": null
    },
    {
      "pitch": 62,
      "start": 7.747706575963719,
      "end": 8.050849886621315,
      "velocity": 53,
      "role": "harmony",
      "percussion": null
    },
    {
      "pitch": 43,
      "start": 7.736096598639456,
      "end": 8.143729705215419,
      "velocity": 66,
      "role": "harmony",
      "percussion": null
    },
    {
      "pitch": 64,
      "start": 7.44584716553288,
      "end": 7.643216780045352,
      "velocity": 67,
      "role": "harmony",
      "percussion": null
    },
    {
      "pitch": 43,
      "start": 7.399407256235828,
      "end": 7.608386848072563,
      "velocity": 64,
      "role": "harmony",
      "percussion": null
    },
    {
      "pitch": 52,
      "start": 7.2949174603174605,
      "end": 7.44584716553288,
      "velocity": 60,
      "role": "harmony",
      "percussion": null
    },
    {
      "pitch": 45,
      "start": 7.236867573696145,
      "end": 7.538726984126984,
      "velocity": 64,
      "role": "harmony",
      "percussion": null
    },
    {
      "pitch": 45,
      "start": 6.876958276643991,
      "end": 7.236867573696145,
      "velocity": 47,
      "role": "harmony",
      "percussion": null
    },
    {
      "pitch": 53,
      "start": 6.830518367346939,
      "end": 7.202037641723356,
      "velocity": 61,
      "role": "harmony",
      "percussion": null
    },
    {
      "pitch": 45,
      "start": 6.679588662131519,
      "end": 6.876958276643991,
      "velocity": 70,
      "role": "harmony",
      "percussion": null
    },
    {
      "pitch": 65,
      "start": 6.667978684807256,
      "end": 6.830518367346939,
      "velocity": 80,
      "role": "harmony",
      "percussion": null
    },
    {
      "pitch": 65,
      "start": 6.517048979591837,
      "end": 6.667978684807256,
      "velocity": 90,
      "role": "harmony",
      "percussion": null
    },
    {
      "pitch": 62,
      "start": 6.447389115646259,
      "end": 6.900178231292517,
      "velocity": 47,
      "role": "harmony",
      "percussion": null
    },
    {
      "pitch": 65,
      "start": 6.37772925170068,
      "end": 6.517048979591837,
      "velocity": 94,
      "role": "harmony",
      "percussion": null
    },
    {
      "pitch": 45,
      "start": 6.331289342403628,
      "end": 6.679588662131519,
      "velocity": 94,
      "role": "harmony",
      "percussion": null
    },
    {
      "pitch": 69,
      "start": 6.238409523809524,
      "end": 6.458999092970521,
      "velocity": 66,
      "role": "harmony",
      "percussion": null
    },
    {
      "pitch": 45,
      "start": 6.168749659863946,
      "end": 6.331289342403628,
      "velocity": 95,
      "role": "harmony",
      "percussion": null
    },
    {
      "pitch": 65,
      "start": 5.9713800453514745,
      "end": 6.37772925170068,
      "velocity": 82,
      "role": "harmony",
      "percussion": null
    },
    {
      "pitch": 45,
      "start": 5.9713800453514745,
      "end": 6.168749659863946,
      "velocity": 69,
      "role": "harmony",
      "percussion": null
    },
    {
      "pitch": 69,
      "start": 5.842386394557823,
      "end": 6.238409523809524,
      "velocity": 52,
      "role": "harmony",
      "percussion": null
    },
    {
      "pitch": 65,
      "start": 5.784336507936508,
      "end": 5.9713800453514745,
      "velocity": 63,
      "role": "harmony",
      "percussion": null
    },
    {
      "pitch": 45,
      "start": 5.71467664399093,
      "end": 5.9713800453514745,
      "velocity": 55,
      "role": "harmony",
      "percussion": null
    },
    {
      "pitch": 65,
      "start": 5.517307029478458,
      "end": 5.784336507936508,
      "velocity": 49,
      "role": "harmony",
      "percussion": null
    },
    {
      "pitch": 62,
      "start": 5.517307029478458,
      "end": 5.9713800453514745,
      "velocity": 59,
      "role": "harmony",
      "percussion": null
    },
    {
      "pitch": 62,
      "start": 5.18061768707483,
      "end": 5.517307029478458,
      "velocity": 76,
      "role": "harmony",
      "percussion": null
    },
    {
      "pitch": 50,
      "start": 4.820708390022675,
      "end": 5.412817233560091,
      "velocity": 57,
      "role": "harmony",
      "percussion": null
    },
    {
      "pitch": 55,
      "start": 4.634948752834467,
      "end": 5.157397732426304,
      "velocity": 66,
      "role": "harmony",
      "percussion": null
    },
    {
      "pitch": 55,
      "start": 4.495629024943311,
      "end": 5.1341777777777775,
      "velocity": 76,
      "role": "harmony",
      "percussion": null
    },
    {
      "pitch": 55,
      "start": 4.495629024943311,
      "end": 4.634948752834467,
      "velocity": 64,
      "role": "harmony",
      "percussion": null
    },
    {
      "pitch": 50,
      "start": 4.484019047619047,
      "end": 4.820708390022675,
      "velocity": 75,
      "role": "harmony",
      "percussion": null
    },
    {
      "pitch": 64,
      "start": 4.472409070294784,
      "end": 5.099347845804989,
      "velocity": 64,
      "role": "harmony",
      "percussion": null
    },
    {
      "pitch": 50,
      "start": 4.2634294784580495,
      "end": 4.484019047619047,
      "velocity": 70,
      "role": "harmony",
      "percussion": null
    },
    {
      "pitch": 62,
      "start": 4.251819501133786,
      "end": 4.472409070294784,
      "velocity": 67,
      "role": "harmony",
      "percussion": null
    },
    {
      "pitch": 55,
      "start": 4.251819501133786,
      "end": 4.391139229024943,
      "velocity": 60,
      "role": "harmony",
      "percussion": null
    },
    {
      "pitch": 86,
      "start": 4.008009977324263,
      "end": 4.4143591836734695,
      "velocity": 45,
      "role": "harmony",
      "percussion": null
    },
    {
      "pitch": 62,
      "start": 4.008009977324263,
      "end": 4.251819501133786,
      "velocity": 90,
      "role": "harmony",
      "percussion": null
    },
    {
      "pitch": 50,
      "start": 4.008009977324263,
      "end": 4.2634294784580495,
      "velocity": 69,
      "role": "harmony",
      "percussion": null
    },
    {
      "pitch": 55,
      "start": 3.7977464852607707,
      "end": 3.9963999999999995,
      "velocity": 60,
      "role": "harmony",
      "percussion": null
    },
    {
      "pitch": 98,
      "start": 3.786136507936508,
      "end": 3.9486761904761902,
      "velocity": 46,
      "role": "harmony",
      "percussion": null
    },
    {
      "pitch": 55,
      "start": 3.786136507936508,
      "end": 4.495629024943311,
      "velocity": 64,
      "role": "harmony",
      "percussion": null
    },
    {
      "pitch": 50,
      "start": 3.7048666666666668,
      "end": 4.008009977324263,
      "velocity": 64,
      "role": "harmony",
      "percussion": null
    },
    {
      "pitch": 47,
      "start": 3.6816467120181406,
      "end": 3.925456235827664,
      "velocity": 66,
      "role": "harmony",
      "percussion": null
    },
    {
      "pitch": 62,
      "start": 3.577156916099773,
      "end": 3.786136507936508,
      "velocity": 57,
      "role": "harmony",
      "percussion": null
    },
    {
      "pitch": 69,
      "start": 3.56554693877551,
      "end": 3.973180045351474,
      "velocity": 79,
      "role": "harmony",
      "percussion": null
    },
    {
      "pitch": 47,
      "start": 3.461057142857143,
      "end": 3.6816467120181406,
      "velocity": 55,
      "role": "harmony",
      "percussion": null
    },
    {
      "pitch": 86,
      "start": 3.1127578231292516,
      "end": 3.3333473922902495,
      "velocity": 55,
      "role": "harmony",
      "percussion": null
    },
    {
      "pitch": 55,
      "start": 3.1127578231292516,
      "end": 3.321737414965986,
      "velocity": 68,
      "role": "harmony",
      "percussion": null
    },
    {
      "pitch": 62,
      "start": 3.1127578231292516,
      "end": 3.577156916099773,
      "velocity": 88,
      "role": "harmony",
      "percussion": null
    },
    {
      "pitch": 47,
      "start": 2.950218140589569,
      "end": 3.461057142857143,
      "velocity": 80,
      "role": "harmony",
      "percussion": null
    },
    {
      "pitch": 98,
      "start": 2.880558276643991,
      "end": 3.1243678004535145,
      "velocity": 49,
      "role": "harmony",
      "percussion": null
    },
    {
      "pitch": 55,
      "start": 2.880558276643991,
      "end": 3.1127578231292516,
      "velocity": 74,
      "role": "harmony",
      "percussion": null
    },
    {
      "pitch": 47,
      "start": 2.7296285714285715,
      "end": 2.950218140589569,
      "velocity": 75,
      "role": "harmony",
      "percussion": null
    },
    {
      "pitch": 69,
      "start": 2.659968707482993,
      "end": 3.0895378684807255,
      "velocity": 85,
      "role": "harmony",
      "percussion": null
    },
    {
      "pitch": 62,
      "start": 2.659968707482993,
      "end": 3.1127578231292516,
      "velocity": 62,
      "role": "harmony",
      "percussion": null
    },
    {
      "pitch": 47,
      "start": 2.5206489795918365,
      "end": 2.7296285714285715,
      "velocity": 77,
      "role": "harmony",
      "percussion": null
    },
    {
      "pitch": 62,
      "start": 2.369719274376417,
      "end": 2.659968707482993,
      "velocity": 84,
      "role": "harmony",
      "percussion": null
    },
    {
      "pitch": 86,
      "start": 2.2071795918367347,
      "end": 2.3813292517006803,
      "velocity": 55,
      "role": "harmony",
      "percussion": null
    },
    {
      "pitch": 62,
      "start": 2.2071795918367347,
      "end": 2.369719274376417,
      "velocity": 94,
      "role": "harmony",
      "percussion": null
    },
    {
      "pitch": 47,
      "start": 2.125909750566893,
      "end": 2.5206489795918365,
      "velocity": 47,
      "role": "harmony",
      "percussion": null
    },
    {
      "pitch": 62,
      "start": 1.986590022675737,
      "end": 2.2071795918367347,
      "velocity": 59,
      "role": "harmony",
      "percussion": null
    },
    {
      "pitch": 60,
      "start": 1.9853061224489796,
      "end": 2.1607396825396825,
      "velocity": 56,
      "role": "harmony",
      "percussion": null
    },
    {
      "pitch": 69,
      "start": 1.7763265306122449,
      "end": 2.125909750566893,
      "velocity": 84,
      "role": "harmony",
      "percussion": null
    },
    {
      "pitch": 62,
      "start": 1.7647165532879818,
      "end": 1.986590022675737,
      "velocity": 71,
      "role": "harmony",
      "percussion": null
    },
    {
      "pitch": 48,
      "start": 1.7647165532879818,
      "end": 2.021419954648526,
      "velocity": 49,
      "role": "harmony",
      "percussion": null
    },
    {
      "pitch": 43,
      "start": 1.3815873015873017,
      "end": 1.6950566893424037,
      "velocity": 54,
      "role": "harmony",
      "percussion": null
    },
    {
      "pitch": 48,
      "start": 1.3235374149659864,
      "end": 1.6253968253968254,
      "velocity": 49,
      "role": "harmony",
      "percussion": null
    },
    {
      "pitch": 43,
      "start": 1.1609977324263039,
      "end": 1.3815873015873017,
      "velocity": 96,
      "role": "harmony",
      "percussion": null
    },
    {
      "pitch": 64,
      "start": 1.1377777777777778,
      "end": 1.509297052154195,
      "velocity": 77,
      "role": "harmony",
      "percussion": null
    },
    {
      "pitch": 48,
      "start": 1.1261678004535147,
      "end": 1.3235374149659864,
      "velocity": 58,
      "role": "harmony",
      "percussion": null
    },
    {
      "pitch": 64,
      "start": 0.9868480725623583,
      "end": 1.1377777777777778,
      "velocity": 62,
      "role": "harmony",
      "percussion": null
    },
    {
      "pitch": 43,
      "start": 0.9752380952380952,
      "end": 1.1609977324263039,
      "velocity": 100,
      "role": "harmony",
      "percussion": null
    },
    {
      "pitch": 62,
      "start": 0.6849886621315193,
      "end": 1.0681179138321995,
      "velocity": 48,
      "role": "harmony",
      "percussion": null
    },
    {
      "pitch": 67,
      "start": 0.5340589569160997,
      "end": 0.8243083900226758,
      "velocity": 50,
      "role": "harmony",
      "percussion": null
    },
    {
      "pitch": 62,
      "start": 0.5340589569160997,
      "end": 0.6849886621315193,
      "velocity": 72,
      "role": "harmony",
      "percussion": null
    },
    {
      "pitch": 43,
      "start": 0.4992290249433107,
      "end": 0.9752380952380952,
      "velocity": 79,
      "role": "harmony",
      "percussion": null
    },
    {
      "pitch": 43,
      "start": 0.22058956916099773,
      "end": 0.4992290249433107,
      "velocity": 74,
      "role": "harmony",
      "percussion": null
    },
    {
      "pitch": 45,
      "start": 0.011609977324263039,
      "end": 0.23219954648526078,
      "velocity": 57,
      "role": "harmony",
      "percussion": null
    },
    {
      "pitch": 67,
      "start": 14.300869387755101,
      "end": 14.892978231292517,
      "velocity": 58,
      "role": "harmony",
      "percussion": null
    },
    {
      "pitch": 62,
      "start": 1.509297052154195,
      "end": 1.7531065759637188,
      "velocity": 63,
      "role": "harmony",
      "percussion": null
    },
    {
      "pitch": 57,
      "start": 23.45466712018141,
      "end": 23.908740136054423,
      "velocity": 47,
      "role": "harmony",
      "percussion": null
    },
    {
      "pitch": 52,
      "start": 8.329489342403628,
      "end": 8.747448526077097,
      "velocity": 57,
      "role": "harmony",
      "percussion": null
    },
    {
      "pitch": 38,
      "start": 11.546736961451249,
      "end": 11.802156462585035,
      "velocity": 55,
      "role": "harmony",
      "percussion": null
    },
    {
      "pitch": 43,
      "start": 0.046439909297052155,
      "end": 0.2089795918367347,
      "velocity": 61,
      "role": "harmony",
      "percussion": null
    },
    {
      "pitch": 65,
      "start": 26.77768843537415,
      "end": 27.369797278911566,
      "velocity": 64,
      "role": "harmony",
      "percussion": null
    },
    {
      "pitch": 65,
      "start": 12.592918820861678,
      "end": 12.94121814058957,
      "velocity": 54,
      "role": "harmony",
      "percussion": null
    },
    {
      "pitch": 69,
      "start": 13.277907482993198,
      "end": 13.55654693877551,
      "velocity": 61,
      "role": "harmony",
      "percussion": null
    },
    {
      "pitch": 43,
      "start": 14.556288888888888,
      "end": 14.90458820861678,
      "velocity": 51,
      "role": "harmony",
      "percussion": null
    },
    {
      "pitch": 62,
      "start": 14.567898866213152,
      "end": 14.742048526077097,
      "velocity": 54,
      "role": "harmony",
      "percussion": null
    },
    {
      "pitch": 62,
      "start": 0.034829931972789115,
      "end": 0.5224489795918368,
      "velocity": 45,
      "role": "harmony",
      "percussion": null
    },
    {
      "pitch": 57,
      "start": 9.478877097505668,
      "end": 9.664636734693877,
      "velocity": 54,
      "role": "harmony",
      "percussion": null
    },
    {
      "pitch": 60,
      "start": 15.95077006802721,
      "end": 16.159749659863945,
      "velocity": 52,
      "role": "harmony",
      "percussion": null
    },
    {
      "pitch": 61,
      "start": 23.31534739229025,
      "end": 23.73330657596372,
      "velocity": 50,
      "role": "harmony",
      "percussion": null
    },
    {
      "pitch": 50,
      "start": 22.676798639455782,
      "end": 22.839338321995466,
      "velocity": 50,
      "role": "harmony",
      "percussion": null
    },
    {
      "pitch": 50,
      "start": 9.687856689342404,
      "end": 9.82717641723356,
      "velocity": 53,
      "role": "harmony",
      "percussion": null
    },
    {
      "pitch": 55,
      "start": 10.339299319727893,
      "end": 10.49022902494331,
      "velocity": 50,
      "role": "harmony",
      "percussion": null
    },
    {
      "pitch": 71,
      "start": 16.368729251700678,
      "end": 16.658978684807256,
      "velocity": 48,
      "role": "harmony",
      "percussion": null
    },
    {
      "pitch": 61,
      "start": 25.837280272108842,
      "end": 25.988209977324264,
      "velocity": 50,
      "role": "harmony",
      "percussion": null
    },
    {
      "pitch": 57,
      "start": 10.130319727891157,
      "end": 10.5250589569161,
      "velocity": 48,
      "role": "harmony",
      "percussion": null
    },
    {
      "pitch": 69,
      "start": 13.753916553287983,
      "end": 13.999009977324263,
      "velocity": 41,
      "role": "harmony",
      "percussion": null
    },
    {
      "pitch": 52,
      "start": 25.673456689342405,
      "end": 26.01142993197279,
      "velocity": 49,
      "role": "harmony",
      "percussion": null
    },
    {
      "pitch": 62,
      "start": 21.293927437641724,
      "end": 21.5841768707483,
      "velocity": 42,
      "role": "harmony",
      "percussion": null
    },
    {
      "pitch": 53,
      "start": 7.910246258503402,
      "end": 8.062459863945579,
      "velocity": 48,
      "role": "harmony",
      "percussion": null
    },
    {
      "pitch": 55,
      "start": 11.372587301587302,
      "end": 11.697666666666667,
      "velocity": 45,
      "role": "harmony",
      "percussion": null
    },
    {
      "pitch": 86,
      "start": 5.552136961451247,
      "end": 5.795946485260771,
      "velocity": 45,
      "role": "harmony",
      "percussion": null
    },
    {
      "pitch": 60,
      "start": 16.357119274376416,
      "end": 16.5196589569161,
      "velocity": 48,
      "role": "harmony",
      "percussion": null
    },
    {
      "pitch": 86,
      "start": 20.28385941043084,
      "end": 20.446399092970523,
      "velocity": 45,
      "role": "harmony",
      "percussion": null
    },
    {
      "pitch": 38,
      "start": 10.850138321995466,
      "end": 11.012678004535148,
      "velocity": 45,
      "role": "harmony",
      "percussion": null
    },
    {
      "pitch": 67,
      "start": 26.92861814058957,
      "end": 27.369797278911566,
      "velocity": 41,
      "role": "harmony",
      "percussion": null
    },
    {
      "pitch": 50,
      "start": 11.778936507936509,
      "end": 12.233009523809525,
      "velocity": 38,
      "role": "harmony",
      "percussion": null
    },
    {
      "pitch": 72,
      "start": 29.5769768707483,
      "end": 29.785956462585034,
      "velocity": 37,
      "role": "harmony",
      "percussion": null
    },
    {
      "pitch": 62,
      "start": 22.247229478458053,
      "end": 22.432989115646258,
      "velocity": 37,
      "role": "harmony",
      "percussion": null
    },
    {
      "pitch": 55,
      "start": 19.272507482993195,
      "end": 19.423437188208617,
      "velocity": 36,
      "role": "harmony",
      "percussion": null
    },
    {
      "pitch": 24,
      "start": 0.3599092970521542,
      "end": 0.5804988662131519,
      "velocity": 37,
      "role": "bass",
      "percussion": null
    },
    {
      "pitch": 31,
      "start": 1.3003174603174603,
      "end": 2.938608163265306,
      "velocity": 38,
      "role": "bass",
      "percussion": null
    },
    {
      "pitch": 43,
      "start": 2.4277691609977325,
      "end": 2.6019188208616777,
      "velocity": 33,
      "role": "bass",
      "percussion": null
    },
    {
      "pitch": 31,
      "start": 3.3101274376417233,
      "end": 3.902236281179138,
      "velocity": 65,
      "role": "bass",
      "percussion": null
    },
    {
      "pitch": 29,
      "start": 4.019619954648526,
      "end": 4.193769614512472,
      "velocity": 54,
      "role": "bass",
      "percussion": null
    },
    {
      "pitch": 31,
      "start": 4.286649433106576,
      "end": 4.727828571428571,
      "velocity": 63,
      "role": "bass",
      "percussion": null
    },
    {
      "pitch": 26,
      "start": 5.215447619047619,
      "end": 5.4360371882086165,
      "velocity": 45,
      "role": "bass",
      "percussion": null
    },
    {
      "pitch": 26,
      "start": 5.645016780045351,
      "end": 5.888826303854875,
      "velocity": 52,
      "role": "bass",
      "percussion": null
    },
    {
      "pitch": 26,
      "start": 6.11069977324263,
      "end": 6.2732394557823135,
      "velocity": 49,
      "role": "bass",
      "percussion": null
    },
    {
      "pitch": 24,
      "start": 7.7128766439909295,
      "end": 7.910246258503402,
      "velocity": 47,
      "role": "bass",
      "percussion": null
    },
    {
      "pitch": 38,
      "start": 8.770668480725623,
      "end": 8.979648072562357,
      "velocity": 38,
      "role": "bass",
      "percussion": null
    },
    {
      "pitch": 26,
      "start": 8.828718367346939,
      "end": 9.850396371882086,
      "velocity": 53,
      "role": "bass",
      "percussion": null
    },
    {
      "pitch": 38,
      "start": 9.931666213151926,
      "end": 10.083879818594106,
      "velocity": 50,
      "role": "bass",
      "percussion": null
    },
    {
      "pitch": 38,
      "start": 11.221657596371882,
      "end": 11.419027210884355,
      "velocity": 35,
      "role": "bass",
      "percussion": null
    },
    {
      "pitch": 26,
      "start": 12.29105941043084,
      "end": 12.662578684807256,
      "velocity": 47,
      "role": "bass",
      "percussion": null
    },
    {
      "pitch": 26,
      "start": 12.813508390022676,
      "end": 13.103757823129252,
      "velocity": 53,
      "role": "bass",
      "percussion": null
    },
    {
      "pitch": 26,
      "start": 13.32434739229025,
      "end": 13.533326984126985,
      "velocity": 51,
      "role": "bass",
      "percussion": null
    },
    {
      "pitch": 24,
      "start": 14.405359183673468,
      "end": 14.649168707482993,
      "velocity": 46,
      "role": "bass",
      "percussion": null
    },
    {
      "pitch": 24,
      "start": 14.927808163265306,
      "end": 15.28771746031746,
      "velocity": 44,
      "role": "bass",
      "percussion": null
    },
    {
      "pitch": 31,
      "start": 16.03203990929705,
      "end": 17.332357369614513,
      "velocity": 79,
      "role": "bass",
      "percussion": null
    },
    {
      "pitch": 29,
      "start": 17.47167709750567,
      "end": 17.727096598639456,
      "velocity": 55,
      "role": "bass",
      "percussion": null
    },
    {
      "pitch": 31,
      "start": 17.81997641723356,
      "end": 18.239219501133785,
      "velocity": 58,
      "role": "bass",
      "percussion": null
    },
    {
      "pitch": 29,
      "start": 18.21599954648526,
      "end": 18.36692925170068,
      "velocity": 45,
      "role": "bass",
      "percussion": null
    },
    {
      "pitch": 31,
      "start": 18.494639002267572,
      "end": 18.796498412698412,
      "velocity": 53,
      "role": "bass",
      "percussion": null
    },
    {
      "pitch": 34,
      "start": 19.574366893424035,
      "end": 20.89918820861678,
      "velocity": 66,
      "role": "bass",
      "percussion": null
    },
    {
      "pitch": 34,
      "start": 21.61900680272109,
      "end": 22.36332925170068,
      "velocity": 64,
      "role": "bass",
      "percussion": null
    },
    {
      "pitch": 34,
      "start": 22.96704807256236,
      "end": 23.2689074829932,
      "velocity": 75,
      "role": "bass",
      "percussion": null
    },
    {
      "pitch": 46,
      "start": 22.978658049886622,
      "end": 23.141197732426306,
      "velocity": 41,
      "role": "bass",
      "percussion": null
    },
    {
      "pitch": 33,
      "start": 23.2689074829932,
      "end": 24.58211882086168,
      "velocity": 69,
      "role": "bass",
      "percussion": null
    },
    {
      "pitch": 33,
      "start": 25.685066666666668,
      "end": 25.895330158730157,
      "velocity": 43,
      "role": "bass",
      "percussion": null
    },
    {
      "pitch": 31,
      "start": 26.24362947845805,
      "end": 26.7312485260771,
      "velocity": 56,
      "role": "bass",
      "percussion": null
    },
    {
      "pitch": 29,
      "start": 26.77768843537415,
      "end": 28.10250975056689,
      "velocity": 72,
      "role": "bass",
      "percussion": null
    },
    {
      "pitch": 29,
      "start": 28.381149206349207,
      "end": 28.62495873015873,
      "velocity": 62,
      "role": "bass",
      "percussion": null
    },
    {
      "pitch": 38,
      "start": 0.37151927437641724,
      "end": 0.42151927437641723,
      "velocity": 19,
      "role": "percussion",
      "percussion": "snare"
    },
    {
      "pitch": 38,
      "start": 0.592108843537415,
      "end": 0.642108843537415,
      "velocity": 7,
      "role": "percussion",
      "percussion": "kick"
    },
    {
      "pitch": 38,
      "start": 1.486077097505669,
      "end": 1.536077097505669,
      "velocity": 1,
      "role": "percussion",
      "percussion": "snare"
    },
    {
      "pitch": 38,
      "start": 1.7531065759637188,
      "end": 1.8031065759637188,
      "velocity": 16,
      "role": "percussion",
      "percussion": "hat"
    },
    {
      "pitch": 38,
      "start": 1.9736961451247166,
      "end": 2.0236961451247164,
      "velocity": 6,
      "role": "percussion",
      "percussion": "hat"
    },
    {
      "pitch": 38,
      "start": 2.182675736961451,
      "end": 2.232675736961451,
      "velocity": 44,
      "role": "percussion",
      "percussion": "snare"
    },
    {
      "pitch": 38,
      "start": 2.391655328798186,
      "end": 2.441655328798186,
      "velocity": 6,
      "role": "percussion",
      "percussion": "kick"
    },
    {
      "pitch": 38,
      "start": 3.320453514739229,
      "end": 3.370453514739229,
      "velocity": 76,
      "role": "percussion",
      "percussion": "snare"
    },
    {
      "pitch": 38,
      "start": 3.5294331065759637,
      "end": 3.5794331065759635,
      "velocity": 29,
      "role": "percussion",
      "percussion": "kick"
    },
    {
      "pitch": 38,
      "start": 3.982222222222222,
      "end": 4.032222222222222,
      "velocity": 26,
      "role": "percussion",
      "percussion": "hat"
    },
    {
      "pitch": 38,
      "start": 4.20281179138322,
      "end": 4.25281179138322,
      "velocity": 11,
      "role": "percussion",
      "percussion": "kick"
    },
    {
      "pitch": 38,
      "start": 4.446621315192743,
      "end": 4.496621315192743,
      "velocity": 6,
      "role": "percussion",
      "percussion": "kick"
    },
    {
      "pitch": 38,
      "start": 5.143219954648526,
      "end": 5.193219954648526,
      "velocity": 98,
      "role": "percussion",
      "percussion": "kick"
    },
    {
      "pitch": 38,
      "start": 5.352199546485261,
      "end": 5.402199546485261,
      "velocity": 24,
      "role": "percussion",
      "percussion": "kick"
    },
    {
      "pitch": 38,
      "start": 5.561179138321996,
      "end": 5.6111791383219956,
      "velocity": 23,
      "role": "percussion",
      "percussion": "kick"
    },
    {
      "pitch": 38,
      "start": 5.793378684807256,
      "end": 5.843378684807256,
      "velocity": 63,
      "role": "percussion",
      "percussion": "snare"
    },
    {
      "pitch": 38,
      "start": 6.03718820861678,
      "end": 6.08718820861678,
      "velocity": 83,
      "role": "percussion",
      "percussion": "snare"
    },
    {
      "pitch": 38,
      "start": 6.896326530612245,
      "end": 6.946326530612245,
      "velocity": 1,
      "role": "percussion",
      "percussion": "snare"
    },
    {
      "pitch": 38,
      "start": 7.058866213151927,
      "end": 7.108866213151927,
      "velocity": 21,
      "role": "percussion",
      "percussion": "kick"
    },
    {
      "pitch": 38,
      "start": 7.151746031746032,
      "end": 7.201746031746032,
      "velocity": 31,
      "role": "percussion",
      "percussion": "snare"
    },
    {
      "pitch": 38,
      "start": 7.395555555555555,
      "end": 7.445555555555555,
      "velocity": 7,
      "role": "percussion",
      "percussion": "hat"
    },
    {
      "pitch": 38,
      "start": 7.581315192743764,
      "end": 7.631315192743764,
      "velocity": 1,
      "role": "percussion",
      "percussion": "hat"
    },
    {
      "pitch": 38,
      "start": 7.743854875283446,
      "end": 7.793854875283446,
      "velocity": 18,
      "role": "percussion",
      "percussion": "snare"
    },
    {
      "pitch": 38,
      "start": 7.836734693877551,
      "end": 7.886734693877551,
      "velocity": 94,
      "role": "percussion",
      "percussion": "snare"
    },
    {
      "pitch": 38,
      "start": 8.277913832199546,
      "end": 8.327913832199547,
      "velocity": 7,
      "role": "percussion",
      "percussion": "hat"
    },
    {
      "pitch": 38,
      "start": 8.719092970521542,
      "end": 8.769092970521543,
      "velocity": 30,
      "role": "percussion",
      "percussion": "snare"
    },
    {
      "pitch": 38,
      "start": 8.951292517006802,
      "end": 9.001292517006803,
      "velocity": 16,
      "role": "percussion",
      "percussion": "kick"
    },
    {
      "pitch": 38,
      "start": 9.183492063492064,
      "end": 9.233492063492065,
      "velocity": 33,
      "role": "percussion",
      "percussion": "snare"
    },
    {
      "pitch": 38,
      "start": 9.404081632653062,
      "end": 9.454081632653063,
      "velocity": 73,
      "role": "percussion",
      "percussion": "snare"
    },
    {
      "pitch": 38,
      "start": 9.636281179138322,
      "end": 9.686281179138323,
      "velocity": 103,
      "role": "percussion",
      "percussion": "snare"
    },
    {
      "pitch": 38,
      "start": 9.845260770975056,
      "end": 9.895260770975057,
      "velocity": 2,
      "role": "percussion",
      "percussion": "hat"
    },
    {
      "pitch": 38,
      "start": 10.08907029478458,
      "end": 10.139070294784581,
      "velocity": 9,
      "role": "percussion",
      "percussion": "hat"
    },
    {
      "pitch": 38,
      "start": 10.298049886621316,
      "end": 10.348049886621316,
      "velocity": 1,
      "role": "percussion",
      "percussion": "hat"
    },
    {
      "pitch": 38,
      "start": 10.518639455782314,
      "end": 10.568639455782314,
      "velocity": 2,
      "role": "percussion",
      "percussion": "snare"
    },
    {
      "pitch": 38,
      "start": 10.65795918367347,
      "end": 10.70795918367347,
      "velocity": 20,
      "role": "percussion",
      "percussion": "kick"
    },
    {
      "pitch": 38,
      "start": 10.739229024943311,
      "end": 10.789229024943312,
      "velocity": 12,
      "role": "percussion",
      "percussion": "kick"
    },
    {
      "pitch": 38,
      "start": 10.994648526077098,
      "end": 11.044648526077099,
      "velocity": 10,
      "role": "percussion",
      "percussion": "hat"
    },
    {
      "pitch": 38,
      "start": 11.19201814058957,
      "end": 11.24201814058957,
      "velocity": 2,
      "role": "percussion",
      "percussion": "hat"
    },
    {
      "pitch": 38,
      "start": 11.354557823129252,
      "end": 11.404557823129252,
      "velocity": 24,
      "role": "percussion",
      "percussion": "kick"
    },
    {
      "pitch": 38,
      "start": 11.447437641723356,
      "end": 11.497437641723357,
      "velocity": 127,
      "role": "percussion",
      "percussion": "snare"
    },
    {
      "pitch": 38,
      "start": 11.69124716553288,
      "end": 11.741247165532881,
      "velocity": 10,
      "role": "percussion",
      "percussion": "hat"
    },
    {
      "pitch": 38,
      "start": 11.900226757369614,
      "end": 11.950226757369615,
      "velocity": 7,
      "role": "percussion",
      "percussion": "hat"
    },
    {
      "pitch": 38,
      "start": 12.120816326530612,
      "end": 12.170816326530613,
      "velocity": 11,
      "role": "percussion",
      "percussion": "hat"
    },
    {
      "pitch": 38,
      "start": 12.318185941043083,
      "end": 12.368185941043084,
      "velocity": 7,
      "role": "percussion",
      "percussion": "hat"
    },
    {
      "pitch": 38,
      "start": 12.469115646258503,
      "end": 12.519115646258504,
      "velocity": 34,
      "role": "percussion",
      "percussion": "kick"
    },
    {
      "pitch": 38,
      "start": 12.57360544217687,
      "end": 12.62360544217687,
      "velocity": 18,
      "role": "percussion",
      "percussion": "kick"
    },
    {
      "pitch": 38,
      "start": 12.782585034013605,
      "end": 12.832585034013606,
      "velocity": 25,
      "role": "percussion",
      "percussion": "kick"
    },
    {
      "pitch": 38,
      "start": 13.014784580498866,
      "end": 13.064784580498866,
      "velocity": 64,
      "role": "percussion",
      "percussion": "snare"
    },
    {
      "pitch": 38,
      "start": 13.235374149659863,
      "end": 13.285374149659864,
      "velocity": 87,
      "role": "percussion",
      "percussion": "kick"
    },
    {
      "pitch": 38,
      "start": 13.815873015873017,
      "end": 13.865873015873017,
      "velocity": 2,
      "role": "percussion",
      "percussion": "hat"
    },
    {
      "pitch": 38,
      "start": 13.920362811791383,
      "end": 13.970362811791384,
      "velocity": 1,
      "role": "percussion",
      "percussion": "hat"
    },
    {
      "pitch": 38,
      "start": 14.140952380952381,
      "end": 14.190952380952382,
      "velocity": 58,
      "role": "percussion",
      "percussion": "hat"
    },
    {
      "pitch": 38,
      "start": 14.280272108843537,
      "end": 14.330272108843538,
      "velocity": 23,
      "role": "percussion",
      "percussion": "kick"
    },
    {
      "pitch": 38,
      "start": 14.338321995464852,
      "end": 14.388321995464853,
      "velocity": 12,
      "role": "percussion",
      "percussion": "kick"
    },
    {
      "pitch": 38,
      "start": 14.814331065759637,
      "end": 14.864331065759638,
      "velocity": 42,
      "role": "percussion",
      "percussion": "hat"
    },
    {
      "pitch": 38,
      "start": 14.94204081632653,
      "end": 14.992040816326531,
      "velocity": 21,
      "role": "percussion",
      "percussion": "kick"
    },
    {
      "pitch": 38,
      "start": 15.034920634920635,
      "end": 15.084920634920636,
      "velocity": 94,
      "role": "percussion",
      "percussion": "hat"
    },
    {
      "pitch": 38,
      "start": 15.928888888888888,
      "end": 15.97888888888889,
      "velocity": 3,
      "role": "percussion",
      "percussion": "snare"
    },
    {
      "pitch": 38,
      "start": 16.07981859410431,
      "end": 16.12981859410431,
      "velocity": 31,
      "role": "percussion",
      "percussion": "kick"
    },
    {
      "pitch": 38,
      "start": 16.172698412698413,
      "end": 16.222698412698414,
      "velocity": 13,
      "role": "percussion",
      "percussion": "kick"
    },
    {
      "pitch": 38,
      "start": 16.39328798185941,
      "end": 16.44328798185941,
      "velocity": 24,
      "role": "percussion",
      "percussion": "kick"
    },
    {
      "pitch": 38,
      "start": 16.62548752834467,
      "end": 16.67548752834467,
      "velocity": 83,
      "role": "percussion",
      "percussion": "snare"
    },
    {
      "pitch": 38,
      "start": 16.857687074829933,
      "end": 16.907687074829933,
      "velocity": 81,
      "role": "percussion",
      "percussion": "snare"
    },
    {
      "pitch": 38,
      "start": 17.101496598639457,
      "end": 17.151496598639458,
      "velocity": 1,
      "role": "percussion",
      "percussion": "hat"
    },
    {
      "pitch": 38,
      "start": 17.31047619047619,
      "end": 17.36047619047619,
      "velocity": 8,
      "role": "percussion",
      "percussion": "hat"
    },
    {
      "pitch": 38,
      "start": 17.740045351473924,
      "end": 17.790045351473925,
      "velocity": 14,
      "role": "percussion",
      "percussion": "snare"
    },
    {
      "pitch": 38,
      "start": 17.890975056689342,
      "end": 17.940975056689343,
      "velocity": 22,
      "role": "percussion",
      "percussion": "kick"
    },
    {
      "pitch": 38,
      "start": 17.96063492063492,
      "end": 18.01063492063492,
      "velocity": 13,
      "role": "percussion",
      "percussion": "kick"
    },
    {
      "pitch": 38,
      "start": 18.204444444444444,
      "end": 18.254444444444445,
      "velocity": 9,
      "role": "percussion",
      "percussion": "kick"
    },
    {
      "pitch": 38,
      "start": 18.436643990929706,
      "end": 18.486643990929707,
      "velocity": 94,
      "role": "percussion",
      "percussion": "snare"
    },
    {
      "pitch": 38,
      "start": 18.657233560090702,
      "end": 18.707233560090703,
      "velocity": 122,
      "role": "percussion",
      "percussion": "snare"
    },
    {
      "pitch": 38,
      "start": 18.901043083900227,
      "end": 18.951043083900228,
      "velocity": 14,
      "role": "percussion",
      "percussion": "hat"
    },
    {
      "pitch": 38,
      "start": 19.121632653061223,
      "end": 19.171632653061224,
      "velocity": 13,
      "role": "percussion",
      "percussion": "hat"
    },
    {
      "pitch": 38,
      "start": 19.353832199546485,
      "end": 19.403832199546486,
      "velocity": 12,
      "role": "percussion",
      "percussion": "hat"
    },
    {
      "pitch": 38,
      "start": 19.574421768707484,
      "end": 19.624421768707485,
      "velocity": 86,
      "role": "percussion",
      "percussion": "kick"
    },
    {
      "pitch": 38,
      "start": 19.806621315192743,
      "end": 19.856621315192744,
      "velocity": 20,
      "role": "percussion",
      "percussion": "hat"
    },
    {
      "pitch": 38,
      "start": 20.027210884353742,
      "end": 20.077210884353743,
      "velocity": 18,
      "role": "percussion",
      "percussion": "hat"
    },
    {
      "pitch": 38,
      "start": 20.224580498866214,
      "end": 20.274580498866214,
      "velocity": 38,
      "role": "percussion",
      "percussion": "snare"
    },
    {
      "pitch": 38,
      "start": 20.468390022675738,
      "end": 20.51839002267574,
      "velocity": 87,
      "role": "percussion",
      "percussion": "snare"
    },
    {
      "pitch": 38,
      "start": 20.688979591836734,
      "end": 20.738979591836735,
      "velocity": 8,
      "role": "percussion",
      "percussion": "snare"
    },
    {
      "pitch": 38,
      "start": 20.921179138321996,
      "end": 20.971179138321997,
      "velocity": 13,
      "role": "percussion",
      "percussion": "snare"
    },
    {
      "pitch": 38,
      "start": 21.153378684807254,
      "end": 21.203378684807255,
      "velocity": 32,
      "role": "percussion",
      "percussion": "kick"
    },
    {
      "pitch": 38,
      "start": 21.36235827664399,
      "end": 21.412358276643992,
      "velocity": 70,
      "role": "percussion",
      "percussion": "snare"
    },
    {
      "pitch": 38,
      "start": 21.571337868480725,
      "end": 21.621337868480726,
      "velocity": 10,
      "role": "percussion",
      "percussion": "kick"
    },
    {
      "pitch": 38,
      "start": 21.81514739229025,
      "end": 21.86514739229025,
      "velocity": 10,
      "role": "percussion",
      "percussion": "hat"
    },
    {
      "pitch": 38,
      "start": 21.908027210884352,
      "end": 21.958027210884353,
      "velocity": 4,
      "role": "percussion",
      "percussion": "kick"
    },
    {
      "pitch": 38,
      "start": 22.024126984126983,
      "end": 22.074126984126984,
      "velocity": 29,
      "role": "percussion",
      "percussion": "kick"
    },
    {
      "pitch": 38,
      "start": 22.256326530612245,
      "end": 22.306326530612246,
      "velocity": 83,
      "role": "percussion",
      "percussion": "hat"
    },
    {
      "pitch": 38,
      "start": 22.627845804988663,
      "end": 22.677845804988664,
      "velocity": 3,
      "role": "percussion",
      "percussion": "snare"
    },
    {
      "pitch": 38,
      "start": 22.709115646258503,
      "end": 22.759115646258504,
      "velocity": 27,
      "role": "percussion",
      "percussion": "snare"
    },
    {
      "pitch": 38,
      "start": 23.138684807256237,
      "end": 23.188684807256237,
      "velocity": 1,
      "role": "percussion",
      "percussion": "snare"
    },
    {
      "pitch": 38,
      "start": 23.359274376417233,
      "end": 23.409274376417233,
      "velocity": 12,
      "role": "percussion",
      "percussion": "kick"
    },
    {
      "pitch": 38,
      "start": 23.61469387755102,
      "end": 23.66469387755102,
      "velocity": 20,
      "role": "percussion",
      "percussion": "snare"
    },
    {
      "pitch": 38,
      "start": 23.84689342403628,
      "end": 23.896893424036282,
      "velocity": 92,
      "role": "percussion",
      "percussion": "snare"
    },
    {
      "pitch": 38,
      "start": 24.067482993197277,
      "end": 24.117482993197278,
      "velocity": 87,
      "role": "percussion",
      "percussion": "snare"
    },
    {
      "pitch": 38,
      "start": 24.29968253968254,
      "end": 24.34968253968254,
      "velocity": 1,
      "role": "percussion",
      "percussion": "snare"
    },
    {
      "pitch": 38,
      "start": 24.52027210884354,
      "end": 24.57027210884354,
      "velocity": 25,
      "role": "percussion",
      "percussion": "snare"
    },
    {
      "pitch": 38,
      "start": 24.740861678004535,
      "end": 24.790861678004536,
      "velocity": 30,
      "role": "percussion",
      "percussion": "snare"
    },
    {
      "pitch": 38,
      "start": 24.938231292517006,
      "end": 24.988231292517007,
      "velocity": 9,
      "role": "percussion",
      "percussion": "kick"
    },
    {
      "pitch": 38,
      "start": 25.205260770975055,
      "end": 25.255260770975056,
      "velocity": 105,
      "role": "percussion",
      "percussion": "snare"
    },
    {
      "pitch": 38,
      "start": 25.391020408163264,
      "end": 25.441020408163265,
      "velocity": 33,
      "role": "percussion",
      "percussion": "kick"
    },
    {
      "pitch": 38,
      "start": 25.658049886621317,
      "end": 25.708049886621318,
      "velocity": 108,
      "role": "percussion",
      "percussion": "kick"
    },
    {
      "pitch": 38,
      "start": 25.855419501133788,
      "end": 25.90541950113379,
      "velocity": 32,
      "role": "percussion",
      "percussion": "kick"
    },
    {
      "pitch": 38,
      "start": 25.971519274376416,
      "end": 26.021519274376416,
      "velocity": 38,
      "role": "percussion",
      "percussion": "kick"
    },
    {
      "pitch": 38,
      "start": 26.226938775510202,
      "end": 26.276938775510203,
      "velocity": 55,
      "role": "percussion",
      "percussion": "snare"
    },
    {
      "pitch": 38,
      "start": 26.55201814058957,
      "end": 26.60201814058957,
      "velocity": 76,
      "role": "percussion",
      "percussion": "kick"
    },
    {
      "pitch": 38,
      "start": 26.78421768707483,
      "end": 26.83421768707483,
      "velocity": 108,
      "role": "percussion",
      "percussion": "snare"
    },
    {
      "pitch": 38,
      "start": 27.225396825396825,
      "end": 27.275396825396825,
      "velocity": 117,
      "role": "percussion",
      "percussion": "kick"
    },
    {
      "pitch": 38,
      "start": 27.457596371882087,
      "end": 27.507596371882087,
      "velocity": 38,
      "role": "percussion",
      "percussion": "snare"
    },
    {
      "pitch": 38,
      "start": 27.68979591836735,
      "end": 27.73979591836735,
      "velocity": 90,
      "role": "percussion",
      "percussion": "snare"
    },
    {
      "pitch": 38,
      "start": 27.910385487528345,
      "end": 27.960385487528345,
      "velocity": 32,
      "role": "percussion",
      "percussion": "snare"
    },
    {
      "pitch": 38,
      "start": 28.11936507936508,
      "end": 28.16936507936508,
      "velocity": 40,
      "role": "percussion",
      "percussion": "snare"
    },
    {
      "pitch": 38,
      "start": 28.35156462585034,
      "end": 28.40156462585034,
      "velocity": 53,
      "role": "percussion",
      "percussion": "snare"
    },
    {
      "pitch": 38,
      "start": 28.572154195011336,
      "end": 28.622154195011337,
      "velocity": 74,
      "role": "percussion",
      "percussion": "snare"
    },
    {
      "pitch": 38,
      "start": 28.804353741496598,
      "end": 28.8543537414966,
      "velocity": 86,
      "role": "percussion",
      "percussion": "snare"
    },
    {
      "pitch": 38,
      "start": 29.03655328798186,
      "end": 29.08655328798186,
      "velocity": 29,
      "role": "percussion",
      "percussion": "hat"
    },
    {
      "pitch": 38,
      "start": 29.141043083900225,
      "end": 29.191043083900226,
      "velocity": 95,
      "role": "percussion",
      "percussion": "snare"
    },
    {
      "pitch": 38,
      "start": 29.23392290249433,
      "end": 29.283922902494332,
      "velocity": 33,
      "role": "percussion",
      "percussion": "kick"
    },
    {
      "pitch": 38,
      "start": 29.466122448979593,
      "end": 29.516122448979594,
      "velocity": 30,
      "role": "percussion",
      "percussion": "hat"
    },
    {
      "pitch": 38,
      "start": 29.91891156462585,
      "end": 29.968911564625852,
      "velocity": 22,
      "role": "percussion",
      "percussion": "snare"
    }
  ]
}