{
  "tempo": {
    "bpm": 99.38401442307692,
    "offset": 1.3467573696145125,
    "beats_per_bar": 4
  },
  "duration": 21.981402267573706,
  "notes": [
    {
      "pitch": 38,
      "start": 0.0,
      "end": 0.13885532879818596,
      "velocity": 100,
      "role": "bass",
      "percussion": null
    },
    {
      "pitch": 38,
      "start": 0.0,
      "end": 0.13885532879818596,
      "velocity": 100,
      "role": "percussion",
      "percussion": "kick"
    },
    {
      "pitch": 57,
      "start": 0.0,
      "end": 0.13885532879818596,
      "velocity": 100,
      "role": "harmony",
      "percussion": null
    },
    {
      "pitch": 62,
      "start": 0.0,
      "end": 0.13885532879818596,
      "velocity": 100,
      "role": "lead",
      "percussion": null
    },
    {
      "pitch": 38,
      "start": 0.13885532879818596,
      "end": 0.4165659863945579,
      "velocity": 100,
      "role": "percussion",
      "percussion": "snare"
    },
    {
      "pitch": 72,
      "start": 0.13885532879818596,
      "end": 0.2777106575963719,
      "velocity": 100,
      "role": "lead",
      "percussion": null
    },
    {
      "pitch": 67,
      "start": 0.2777106575963719,
      "end": 0.4165659863945579,
      "velocity": 100,
      "role": "lead",
      "percussion": null
    },
    {
      "pitch": 38,
      "start": 0.4165659863945579,
      "end": 0.5554213151927438,
      "velocity": 100,
      "role": "percussion",
      "percussion": "hat"
    },
    {
      "pitch": 53,
      "start": 0.4165659863945579,
      "end": 0.5554213151927438,
      "velocity": 100,
      "role": "harmony",
      "percussion": null
    },
    {
      "pitch": 69,
      "start": 0.4165659863945579,
      "end": 0.5916444444444445,
      "velocity": 100,
      "role": "lead",
      "percussion": null
    },
    {
      "pitch": 38,
      "start": 0.5554213151927438,
      "end": 0.7304997732426305,
      "velocity": 100,
      "role": "percussion",
      "percussion": "kick"
    },
    {
      "pitch": 70,
      "start": 0.5916444444444445,
      "end": 0.8029460317460319,
      "velocity": 100,
      "role": "lead",
      "percussion": null
    },
    {
      "pitch": 38,
      "start": 0.7304997732426305,
      "end": 1.0565079365079366,
      "velocity": 100,
      "role": "percussion",
      "percussion": "snare"
    },
    {
      "pitch": 57,
      "start": 0.7304997732426305,
      "end": 0.9418013605442178,
      "velocity": 100,
      "role": "harmony",
      "percussion": null
    },
    {
      "pitch": 65,
      "start": 0.8029460317460319,
      "end": 0.9780244897959185,
      "velocity": 100,
      "role": "lead",
      "percussion": null
    },
    {
      "pitch": 64,
      "start": 0.9780244897959185,
      "end": 1.3885532879818596,
      "velocity": 100,
      "role": "lead",
      "percussion": null
    },
    {
      "pitch": 38,
      "start": 1.0202848072562358,
      "end": 1.1953632653061224,
      "velocity": 100,
      "role": "bass",
      "percussion": null
    },
    {
      "pitch": 38,
      "start": 1.0565079365079366,
      "end": 1.207437641723356,
      "velocity": 100,
      "role": "percussion",
      "percussion": "hat"
    },
    {
      "pitch": 53,
      "start": 1.1168798185941045,
      "end": 1.291958276643991,
      "velocity": 100,
      "role": "harmony",
      "percussion": null
    },
    {
      "pitch": 38,
      "start": 1.207437641723356,
      "end": 1.4187392290249434,
      "velocity": 100,
      "role": "percussion",
      "percussion": "kick"
    },
    {
      "pitch": 62,
      "start": 1.3885532879818596,
      "end": 1.6662639455782315,
      "velocity": 100,
      "role": "lead",
      "percussion": null
    },
    {
      "pitch": 38,
      "start": 1.4187392290249434,
      "end": 1.8111564625850343,
      "velocity": 100,
      "role": "percussion",
      "percussion": "snare"
    },
    {
      "pitch": 64,
      "start": 1.6662639455782315,
      "end": 1.817193650793651,
      "velocity": 100,
      "role": "lead",
      "percussion": null
    },
    {
      "pitch": 50,
      "start": 1.7024870748299321,
      "end": 1.980197732426304,
      "velocity": 100,
      "role": "harmony",
      "percussion": null
    },
    {
      "pitch": 38,
      "start": 1.8111564625850343,
      "end": 1.9741605442176873,
      "velocity": 100,
      "role": "percussion",
      "percussion": "hat"
    },
    {
      "pitch": 72,
      "start": 1.817193650793651,
      "end": 1.956048979591837,
      "velocity": 100,
      "role": "lead",
      "percussion": null
    },
    {
      "pitch": 64,
      "start": 1.956048979591837,
      "end": 2.348466213151928,
      "velocity": 100,
      "role": "lead",
      "percussion": null
    },
    {
      "pitch": 38,
      "start": 1.974160544217687,
      "end": 2.149239002267574,
      "velocity": 100,
      "role": "bass",
      "percussion": null
    },
    {
      "pitch": 38,
      "start": 1.9741605442176873,
      "end": 2.251871201814059,
      "velocity": 100,
      "role": "percussion",
      "percussion": "kick"
    },
    {
      "pitch": 53,
      "start": 2.1311274376417235,
      "end": 2.2699827664399095,
      "velocity": 100,
      "role": "harmony",
      "percussion": null
    },
    {
      "pitch": 38,
      "start": 2.251871201814059,
      "end": 2.783143764172336,
      "velocity": 100,
      "role": "percussion",
      "percussion": "snare"
    },
    {
      "pitch": 64,
      "start": 2.348466213151928,
      "end": 2.674474376417234,
      "velocity": 100,
      "role": "lead",
      "percussion": null
    },
    {
      "pitch": 53,
      "start": 2.6624000000000003,
      "end": 2.9884081632653063,
      "velocity": 100,
      "role": "harmony",
      "percussion": null
    },
    {
      "pitch": 67,
      "start": 2.674474376417234,
      "end": 3.2057469387755106,
      "velocity": 100,
      "role": "lead",
      "percussion": null
    },
    {
      "pitch": 38,
      "start": 2.783143764172336,
      "end": 3.1453750566893426,
      "velocity": 100,
      "role": "percussion",
      "percussion": "hat"
    },
    {
      "pitch": 38,
      "start": 3.1453750566893426,
      "end": 3.296304761904762,
      "velocity": 100,
      "role": "percussion",
      "percussion": "kick"
    },
    {
      "pitch": 45,
      "start": 3.163486621315193,
      "end": 3.441197278911565,
      "velocity": 100,
      "role": "bass",
      "percussion": null
    },
    {
      "pitch": 69,
      "start": 3.2057469387755106,
      "end": 3.5679782312925177,
      "velocity": 100,
      "role": "lead",
      "percussion": null
    },
    {
      "pitch": 38,
      "start": 3.296304761904762,
      "end": 3.459308843537415,
      "velocity": 100,
      "role": "percussion",
      "percussion": "snare"
    },
    {
      "pitch": 38,
      "start": 3.459308843537415,
      "end": 3.6585360544217687,
      "velocity": 100,
      "role": "percussion",
      "percussion": "hat"
    },
    {
      "pitch": 57,
      "start": 3.519680725623583,
      "end": 3.88191201814059,
      "velocity": 100,
      "role": "harmony",
      "percussion": null
    },
    {
      "pitch": 64,
      "start": 3.5679782312925177,
      "end": 3.7309823129251707,
      "velocity": 100,
      "role": "lead",
      "percussion": null
    },
    {
      "pitch": 38,
      "start": 3.6585360544217687,
      "end": 3.7973913832199546,
      "velocity": 100,
      "role": "percussion",
      "percussion": "kick"
    },
    {
      "pitch": 67,
      "start": 3.7309823129251707,
      "end": 3.88191201814059,
      "velocity": 100,
      "role": "lead",
      "percussion": null
    },
    {
      "pitch": 45,
      "start": 3.767205442176871,
      "end": 3.9181351473922903,
      "velocity": 100,
      "role": "bass",
      "percussion": null
    },
    {
      "pitch": 38,
      "start": 3.7973913832199546,
      "end": 3.9362467120181406,
      "velocity": 100,
      "role": "percussion",
      "percussion": "snare"
    },
    {
      "pitch": 64,
      "start": 3.88191201814059,
      "end": 4.081139229024944,
      "velocity": 100,
      "role": "lead",
      "percussion": null
    },
    {
      "pitch": 38,
      "start": 3.9362467120181406,
      "end": 4.08717641723356,
      "velocity": 100,
      "role": "percussion",
      "percussion": "hat"
    },
    {
      "pitch": 57,
      "start": 4.044916099773244,
      "end": 4.1958458049886636,
      "velocity": 100,
      "role": "harmony",
      "percussion": null
    },
    {
      "pitch": 62,
      "start": 4.081139229024944,
      "end": 4.21999455782313,
      "velocity": 100,
      "role": "lead",
      "percussion": null
    },
    {
      "pitch": 38,
      "start": 4.08717641723356,
      "end": 4.2501804988662135,
      "velocity": 100,
      "role": "percussion",
      "percussion": "kick"
    },
    {
      "pitch": 72,
      "start": 4.21999455782313,
      "end": 4.358849886621316,
      "velocity": 100,
      "role": "lead",
      "percussion": null
    },
    {
      "pitch": 38,
      "start": 4.2501804988662135,
      "end": 4.413184580498867,
      "velocity": 100,
      "role": "percussion",
      "percussion": "snare"
    },
    {
      "pitch": 45,
      "start": 4.310552380952381,
      "end": 4.636560544217687,
      "velocity": 100,
      "role": "bass",
      "percussion": null
    },
    {
      "pitch": 64,
      "start": 4.358849886621316,
      "end": 4.509779591836736,
      "velocity": 100,
      "role": "lead",
      "percussion": null
    },
    {
      "pitch": 53,
      "start": 4.395073015873018,
      "end": 4.533928344671203,
      "velocity": 100,
      "role": "harmony",
      "percussion": null
    },
    {
      "pitch": 38,
      "start": 4.413184580498867,
      "end": 4.564114285714287,
      "velocity": 100,
      "role": "percussion",
      "percussion": "hat"
    },
    {
      "pitch": 69,
      "start": 4.509779591836736,
      "end": 4.6727836734693895,
      "velocity": 100,
      "role": "lead",
      "percussion": null
    },
    {
      "pitch": 38,
      "start": 4.564114285714287,
      "end": 4.980680272108844,
      "velocity": 100,
      "role": "percussion",
      "percussion": "kick"
    },
    {
      "pitch": 57,
      "start": 4.6727836734693895,
      "end": 4.823713378684809,
      "velocity": 100,
      "role": "harmony",
      "percussion": null
    },
    {
      "pitch": 65,
      "start": 4.6727836734693895,
      "end": 4.823713378684809,
      "velocity": 100,
      "role": "lead",
      "percussion": null
    },
    {
      "pitch": 67,
      "start": 4.823713378684809,
      "end": 5.101424036281181,
      "velocity": 100,
      "role": "lead",
      "percussion": null
    },
    {
      "pitch": 38,
      "start": 4.980680272108844,
      "end": 5.143684353741498,
      "velocity": 100,
      "role": "percussion",
      "percussion": "snare"
    },
    {
      "pitch": 53,
      "start": 4.986717460317463,
      "end": 5.137647165532883,
      "velocity": 100,
      "role": "harmony",
      "percussion": null
    },
    {
      "pitch": 65,
      "start": 5.101424036281181,
      "end": 5.427432199546487,
      "velocity": 100,
      "role": "lead",
      "percussion": null
    },
    {
      "pitch": 38,
      "start": 5.143684353741498,
      "end": 5.282539682539683,
      "velocity": 100,
      "role": "percussion",
      "percussion": "hat"
    },
    {
      "pitch": 45,
      "start": 5.167833106575964,
      "end": 5.5300643990929705,
      "velocity": 100,
      "role": "bass",
      "percussion": null
    },
    {
      "pitch": 38,
      "start": 5.282539682539683,
      "end": 5.825886621315194,
      "velocity": 100,
      "role": "percussion",
      "percussion": "kick"
    },
    {
      "pitch": 57,
      "start": 5.415357823129255,
      "end": 5.741365986394561,
      "velocity": 100,
      "role": "harmony",
      "percussion": null
    },
    {
      "pitch": 62,
      "start": 5.427432199546487,
      "end": 5.614585034013608,
      "velocity": 100,
      "role": "lead",
      "percussion": null
    },
    {
      "pitch": 67,
      "start": 5.614585034013608,
      "end": 5.753440362811794,
      "velocity": 100,
      "role": "lead",
      "percussion": null
    },
    {
      "pitch": 38,
      "start": 5.693068480725624,
      "end": 5.843998185941044,
      "velocity": 100,
      "role": "bass",
      "percussion": null
    },
    {
      "pitch": 62,
      "start": 5.753440362811794,
      "end": 5.964741950113382,
      "velocity": 100,
      "role": "lead",
      "percussion": null
    },
    {
      "pitch": 38,
      "start": 5.825886621315194,
      "end": 6.025113832199548,
      "velocity": 100,
      "role": "percussion",
      "percussion": "snare"
    },
    {
      "pitch": 53,
      "start": 5.928518820861681,
      "end": 6.067374149659868,
      "velocity": 100,
      "role": "harmony",
      "percussion": null
    },
    {
      "pitch": 72,
      "start": 5.964741950113382,
      "end": 6.103597278911568,
      "velocity": 100,
      "role": "lead",
      "percussion": null
    },
    {
      "pitch": 38,
      "start": 6.025113832199548,
      "end": 6.176043537414968,
      "velocity": 100,
      "role": "percussion",
      "percussion": "hat"
    },
    {
      "pitch": 38,
      "start": 6.043225396825398,
      "end": 6.1820807256235835,
      "velocity": 100,
      "role": "bass",
      "percussion": null
    },
    {
      "pitch": 67,
      "start": 6.103597278911568,
      "end": 6.242452607709755,
      "velocity": 100,
      "role": "lead",
      "percussion": null
    },
    {
      "pitch": 38,
      "start": 6.176043537414968,
      "end": 6.3269732426303875,
      "velocity": 100,
      "role": "percussion",
      "percussion": "kick"
    },
    {
      "pitch": 57,
      "start": 6.206229478458054,
      "end": 6.393382312925175,
      "velocity": 100,
      "role": "harmony",
      "percussion": null
    },
    {
      "pitch": 67,
      "start": 6.242452607709755,
      "end": 6.429605442176875,
      "velocity": 100,
      "role": "lead",
      "percussion": null
    },
    {
      "pitch": 38,
      "start": 6.32093605442177,
      "end": 6.47186575963719,
      "velocity": 100,
      "role": "bass",
      "percussion": null
    },
    {
      "pitch": 38,
      "start": 6.3269732426303875,
      "end": 6.514126077097508,
      "velocity": 100,
      "role": "percussion",
      "percussion": "snare"
    },
    {
      "pitch": 70,
      "start": 6.429605442176875,
      "end": 6.592609523809529,
      "velocity": 100,
      "role": "lead",
      "percussion": null
    },
    {
      "pitch": 38,
      "start": 6.514126077097508,
      "end": 6.689204535147395,
      "velocity": 100,
      "role": "percussion",
      "percussion": "hat"
    },
    {
      "pitch": 57,
      "start": 6.556386394557828,
      "end": 6.7193904761904815,
      "velocity": 100,
      "role": "harmony",
      "percussion": null
    },
    {
      "pitch": 69,
      "start": 6.592609523809529,
      "end": 6.731464852607715,
      "velocity": 100,
      "role": "lead",
      "percussion": null
    },
    {
      "pitch": 45,
      "start": 6.634869841269843,
      "end": 6.797873922902497,
      "velocity": 100,
      "role": "bass",
      "percussion": null
    },
    {
      "pitch": 38,
      "start": 6.689204535147395,
      "end": 6.9005061224489825,
      "velocity": 100,
      "role": "percussion",
      "percussion": "kick"
    },
    {
      "pitch": 65,
      "start": 6.731464852607715,
      "end": 6.882394557823135,
      "velocity": 100,
      "role": "lead",
      "percussion": null
    },
    {
      "pitch": 53,
      "start": 6.858245804988668,
      "end": 7.009175510204088,
      "velocity": 100,
      "role": "harmony",
      "percussion": null
    },
    {
      "pitch": 64,
      "start": 6.882394557823135,
      "end": 7.298960544217692,
      "velocity": 100,
      "role": "lead",
      "percussion": null
    },
    {
      "pitch": 38,
      "start": 6.9005061224489825,
      "end": 7.11180770975057,
      "velocity": 100,
      "role": "percussion",
      "percussion": "snare"
    },
    {
      "pitch": 38,
      "start": 6.936729251700683,
      "end": 7.0755845804988695,
      "velocity": 100,
      "role": "bass",
      "percussion": null
    },
    {
      "pitch": 38,
      "start": 7.11180770975057,
      "end": 7.311034920634924,
      "velocity": 100,
      "role": "percussion",
      "percussion": "hat"
    },
    {
      "pitch": 45,
      "start": 7.214439909297056,
      "end": 7.365369614512476,
      "velocity": 100,
      "role": "bass",
      "percussion": null
    },
    {
      "pitch": 62,
      "start": 7.298960544217692,
      "end": 7.461964625850346,
      "velocity": 100,
      "role": "lead",
      "percussion": null
    },
    {
      "pitch": 38,
      "start": 7.311034920634924,
      "end": 7.624968707482997,
      "velocity": 100,
      "role": "percussion",
      "percussion": "kick"
    },
    {
      "pitch": 57,
      "start": 7.425741496598645,
      "end": 7.588745578231299,
      "velocity": 100,
      "role": "harmony",
      "percussion": null
    },
    {
      "pitch": 64,
      "start": 7.461964625850346,
      "end": 7.600819954648532,
      "velocity": 100,
      "role": "lead",
      "percussion": null
    },
    {
      "pitch": 38,
      "start": 7.528373696145129,
      "end": 7.679303401360549,
      "velocity": 100,
      "role": "bass",
      "percussion": null
    },
    {
      "pitch": 72,
      "start": 7.600819954648532,
      "end": 7.739675283446719,
      "velocity": 100,
      "role": "lead",
      "percussion": null
    },
    {
      "pitch": 38,
      "start": 7.624968707482997,
      "end": 7.836270294784584,
      "velocity": 100,
      "role": "percussion",
      "percussion": "snare"
    },
    {
      "pitch": 57,
      "start": 7.727600907029485,
      "end": 7.8664562358276715,
      "velocity": 100,
      "role": "harmony",
      "percussion": null
    },
    {
      "pitch": 64,
      "start": 7.739675283446719,
      "end": 8.283022222222229,
      "velocity": 100,
      "role": "lead",
      "percussion": null
    },
    {
      "pitch": 38,
      "start": 7.836270294784584,
      "end": 7.999274376417238,
      "velocity": 100,
      "role": "percussion",
      "percussion": "hat"
    },
    {
      "pitch": 45,
      "start": 7.957014058956921,
      "end": 8.283022222222227,
      "velocity": 100,
      "role": "bass",
      "percussion": null
    },
    {
      "pitch": 38,
      "start": 7.999274376417238,
      "end": 8.16227845804989,
      "velocity": 100,
      "role": "percussion",
      "percussion": "kick"
    },
    {
      "pitch": 38,
      "start": 8.16227845804989,
      "end": 8.325282539682544,
      "velocity": 100,
      "role": "percussion",
      "percussion": "snare"
    },
    {
      "pitch": 65,
      "start": 8.283022222222229,
      "end": 8.482249433106583,
      "velocity": 100,
      "role": "lead",
      "percussion": null
    },
    {
      "pitch": 38,
      "start": 8.325282539682544,
      "end": 8.536584126984131,
      "velocity": 100,
      "role": "percussion",
      "percussion": "hat"
    },
    {
      "pitch": 57,
      "start": 8.409803174603182,
      "end": 8.609030385487536,
      "velocity": 100,
      "role": "harmony",
      "percussion": null
    },
    {
      "pitch": 38,
      "start": 8.470175056689348,
      "end": 8.609030385487534,
      "velocity": 100,
      "role": "bass",
      "percussion": null
    },
    {
      "pitch": 67,
      "start": 8.482249433106583,
      "end": 9.031633560090711,
      "velocity": 100,
      "role": "lead",
      "percussion": null
    },
    {
      "pitch": 38,
      "start": 8.536584126984131,
      "end": 8.747885714285719,
      "velocity": 100,
      "role": "percussion",
      "percussion": "kick"
    },
    {
      "pitch": 38,
      "start": 8.747885714285719,
      "end": 8.959187301587306,
      "velocity": 100,
      "role": "percussion",
      "percussion": "snare"
    },
    {
      "pitch": 45,
      "start": 8.74788571428572,
      "end": 8.935038548752841,
      "velocity": 100,
      "role": "bass",
      "percussion": null
    },
    {
      "pitch": 38,
      "start": 8.959187301587306,
      "end": 9.170488888888894,
      "velocity": 100,
      "role": "percussion",
      "percussion": "hat"
    },
    {
      "pitch": 69,
      "start": 9.031633560090711,
      "end": 9.18256326530613,
      "velocity": 100,
      "role": "lead",
      "percussion": null
    },
    {
      "pitch": 38,
      "start": 9.098042630385494,
      "end": 9.261046712018148,
      "velocity": 100,
      "role": "bass",
      "percussion": null
    },
    {
      "pitch": 53,
      "start": 9.158414512471662,
      "end": 9.309344217687082,
      "velocity": 100,
      "role": "harmony",
      "percussion": null
    },
    {
      "pitch": 38,
      "start": 9.170488888888894,
      "end": 9.448199546485267,
      "velocity": 100,
      "role": "percussion",
      "percussion": "kick"
    },
    {
      "pitch": 72,
      "start": 9.18256326530613,
      "end": 9.369716099773251,
      "velocity": 100,
      "role": "lead",
      "percussion": null
    },
    {
      "pitch": 64,
      "start": 9.369716099773251,
      "end": 9.544794557823138,
      "velocity": 100,
      "role": "lead",
      "percussion": null
    },
    {
      "pitch": 45,
      "start": 9.399902040816334,
      "end": 9.550831746031754,
      "velocity": 100,
      "role": "bass",
      "percussion": null
    },
    {
      "pitch": 38,
      "start": 9.448199546485267,
      "end": 9.72591020408164,
      "velocity": 100,
      "role": "percussion",
      "percussion": "snare"
    },
    {
      "pitch": 57,
      "start": 9.496497052154202,
      "end": 9.67157551020409,
      "velocity": 100,
      "role": "harmony",
      "percussion": null
    },
    {
      "pitch": 67,
      "start": 9.544794557823138,
      "end": 9.683649886621325,
      "velocity": 100,
      "role": "lead",
      "percussion": null
    },
    {
      "pitch": 64,
      "start": 9.683649886621325,
      "end": 9.894951473922912,
      "velocity": 100,
      "role": "lead",
      "percussion": null
    },
    {
      "pitch": 38,
      "start": 9.72591020408164,
      "end": 9.87683990929706,
      "velocity": 100,
      "role": "percussion",
      "percussion": "hat"
    },
    {
      "pitch": 53,
      "start": 9.810430839002276,
      "end": 10.021732426303863,
      "velocity": 100,
      "role": "harmony",
      "percussion": null
    },
    {
      "pitch": 38,
      "start": 9.87683990929706,
      "end": 10.2149224489796,
      "velocity": 100,
      "role": "percussion",
      "percussion": "kick"
    },
    {
      "pitch": 62,
      "start": 9.894951473922912,
      "end": 10.045881179138332,
      "velocity": 100,
      "role": "lead",
      "percussion": null
    },
    {
      "pitch": 38,
      "start": 9.967397732426312,
      "end": 10.130401814058965,
      "velocity": 100,
      "role": "bass",
      "percussion": null
    },
    {
      "pitch": 62,
      "start": 10.045881179138332,
      "end": 10.245108390022686,
      "velocity": 100,
      "role": "lead",
      "percussion": null
    },
    {
      "pitch": 57,
      "start": 10.172662131519283,
      "end": 10.371889342403637,
      "velocity": 100,
      "role": "harmony",
      "percussion": null
    },
    {
      "pitch": 38,
      "start": 10.2149224489796,
      "end": 10.595265306122457,
      "velocity": 100,
      "role": "percussion",
      "percussion": "snare"
    },
    {
      "pitch": 64,
      "start": 10.245108390022686,
      "end": 10.456409977324274,
      "velocity": 100,
      "role": "lead",
      "percussion": null
    },
    {
      "pitch": 45,
      "start": 10.269257142857152,
      "end": 10.408112471655338,
      "velocity": 100,
      "role": "bass",
      "percussion": null
    },
    {
      "pitch": 65,
      "start": 10.456409977324274,
      "end": 10.909199092970532,
      "velocity": 100,
      "role": "lead",
      "percussion": null
    },
    {
      "pitch": 53,
      "start": 10.583190929705225,
      "end": 11.035980045351483,
      "velocity": 100,
      "role": "harmony",
      "percussion": null
    },
    {
      "pitch": 38,
      "start": 10.595265306122457,
      "end": 10.746195011337877,
      "velocity": 100,
      "role": "percussion",
      "percussion": "hat"
    },
    {
      "pitch": 38,
      "start": 10.746195011337877,
      "end": 10.897124716553297,
      "velocity": 100,
      "role": "percussion",
      "percussion": "kick"
    },
    {
      "pitch": 38,
      "start": 10.897124716553297,
      "end": 11.048054421768716,
      "velocity": 100,
      "role": "percussion",
      "percussion": "snare"
    },
    {
      "pitch": 65,
      "start": 10.909199092970532,
      "end": 11.235207256235839,
      "velocity": 100,
      "role": "lead",
      "percussion": null
    },
    {
      "pitch": 38,
      "start": 10.951459410430848,
      "end": 11.150686621315202,
      "velocity": 100,
      "role": "bass",
      "percussion": null
    },
    {
      "pitch": 38,
      "start": 11.048054421768716,
      "end": 11.687996371882095,
      "velocity": 100,
      "role": "percussion",
      "percussion": "hat"
    },
    {
      "pitch": 62,
      "start": 11.235207256235839,
      "end": 11.434434467120193,
      "velocity": 100,
      "role": "lead",
      "percussion": null
    },
    {
      "pitch": 57,
      "start": 11.36198820861679,
      "end": 11.561215419501144,
      "velocity": 100,
      "role": "harmony",
      "percussion": null
    },
    {
      "pitch": 62,
      "start": 11.434434467120193,
      "end": 11.748368253968266,
      "velocity": 100,
      "role": "lead",
      "percussion": null
    },
    {
      "pitch": 38,
      "start": 11.687996371882095,
      "end": 11.826851700680281,
      "velocity": 100,
      "role": "percussion",
      "percussion": "kick"
    },
    {
      "pitch": 45,
      "start": 11.700070748299328,
      "end": 11.851000453514748,
      "velocity": 100,
      "role": "bass",
      "percussion": null
    },
    {
      "pitch": 69,
      "start": 11.748368253968266,
      "end": 11.959669841269854,
      "velocity": 100,
      "role": "lead",
      "percussion": null
    },
    {
      "pitch": 38,
      "start": 11.826851700680281,
      "end": 11.989855782312935,
      "velocity": 100,
      "role": "percussion",
      "percussion": "snare"
    },
    {
      "pitch": 53,
      "start": 11.875149206349217,
      "end": 12.086450793650805,
      "velocity": 100,
      "role": "harmony",
      "percussion": null
    },
    {
      "pitch": 62,
      "start": 11.959669841269854,
      "end": 12.122673922902507,
      "velocity": 100,
      "role": "lead",
      "percussion": null
    },
    {
      "pitch": 38,
      "start": 11.989855782312935,
      "end": 12.189082993197289,
      "velocity": 100,
      "role": "percussion",
      "percussion": "hat"
    },
    {
      "pitch": 38,
      "start": 12.038153287981869,
      "end": 12.213231746031756,
      "velocity": 100,
      "role": "bass",
      "percussion": null
    },
    {
      "pitch": 67,
      "start": 12.122673922902507,
      "end": 12.28567800453516,
      "velocity": 100,
      "role": "lead",
      "percussion": null
    },
    {
      "pitch": 38,
      "start": 12.189082993197289,
      "end": 12.340012698412709,
      "velocity": 100,
      "role": "percussion",
      "percussion": "kick"
    },
    {
      "pitch": 57,
      "start": 12.249454875283458,
      "end": 12.412458956916112,
      "velocity": 100,
      "role": "harmony",
      "percussion": null
    },
    {
      "pitch": 69,
      "start": 12.28567800453516,
      "end": 12.448682086167814,
      "velocity": 100,
      "role": "lead",
      "percussion": null
    },
    {
      "pitch": 38,
      "start": 12.340012698412709,
      "end": 12.569425850340146,
      "velocity": 100,
      "role": "percussion",
      "percussion": "snare"
    },
    {
      "pitch": 45,
      "start": 12.352087074829942,
      "end": 12.56338866213153,
      "velocity": 100,
      "role": "bass",
      "percussion": null
    },
    {
      "pitch": 64,
      "start": 12.448682086167814,
      "end": 12.659983673469402,
      "velocity": 100,
      "role": "lead",
      "percussion": null
    },
    {
      "pitch": 38,
      "start": 12.569425850340146,
      "end": 12.720355555555566,
      "velocity": 100,
      "role": "percussion",
      "percussion": "hat"
    },
    {
      "pitch": 53,
      "start": 12.575463038548765,
      "end": 12.786764625850353,
      "velocity": 100,
      "role": "harmony",
      "percussion": null
    },
    {
      "pitch": 69,
      "start": 12.659983673469402,
      "end": 12.937694331065774,
      "velocity": 100,
      "role": "lead",
      "percussion": null
    },
    {
      "pitch": 38,
      "start": 12.71431836734695,
      "end": 12.913545578231304,
      "velocity": 100,
      "role": "bass",
      "percussion": null
    },
    {
      "pitch": 38,
      "start": 12.720355555555566,
      "end": 13.010140589569172,
      "velocity": 100,
      "role": "percussion",
      "percussion": "kick"
    },
    {
      "pitch": 64,
      "start": 12.937694331065774,
      "end": 13.088624036281194,
      "velocity": 100,
      "role": "lead",
      "percussion": null
    },
    {
      "pitch": 57,
      "start": 12.99806621315194,
      "end": 13.275776870748313,
      "velocity": 100,
      "role": "harmony",
      "percussion": null
    },
    {
      "pitch": 38,
      "start": 13.010140589569172,
      "end": 13.475004081632663,
      "velocity": 100,
      "role": "percussion",
      "percussion": "snare"
    },
    {
      "pitch": 64,
      "start": 13.088624036281194,
      "end": 13.426706575963735,
      "velocity": 100,
      "role": "lead",
      "percussion": null
    },
    {
      "pitch": 45,
      "start": 13.124847165532891,
      "end": 13.57763628117915,
      "velocity": 100,
      "role": "bass",
      "percussion": null
    },
    {
      "pitch": 57,
      "start": 13.426706575963733,
      "end": 13.764789115646273,
      "velocity": 100,
      "role": "harmony",
      "percussion": null
    },
    {
      "pitch": 64,
      "start": 13.426706575963735,
      "end": 13.807049433106592,
      "velocity": 100,
      "role": "lead",
      "percussion": null
    },
    {
      "pitch": 38,
      "start": 13.475004081632663,
      "end": 13.625933786848083,
      "velocity": 100,
      "role": "percussion",
      "percussion": "hat"
    },
    {
      "pitch": 38,
      "start": 13.625933786848083,
      "end": 13.788937868480737,
      "velocity": 100,
      "role": "percussion",
      "percussion": "kick"
    },
    {
      "pitch": 38,
      "start": 13.788937868480737,
      "end": 13.95194195011339,
      "velocity": 100,
      "role": "percussion",
      "percussion": "snare"
    },
    {
      "pitch": 69,
      "start": 13.807049433106592,
      "end": 13.957979138322012,
      "velocity": 100,
      "role": "lead",
      "percussion": null
    },
    {
      "pitch": 38,
      "start": 13.903644444444456,
      "end": 14.10287165532881,
      "velocity": 100,
      "role": "bass",
      "percussion": null
    },
    {
      "pitch": 38,
      "start": 13.95194195011339,
      "end": 14.25380136054423,
      "velocity": 100,
      "role": "percussion",
      "percussion": "hat"
    },
    {
      "pitch": 64,
      "start": 13.957979138322012,
      "end": 14.108908843537431,
      "velocity": 100,
      "role": "lead",
      "percussion": null
    },
    {
      "pitch": 69,
      "start": 14.108908843537431,
      "end": 14.74885079365081,
      "velocity": 100,
      "role": "lead",
      "percussion": null
    },
    {
      "pitch": 53,
      "start": 14.14513197278913,
      "end": 14.29606167800455,
      "velocity": 100,
      "role": "harmony",
      "percussion": null
    },
    {
      "pitch": 38,
      "start": 14.25380136054423,
      "end": 14.416805442176884,
      "velocity": 100,
      "role": "percussion",
      "percussion": "kick"
    },
    {
      "pitch": 38,
      "start": 14.416805442176884,
      "end": 14.579809523809537,
      "velocity": 100,
      "role": "percussion",
      "percussion": "snare"
    },
    {
      "pitch": 45,
      "start": 14.416805442176884,
      "end": 14.628107029478471,
      "velocity": 100,
      "role": "bass",
      "percussion": null
    },
    {
      "pitch": 57,
      "start": 14.44699138321997,
      "end": 14.59792108843539,
      "velocity": 100,
      "role": "harmony",
      "percussion": null
    },
    {
      "pitch": 38,
      "start": 14.579809523809537,
      "end": 14.74281360544219,
      "velocity": 100,
      "role": "percussion",
      "percussion": "hat"
    },
    {
      "pitch": 64,
      "start": 14.74885079365081,
      "end": 14.887706122448996,
      "velocity": 100,
      "role": "lead",
      "percussion": null
    },
    {
      "pitch": 38,
      "start": 14.791111111111125,
      "end": 14.954115192743778,
      "velocity": 100,
      "role": "bass",
      "percussion": null
    },
    {
      "pitch": 72,
      "start": 14.887706122448996,
      "end": 15.05071020408165,
      "velocity": 100,
      "role": "lead",
      "percussion": null
    },
    {
      "pitch": 64,
      "start": 15.05071020408165,
      "end": 15.249937414966004,
      "velocity": 100,
      "role": "lead",
      "percussion": null
    },
    {
      "pitch": 45,
      "start": 15.117119274376432,
      "end": 15.328420861678019,
      "velocity": 100,
      "role": "bass",
      "percussion": null
    },
    {
      "pitch": 57,
      "start": 15.237863038548769,
      "end": 15.376718367346955,
      "velocity": 100,
      "role": "harmony",
      "percussion": null
    },
    {
      "pitch": 67,
      "start": 15.249937414966004,
      "end": 15.400867120181424,
      "velocity": 100,
      "role": "lead",
      "percussion": null
    },
    {
      "pitch": 65,
      "start": 15.400867120181424,
      "end": 15.63028027210886,
      "velocity": 100,
      "role": "lead",
      "percussion": null
    },
    {
      "pitch": 38,
      "start": 15.539722448979607,
      "end": 15.751024036281194,
      "velocity": 100,
      "role": "bass",
      "percussion": null
    },
    {
      "pitch": 53,
      "start": 15.539722448979608,
      "end": 15.738949659863962,
      "velocity": 100,
      "role": "harmony",
      "percussion": null
    },
    {
      "pitch": 64,
      "start": 15.63028027210886,
      "end": 15.78120997732428,
      "velocity": 100,
      "role": "lead",
      "percussion": null
    },
    {
      "pitch": 69,
      "start": 15.78120997732428,
      "end": 16.070995011337885,
      "velocity": 100,
      "role": "lead",
      "percussion": null
    },
    {
      "pitch": 57,
      "start": 15.889879365079382,
      "end": 16.11929251700682,
      "velocity": 100,
      "role": "harmony",
      "percussion": null
    },
    {
      "pitch": 45,
      "start": 16.028734693877567,
      "end": 16.30644535147394,
      "velocity": 100,
      "role": "bass",
      "percussion": null
    },
    {
      "pitch": 65,
      "start": 16.070995011337885,
      "end": 16.53585850340138,
      "velocity": 100,
      "role": "lead",
      "percussion": null
    },
    {
      "pitch": 53,
      "start": 16.270222222222237,
      "end": 16.560007256235842,
      "velocity": 100,
      "role": "harmony",
      "percussion": null
    },
    {
      "pitch": 38,
      "start": 16.457375056689358,
      "end": 16.795457596371897,
      "velocity": 100,
      "role": "bass",
      "percussion": null
    },
    {
      "pitch": 67,
      "start": 16.53585850340138,
      "end": 16.952424489795938,
      "velocity": 100,
      "role": "lead",
      "percussion": null
    },
    {
      "pitch": 65,
      "start": 16.952424489795938,
      "end": 17.38106485260773,
      "velocity": 100,
      "role": "lead",
      "percussion": null
    },
    {
      "pitch": 57,
      "start": 17.024870748299335,
      "end": 17.441436734693895,
      "velocity": 100,
      "role": "harmony",
      "percussion": null
    },
    {
      "pitch": 45,
      "start": 17.175800453514753,
      "end": 17.32673015873017,
      "velocity": 100,
      "role": "bass",
      "percussion": null
    },
    {
      "pitch": 62,
      "start": 17.38106485260773,
      "end": 17.56821768707485,
      "velocity": 100,
      "role": "lead",
      "percussion": null
    },
    {
      "pitch": 38,
      "start": 17.47765986394559,
      "end": 17.628589569161008,
      "velocity": 100,
      "role": "bass",
      "percussion": null
    },
    {
      "pitch": 69,
      "start": 17.56821768707485,
      "end": 17.707073015873036,
      "velocity": 100,
      "role": "lead",
      "percussion": null
    },
    {
      "pitch": 69,
      "start": 17.707073015873036,
      "end": 17.99685804988664,
      "velocity": 100,
      "role": "lead",
      "percussion": null
    },
    {
      "pitch": 53,
      "start": 17.870077097505686,
      "end": 18.057229931972806,
      "velocity": 100,
      "role": "harmony",
      "percussion": null
    },
    {
      "pitch": 72,
      "start": 17.99685804988664,
      "end": 18.29871746031748,
      "velocity": 100,
      "role": "lead",
      "percussion": null
    },
    {
      "pitch": 57,
      "start": 18.196085260770992,
      "end": 18.485870294784597,
      "velocity": 100,
      "role": "harmony",
      "percussion": null
    },
    {
      "pitch": 45,
      "start": 18.268531519274386,
      "end": 18.407386848072573,
      "velocity": 100,
      "role": "bass",
      "percussion": null
    },
    {
      "pitch": 62,
      "start": 18.29871746031748,
      "end": 18.461721541950133,
      "velocity": 100,
      "role": "lead",
      "percussion": null
    },
    {
      "pitch": 38,
      "start": 18.570390929705226,
      "end": 18.76961814058958,
      "velocity": 100,
      "role": "bass",
      "percussion": null
    },
    {
      "pitch": 60,
      "start": 18.787729705215437,
      "end": 18.95073378684809,
      "velocity": 100,
      "role": "harmony",
      "percussion": null
    },
    {
      "pitch": 45,
      "start": 18.920547845804997,
      "end": 19.149960997732435,
      "velocity": 100,
      "role": "bass",
      "percussion": null
    },
    {
      "pitch": 38,
      "start": 19.300890702947854,
      "end": 19.590675736961458,
      "velocity": 100,
      "role": "bass",
      "percussion": null
    },
    {
      "pitch": 45,
      "start": 20.05553922902495,
      "end": 20.47210521541951,
      "velocity": 100,
      "role": "bass",
      "percussion": null
    },
    {
      "pitch": 38,
      "start": 20.9007455782313,
      "end": 21.087898412698422,
      "velocity": 100,
      "role": "bass",
      "percussion": null
    },
    {
      "pitch": 45,
      "start": 21.22675374149661,
      "end": 21.516538775510213,
      "velocity": 100,
      "role": "bass",
      "percussion": null
    },
    {
      "pitch": 38,
      "start": 21.818398185941053,
      "end": 21.981402267573706,
      "velocity": 100,
      "role": "bass",
      "percussion": null
    }
  ]
}