{
  "tempo": {
    "bpm": 120.18531976744185,
    "offset": 0.5108390022675737,
    "beats_per_bar": 4
  },
  "duration": 29.454512471655335,
  "notes": [
    {
      "pitch": 38,
      "start": 0.0,
      "end": 0.4992290249433107,
      "velocity": 100,
      "role": "percussion",
      "percussion": "kick"
    },
    {
      "pitch": 43,
      "start": 0.0,
      "end": 1.9969160997732427,
      "velocity": 100,
      "role": "bass",
      "percussion": null
    },
    {
      "pitch": 62,
      "start": 0.0,
      "end": 1.9969160997732427,
      "velocity": 100,
      "role": "harmony",
      "percussion": null
    },
    {
      "pitch": 69,
      "start": 0.0,
      "end": 1.9969160997732427,
      "velocity": 100,
      "role": "lead",
      "percussion": null
    },
    {
      "pitch": 38,
      "start": 0.4992290249433107,
      "end": 0.748843537414966,
      "velocity": 100,
      "role": "percussion",
      "percussion": "snare"
    },
    {
      "pitch": 38,
      "start": 0.748843537414966,
      "end": 0.9984580498866213,
      "velocity": 100,
      "role": "percussion",
      "percussion": "hat"
    },
    {
      "pitch": 38,
      "start": 0.9984580498866213,
      "end": 1.497687074829932,
      "velocity": 100,
      "role": "percussion",
      "percussion": "kick"
    },
    {
      "pitch": 38,
      "start": 1.497687074829932,
      "end": 1.7473015873015874,
      "velocity": 100,
      "role": "percussion",
      "percussion": "snare"
    },
    {
      "pitch": 38,
      "start": 1.7473015873015874,
      "end": 1.9969160997732427,
      "velocity": 100,
      "role": "percussion",
      "percussion": "hat"
    },
    {
      "pitch": 38,
      "start": 1.9969160997732427,
      "end": 2.995374149659864,
      "velocity": 100,
      "role": "percussion",
      "percussion": "kick"
    },
    {
      "pitch": 43,
      "start": 1.9969160997732427,
      "end": 3.9938321995464854,
      "velocity": 100,
      "role": "bass",
      "percussion": null
    },
    {
      "pitch": 60,
      "start": 1.9969160997732427,
      "end": 3.9938321995464854,
      "velocity": 100,
      "role": "harmony",
      "percussion": null
    },
    {
      "pitch": 78,
      "start": 1.9969160997732427,
      "end": 2.1367002267573696,
      "velocity": 100,
      "role": "lead",
      "percussion": null
    },
    {
      "pitch": 69,
      "start": 2.1367002267573696,
      "end": 2.4711836734693877,
      "velocity": 100,
      "role": "lead",
      "percussion": null
    },
    {
      "pitch": 69,
      "start": 2.4711836734693877,
      "end": 2.6209523809523807,
      "velocity": 100,
      "role": "lead",
      "percussion": null
    },
    {
      "pitch": 76,
      "start": 2.6209523809523807,
      "end": 2.8406131519274376,
      "velocity": 100,
      "role": "lead",
      "percussion": null
    },
    {
      "pitch": 76,
      "start": 2.8406131519274376,
      "end": 3.00535873015873,
      "velocity": 100,
      "role": "lead",
      "percussion": null
    },
    {
      "pitch": 38,
      "start": 2.995374149659864,
      "end": 3.4946031746031747,
      "velocity": 100,
      "role": "percussion",
      "percussion": "snare"
    },
    {
      "pitch": 71,
      "start": 3.00535873015873,
      "end": 4.028778231292517,
      "velocity": 100,
      "role": "lead",
      "percussion": null
    },
    {
      "pitch": 38,
      "start": 3.4946031746031747,
      "end": 3.9938321995464854,
      "velocity": 100,
      "role": "percussion",
      "percussion": "hat"
    },
    {
      "pitch": 38,
      "start": 3.9938321995464854,
      "end": 4.992290249433107,
      "velocity": 100,
      "role": "percussion",
      "percussion": "kick"
    },
    {
      "pitch": 43,
      "start": 3.9938321995464854,
      "end": 7.987664399092971,
      "velocity": 100,
      "role": "bass",
      "percussion": null
    },
    {
      "pitch": 66,
      "start": 3.9938321995464854,
      "end": 7.987664399092971,
      "velocity": 100,
      "role": "harmony",
      "percussion": null
    },
    {
      "pitch": 78,
      "start": 4.028778231292517,
      "end": 4.203508390022676,
      "velocity": 100,
      "role": "lead",
      "percussion": null
    },
    {
      "pitch": 71,
      "start": 4.203508390022676,
      "end": 6.804491609977324,
      "velocity": 100,
      "role": "lead",
      "percussion": null
    },
    {
      "pitch": 38,
      "start": 4.992290249433107,
      "end": 5.491519274376417,
      "velocity": 100,
      "role": "percussion",
      "percussion": "snare"
    },
    {
      "pitch": 38,
      "start": 5.491519274376417,
      "end": 5.990748299319728,
      "velocity": 100,
      "role": "percussion",
      "percussion": "hat"
    },
    {
      "pitch": 38,
      "start": 5.990748299319728,
      "end": 6.489977324263039,
      "velocity": 100,
      "role": "percussion",
      "percussion": "kick"
    },
    {
      "pitch": 38,
      "start": 6.489977324263039,
      "end": 6.739591836734695,
      "velocity": 100,
      "role": "percussion",
      "percussion": "snare"
    },
    {
      "pitch": 38,
      "start": 6.739591836734695,
      "end": 6.98920634920635,
      "velocity": 100,
      "role": "percussion",
      "percussion": "hat"
    },
    {
      "pitch": 69,
      "start": 6.804491609977324,
      "end": 9.115921995464852,
      "velocity": 100,
      "role": "lead",
      "percussion": null
    },
    {
      "pitch": 38,
      "start": 6.98920634920635,
      "end": 7.987664399092972,
      "velocity": 100,
      "role": "percussion",
      "percussion": "kick"
    },
    {
      "pitch": 43,
      "start": 7.987664399092971,
      "end": 9.485351473922902,
      "velocity": 100,
      "role": "bass",
      "percussion": null
    },
    {
      "pitch": 62,
      "start": 7.987664399092971,
      "end": 9.485351473922902,
      "velocity": 100,
      "role": "harmony",
      "percussion": null
    },
    {
      "pitch": 38,
      "start": 7.987664399092972,
      "end": 8.486893424036282,
      "velocity": 100,
      "role": "percussion",
      "percussion": "snare"
    },
    {
      "pitch": 38,
      "start": 8.486893424036282,
      "end": 8.986122448979593,
      "velocity": 100,
      "role": "percussion",
      "percussion": "hat"
    },
    {
      "pitch": 38,
      "start": 8.986122448979593,
      "end": 9.485351473922904,
      "velocity": 100,
      "role": "percussion",
      "percussion": "kick"
    },
    {
      "pitch": 69,
      "start": 9.115921995464852,
      "end": 9.265690702947845,
      "velocity": 100,
      "role": "lead",
      "percussion": null
    },
    {
      "pitch": 76,
      "start": 9.265690702947845,
      "end": 9.62513560090703,
      "velocity": 100,
      "role": "lead",
      "percussion": null
    },
    {
      "pitch": 52,
      "start": 9.485351473922902,
      "end": 10.983038548752834,
      "velocity": 100,
      "role": "bass",
      "percussion": null
    },
    {
      "pitch": 57,
      "start": 9.485351473922902,
      "end": 10.983038548752834,
      "velocity": 100,
      "role": "harmony",
      "percussion": null
    },
    {
      "pitch": 38,
      "start": 9.485351473922904,
      "end": 9.73496598639456,
      "velocity": 100,
      "role": "percussion",
      "percussion": "snare"
    },
    {
      "pitch": 76,
      "start": 9.62513560090703,
      "end": 9.83481179138322,
      "velocity": 100,
      "role": "lead",
      "percussion": null
    },
    {
      "pitch": 38,
      "start": 9.73496598639456,
      "end": 9.984580498866215,
      "velocity": 100,
      "role": "percussion",
      "percussion": "hat"
    },
    {
      "pitch": 76,
      "start": 9.83481179138322,
      "end": 10.019526530612245,
      "velocity": 100,
      "role": "lead",
      "percussion": null
    },
    {
      "pitch": 38,
      "start": 9.984580498866215,
      "end": 10.483809523809526,
      "velocity": 100,
      "role": "percussion",
      "percussion": "kick"
    },
    {
      "pitch": 67,
      "start": 10.019526530612245,
      "end": 10.229202721088436,
      "velocity": 100,
      "role": "lead",
      "percussion": null
    },
    {
      "pitch": 67,
      "start": 10.229202721088436,
      "end": 10.738416326530613,
      "velocity": 100,
      "role": "lead",
      "percussion": null
    },
    {
      "pitch": 38,
      "start": 10.483809523809526,
      "end": 10.733424036281182,
      "velocity": 100,
      "role": "percussion",
      "percussion": "snare"
    },
    {
      "pitch": 38,
      "start": 10.733424036281182,
      "end": 10.983038548752837,
      "velocity": 100,
      "role": "percussion",
      "percussion": "hat"
    },
    {
      "pitch": 71,
      "start": 10.738416326530613,
      "end": 10.913146485260771,
      "velocity": 100,
      "role": "lead",
      "percussion": null
    },
    {
      "pitch": 74,
      "start": 10.913146485260771,
      "end": 11.052930612244898,
      "velocity": 100,
      "role": "lead",
      "percussion": null
    },
    {
      "pitch": 43,
      "start": 10.983038548752834,
      "end": 15.975328798185942,
      "velocity": 100,
      "role": "bass",
      "percussion": null
    },
    {
      "pitch": 66,
      "start": 10.983038548752834,
      "end": 15.975328798185942,
      "velocity": 100,
      "role": "harmony",
      "percussion": null
    },
    {
      "pitch": 38,
      "start": 10.983038548752837,
      "end": 11.482267573696149,
      "velocity": 100,
      "role": "percussion",
      "percussion": "kick"
    },
    {
      "pitch": 67,
      "start": 11.052930612244898,
      "end": 11.412375510204082,
      "velocity": 100,
      "role": "lead",
      "percussion": null
    },
    {
      "pitch": 74,
      "start": 11.412375510204082,
      "end": 11.55215963718821,
      "velocity": 100,
      "role": "lead",
      "percussion": null
    },
    {
      "pitch": 38,
      "start": 11.482267573696149,
      "end": 11.98149659863946,
      "velocity": 100,
      "role": "percussion",
      "percussion": "snare"
    },
    {
      "pitch": 67,
      "start": 11.55215963718821,
      "end": 11.831727891156463,
      "velocity": 100,
      "role": "lead",
      "percussion": null
    },
    {
      "pitch": 67,
      "start": 11.831727891156463,
      "end": 11.981496598639456,
      "velocity": 100,
      "role": "lead",
      "percussion": null
    },
    {
      "pitch": 71,
      "start": 11.981496598639456,
      "end": 12.146242176870748,
      "velocity": 100,
      "role": "lead",
      "percussion": null
    },
    {
      "pitch": 38,
      "start": 11.98149659863946,
      "end": 12.48072562358277,
      "velocity": 100,
      "role": "percussion",
      "percussion": "hat"
    },
    {
      "pitch": 71,
      "start": 12.146242176870748,
      "end": 12.31098775510204,
      "velocity": 100,
      "role": "lead",
      "percussion": null
    },
    {
      "pitch": 69,
      "start": 12.31098775510204,
      "end": 12.520663945578232,
      "velocity": 100,
      "role": "lead",
      "percussion": null
    },
    {
      "pitch": 69,
      "start": 12.520663945578232,
      "end": 12.69539410430839,
      "velocity": 100,
      "role": "lead",
      "percussion": null
    },
    {
      "pitch": 69,
      "start": 12.69539410430839,
      "end": 12.835178231292517,
      "velocity": 100,
      "role": "lead",
      "percussion": null
    },
    {
      "pitch": 67,
      "start": 12.835178231292517,
      "end": 12.98494693877551,
      "velocity": 100,
      "role": "lead",
      "percussion": null
    },
    {
      "pitch": 76,
      "start": 12.98494693877551,
      "end": 14.262973242630386,
      "velocity": 100,
      "role": "lead",
      "percussion": null
    },
    {
      "pitch": 76,
      "start": 14.262973242630386,
      "end": 14.717271655328798,
      "velocity": 100,
      "role": "lead",
      "percussion": null
    },
    {
      "pitch": 71,
      "start": 14.717271655328798,
      "end": 14.951909297052154,
      "velocity": 100,
      "role": "lead",
      "percussion": null
    },
    {
      "pitch": 71,
      "start": 14.951909297052154,
      "end": 15.101678004535147,
      "velocity": 100,
      "role": "lead",
      "percussion": null
    },
    {
      "pitch": 71,
      "start": 15.101678004535147,
      "end": 15.311354195011338,
      "velocity": 100,
      "role": "lead",
      "percussion": null
    },
    {
      "pitch": 67,
      "start": 15.311354195011338,
      "end": 15.531014965986396,
      "velocity": 100,
      "role": "lead",
      "percussion": null
    },
    {
      "pitch": 71,
      "start": 15.531014965986396,
      "end": 15.705745124716554,
      "velocity": 100,
      "role": "lead",
      "percussion": null
    },
    {
      "pitch": 71,
      "start": 15.705745124716554,
      "end": 15.855513832199547,
      "velocity": 100,
      "role": "lead",
      "percussion": null
    },
    {
      "pitch": 71,
      "start": 15.855513832199547,
      "end": 16.065190022675736,
      "velocity": 100,
      "role": "lead",
      "percussion": null
    },
    {
      "pitch": 43,
      "start": 15.975328798185942,
      "end": 17.473015873015875,
      "velocity": 100,
      "role": "bass",
      "percussion": null
    },
    {
      "pitch": 62,
      "start": 15.975328798185942,
      "end": 17.473015873015875,
      "velocity": 100,
      "role": "harmony",
      "percussion": null
    },
    {
      "pitch": 67,
      "start": 16.065190022675736,
      "end": 16.32978140589569,
      "velocity": 100,
      "role": "lead",
      "percussion": null
    },
    {
      "pitch": 71,
      "start": 16.32978140589569,
      "end": 16.50451156462585,
      "velocity": 100,
      "role": "lead",
      "percussion": null
    },
    {
      "pitch": 67,
      "start": 16.50451156462585,
      "end": 16.8889179138322,
      "velocity": 100,
      "role": "lead",
      "percussion": null
    },
    {
      "pitch": 71,
      "start": 16.8889179138322,
      "end": 17.053663492063492,
      "velocity": 100,
      "role": "lead",
      "percussion": null
    },
    {
      "pitch": 69,
      "start": 17.053663492063492,
      "end": 17.48300045351474,
      "velocity": 100,
      "role": "lead",
      "percussion": null
    },
    {
      "pitch": 45,
      "start": 17.473015873015875,
      "end": 19.46993197278912,
      "velocity": 100,
      "role": "bass",
      "percussion": null
    },
    {
      "pitch": 64,
      "start": 17.473015873015875,
      "end": 19.46993197278912,
      "velocity": 100,
      "role": "harmony",
      "percussion": null
    },
    {
      "pitch": 69,
      "start": 17.48300045351474,
      "end": 17.6577306122449,
      "velocity": 100,
      "role": "lead",
      "percussion": null
    },
    {
      "pitch": 69,
      "start": 17.6577306122449,
      "end": 17.79751473922903,
      "velocity": 100,
      "role": "lead",
      "percussion": null
    },
    {
      "pitch": 67,
      "start": 17.79751473922903,
      "end": 18.052121541950118,
      "velocity": 100,
      "role": "lead",
      "percussion": null
    },
    {
      "pitch": 67,
      "start": 18.052121541950118,
      "end": 18.216867120181412,
      "velocity": 100,
      "role": "lead",
      "percussion": null
    },
    {
      "pitch": 67,
      "start": 18.216867120181412,
      "end": 18.381612698412706,
      "velocity": 100,
      "role": "lead",
      "percussion": null
    },
    {
      "pitch": 76,
      "start": 18.381612698412706,
      "end": 18.74105759637189,
      "velocity": 100,
      "role": "lead",
      "percussion": null
    },
    {
      "pitch": 67,
      "start": 18.74105759637189,
      "end": 19.360101587301592,
      "velocity": 100,
      "role": "lead",
      "percussion": null
    },
    {
      "pitch": 71,
      "start": 19.360101587301592,
      "end": 21.162318367346945,
      "velocity": 100,
      "role": "lead",
      "percussion": null
    },
    {
      "pitch": 43,
      "start": 19.46993197278912,
      "end": 23.962993197278916,
      "velocity": 100,
      "role": "bass",
      "percussion": null
    },
    {
      "pitch": 66,
      "start": 19.46993197278912,
      "end": 23.962993197278916,
      "velocity": 100,
      "role": "harmony",
      "percussion": null
    },
    {
      "pitch": 43,
      "start": 23.962993197278916,
      "end": 25.46068027210885,
      "velocity": 100,
      "role": "bass",
      "percussion": null
    },
    {
      "pitch": 62,
      "start": 23.962993197278916,
      "end": 25.46068027210885,
      "velocity": 100,
      "role": "harmony",
      "percussion": null
    },
    {
      "pitch": 52,
      "start": 25.46068027210885,
      "end": 25.95990929705216,
      "velocity": 100,
      "role": "bass",
      "percussion": null
    },
    {
      "pitch": 57,
      "start": 25.46068027210885,
      "end": 25.95990929705216,
      "velocity": 100,
      "role": "harmony",
      "percussion": null
    },
    {
      "pitch": 45,
      "start": 25.95990929705216,
      "end": 27.457596371882094,
      "velocity": 100,
      "role": "bass",
      "percussion": null
    },
    {
      "pitch": 64,
      "start": 25.95990929705216,
      "end": 27.457596371882094,
      "velocity": 100,
      "role": "harmony",
      "percussion": null
    },
    {
      "pitch": 43,
      "start": 27.457596371882094,
      "end": 29.454512471655335,
      "velocity": 100,
      "role": "bass",
      "percussion": null
    },
    {
      "pitch": 66,
      "start": 27.457596371882094,
      "end": 29.454512471655335,
      "velocity": 100,
      "role": "harmony",
      "percussion": null
    }
  ]
}